# Blender 4.4.0
# www.blender.org
mtllib flag.mtl
o Cone
v 0.450000 0.300000 0.562500
v 0.450000 0.251227 0.561299
v 0.450000 0.204329 0.557742
v 0.450000 0.161107 0.551967
v 0.450000 0.123223 0.544194
v 0.450000 0.092133 0.534723
v 0.450000 0.069030 0.523918
v 0.450000 0.054804 0.512193
v 0.450000 0.050000 0.500000
v 0.450000 0.054804 0.487807
v 0.450000 0.069030 0.476082
v 0.450000 0.092133 0.465277
v 0.450000 0.123223 0.455806
v 0.450000 0.161107 0.448033
v 0.450000 0.204329 0.442258
v 0.450000 0.251227 0.438701
v 0.450000 0.300000 0.437500
v 0.450000 0.348773 0.438701
v 0.450000 0.395671 0.442258
v 0.450000 0.438893 0.448033
v 0.450000 0.476777 0.455806
v 0.450000 0.507867 0.465277
v 0.450000 0.530970 0.476082
v 0.450000 0.545196 0.487807
v 0.450000 0.550000 0.500000
v 0.450000 0.545196 0.512193
v 0.450000 0.530970 0.523918
v 0.450000 0.507867 0.534723
v 0.450000 0.476777 0.544194
v 0.450000 0.438893 0.551967
v 0.450000 0.395671 0.557742
v 0.450000 0.348773 0.561299
v -0.150000 0.300000 0.500000
vn -0.1036 -0.0245 0.9943
vn -0.1074 -0.0752 0.9914
vn -0.1157 -0.1315 0.9845
vn -0.1303 -0.1993 0.9712
vn -0.1544 -0.2879 0.9451
vn -0.1954 -0.4155 0.8884
vn -0.2657 -0.6132 0.7439
vn -0.3615 -0.8675 0.3418
vn -0.3615 -0.8675 -0.3418
vn -0.2657 -0.6132 -0.7439
vn -0.1954 -0.4155 -0.8884
vn -0.1544 -0.2879 -0.9451
vn -0.1303 -0.1993 -0.9712
vn -0.1157 -0.1315 -0.9845
vn -0.1074 -0.0752 -0.9914
vn -0.1036 -0.0245 -0.9943
vn -0.1036 0.0245 -0.9943
vn -0.1074 0.0752 -0.9914
vn -0.1157 0.1315 -0.9845
vn -0.1303 0.1993 -0.9712
vn -0.1544 0.2879 -0.9451
vn -0.1954 0.4155 -0.8884
vn -0.2657 0.6132 -0.7439
vn -0.3615 0.8675 -0.3418
vn -0.3615 0.8675 0.3418
vn -0.2657 0.6132 0.7439
vn -0.1954 0.4155 0.8884
vn -0.1544 0.2879 0.9451
vn -0.1303 0.1993 0.9712
vn -0.1157 0.1315 0.9845
vn 1.0000 -0.0000 -0.0000
vn -0.1074 0.0752 0.9914
vn -0.1036 0.0245 0.9943
vt 0.250000 0.490000
vt 0.250000 0.250000
vt 0.296822 0.485388
vt 0.341844 0.471731
vt 0.383337 0.449553
vt 0.419706 0.419706
vt 0.449553 0.383337
vt 0.471731 0.341844
vt 0.485388 0.296822
vt 0.490000 0.250000
vt 0.485388 0.203178
vt 0.471731 0.158156
vt 0.449553 0.116663
vt 0.419706 0.080294
vt 0.383337 0.050447
vt 0.341844 0.028269
vt 0.296822 0.014612
vt 0.250000 0.010000
vt 0.203178 0.014612
vt 0.158156 0.028269
vt 0.116663 0.050447
vt 0.080294 0.080294
vt 0.050447 0.116663
vt 0.028269 0.158156
vt 0.014612 0.203178
vt 0.010000 0.250000
vt 0.014612 0.296822
vt 0.028269 0.341844
vt 0.050447 0.383337
vt 0.080294 0.419706
vt 0.116663 0.449553
vt 0.158156 0.471731
vt 0.750000 0.490000
vt 0.796822 0.485388
vt 0.841844 0.471731
vt 0.883337 0.449553
vt 0.919706 0.419706
vt 0.949553 0.383337
vt 0.971731 0.341844
vt 0.985388 0.296822
vt 0.990000 0.250000
vt 0.985388 0.203178
vt 0.971731 0.158156
vt 0.949553 0.116663
vt 0.919706 0.080294
vt 0.883337 0.050447
vt 0.841844 0.028269
vt 0.796822 0.014612
vt 0.750000 0.010000
vt 0.703178 0.014612
vt 0.658156 0.028269
vt 0.616663 0.050447
vt 0.580294 0.080294
vt 0.550447 0.116663
vt 0.528269 0.158156
vt 0.514612 0.203178
vt 0.510000 0.250000
vt 0.514612 0.296822
vt 0.528269 0.341844
vt 0.550447 0.383337
vt 0.580294 0.419706
vt 0.616663 0.449553
vt 0.658156 0.471731
vt 0.703178 0.485388
vt 0.203178 0.485388
s 1
usemtl Material.001
f 1/1/1 33/2/1 2/3/1
f 2/3/2 33/2/2 3/4/2
f 3/4/3 33/2/3 4/5/3
f 4/5/4 33/2/4 5/6/4
f 5/6/5 33/2/5 6/7/5
f 6/7/6 33/2/6 7/8/6
f 7/8/7 33/2/7 8/9/7
f 8/9/8 33/2/8 9/10/8
f 9/10/9 33/2/9 10/11/9
f 10/11/10 33/2/10 11/12/10
f 11/12/11 33/2/11 12/13/11
f 12/13/12 33/2/12 13/14/12
f 13/14/13 33/2/13 14/15/13
f 14/15/14 33/2/14 15/16/14
f 15/16/15 33/2/15 16/17/15
f 16/17/16 33/2/16 17/18/16
f 17/18/17 33/2/17 18/19/17
f 18/19/18 33/2/18 19/20/18
f 19/20/19 33/2/19 20/21/19
f 20/21/20 33/2/20 21/22/20
f 21/22/21 33/2/21 22/23/21
f 22/23/22 33/2/22 23/24/22
f 23/24/23 33/2/23 24/25/23
f 24/25/24 33/2/24 25/26/24
f 25/26/25 33/2/25 26/27/25
f 26/27/26 33/2/26 27/28/26
f 27/28/27 33/2/27 28/29/27
f 28/29/28 33/2/28 29/30/28
f 29/30/29 33/2/29 30/31/29
f 30/31/30 33/2/30 31/32/30
f 1/33/31 2/34/31 3/35/31 4/36/31 5/37/31 6/38/31 7/39/31 8/40/31 9/41/31 10/42/31 11/43/31 12/44/31 13/45/31 14/46/31 15/47/31 16/48/31 17/49/31 18/50/31 19/51/31 20/52/31 21/53/31 22/54/31 23/55/31 24/56/31 25/57/31 26/58/31 27/59/31 28/60/31 29/61/31 30/62/31 31/63/31 32/64/31
f 31/32/32 33/2/32 32/65/32
f 32/65/33 33/2/33 1/1/33
