# Blender 4.4.0
# www.blender.org
o Cylinder
v 0.500000 0.000000 0.437500
v 0.500000 0.700000 0.437500
v 0.512193 0.000000 0.438701
v 0.512193 0.700000 0.438701
v 0.523918 0.000000 0.442258
v 0.523918 0.700000 0.442258
v 0.534723 0.000000 0.448033
v 0.534723 0.700000 0.448033
v 0.544194 0.000000 0.455806
v 0.544194 0.700000 0.455806
v 0.551967 0.000000 0.465277
v 0.551967 0.700000 0.465277
v 0.557742 0.000000 0.476082
v 0.557742 0.700000 0.476082
v 0.561299 0.000000 0.487807
v 0.561299 0.700000 0.487807
v 0.562500 0.000000 0.500000
v 0.562500 0.700000 0.500000
v 0.561299 0.000000 0.512193
v 0.561299 0.700000 0.512193
v 0.557742 0.000000 0.523918
v 0.557742 0.700000 0.523918
v 0.551967 0.000000 0.534723
v 0.551967 0.700000 0.534723
v 0.544194 0.000000 0.544194
v 0.544194 0.700000 0.544194
v 0.534723 0.000000 0.551967
v 0.534723 0.700000 0.551967
v 0.523918 0.000000 0.557742
v 0.523918 0.700000 0.557742
v 0.512193 0.000000 0.561299
v 0.512193 0.700000 0.561299
v 0.500000 0.000000 0.562500
v 0.500000 0.700000 0.562500
v 0.487807 0.000000 0.561299
v 0.487807 0.700000 0.561299
v 0.476082 0.000000 0.557742
v 0.476082 0.700000 0.557742
v 0.465277 0.000000 0.551967
v 0.465277 0.700000 0.551967
v 0.455806 0.000000 0.544194
v 0.455806 0.700000 0.544194
v 0.448033 0.000000 0.534723
v 0.448033 0.700000 0.534723
v 0.442258 0.000000 0.523918
v 0.442258 0.700000 0.523918
v 0.438701 0.000000 0.512193
v 0.438701 0.700000 0.512193
v 0.437500 0.000000 0.500000
v 0.437500 0.700000 0.500000
v 0.438701 0.000000 0.487807
v 0.438701 0.700000 0.487807
v 0.442258 0.000000 0.476082
v 0.442258 0.700000 0.476082
v 0.448033 0.000000 0.465277
v 0.448033 0.700000 0.465277
v 0.455806 0.000000 0.455806
v 0.455806 0.700000 0.455806
v 0.465277 0.000000 0.448033
v 0.465277 0.700000 0.448033
v 0.476082 0.000000 0.442258
v 0.476082 0.700000 0.442258
v 0.487807 0.000000 0.438701
v 0.487807 0.700000 0.438701
vn 0.0980 -0.0000 -0.9952
vn 0.2903 -0.0000 -0.9569
vn 0.4714 -0.0000 -0.8819
vn 0.6344 -0.0000 -0.7730
vn 0.7730 -0.0000 -0.6344
vn 0.8819 -0.0000 -0.4714
vn 0.9569 -0.0000 -0.2903
vn 0.9952 -0.0000 -0.0980
vn 0.9952 -0.0000 0.0980
vn 0.9569 -0.0000 0.2903
vn 0.8819 -0.0000 0.4714
vn 0.7730 -0.0000 0.6344
vn 0.6344 -0.0000 0.7730
vn 0.4714 -0.0000 0.8819
vn 0.2903 -0.0000 0.9569
vn 0.0980 -0.0000 0.9952
vn -0.0980 -0.0000 0.9952
vn -0.2903 -0.0000 0.9569
vn -0.4714 -0.0000 0.8819
vn -0.6344 -0.0000 0.7730
vn -0.7730 -0.0000 0.6344
vn -0.8819 -0.0000 0.4714
vn -0.9569 -0.0000 0.2903
vn -0.9952 -0.0000 0.0980
vn -0.9952 -0.0000 -0.0980
vn -0.9569 -0.0000 -0.2903
vn -0.8819 -0.0000 -0.4714
vn -0.7730 -0.0000 -0.6344
vn -0.6344 -0.0000 -0.7730
vn -0.4714 -0.0000 -0.8819
vn -0.0000 1.0000 -0.0000
vn -0.2903 -0.0000 -0.9569
vn -0.0980 -0.0000 -0.9952
vn -0.0000 -1.0000 -0.0000
vt 0.224400 0.739630
vt 0.224400 0.765563
vt 0.223012 0.765563
vt 0.223012 0.739630
vt 0.221624 0.765563
vt 0.221624 0.739630
vt 0.242933 0.646878
vt 0.242933 0.798355
vt 0.234060 0.798355
vt 0.234060 0.646878
vt 0.225187 0.798355
vt 0.225187 0.646878
vt 0.216314 0.798355
vt 0.216314 0.646878
vt 0.278030 0.779225
vt 0.278030 0.804526
vt 0.275582 0.804526
vt 0.275582 0.779225
vt 0.273134 0.804526
vt 0.273134 0.779225
vt 0.415848 0.894823
vt 0.415848 0.978336
vt 0.407227 0.978336
vt 0.407227 0.894823
vt 0.398606 0.978336
vt 0.398606 0.894823
vt 0.389985 0.978336
vt 0.389985 0.894823
vt 0.381364 0.978336
vt 0.381364 0.894823
vt 0.372742 0.978336
vt 0.372742 0.894823
vt 0.364121 0.978336
vt 0.364121 0.894823
vt 0.355500 0.978336
vt 0.355500 0.894823
vt 0.346879 0.978336
vt 0.346879 0.894823
vt 0.338258 0.978336
vt 0.338258 0.894823
vt 0.329637 0.978336
vt 0.329637 0.894823
vt 0.321015 0.978336
vt 0.321015 0.894823
vt 0.312394 0.978336
vt 0.312394 0.894823
vt 0.243760 0.779225
vt 0.243760 0.804526
vt 0.241312 0.804526
vt 0.241312 0.779225
vt 0.222180 0.684659
vt 0.222180 0.768172
vt 0.213559 0.768172
vt 0.213559 0.684659
vt 0.204938 0.768172
vt 0.204938 0.684659
vt 0.196317 0.768172
vt 0.196317 0.684659
vt 0.234917 0.659612
vt 0.234917 0.811089
vt 0.226044 0.811089
vt 0.226044 0.659612
vt 0.217171 0.811089
vt 0.217171 0.659612
vt 0.208298 0.811089
vt 0.208298 0.659612
vt 0.199425 0.811089
vt 0.199425 0.659612
vt 0.190552 0.811089
vt 0.190552 0.659612
vt 0.181679 0.811089
vt 0.181679 0.659612
vt 0.172806 0.811089
vt 0.172806 0.659612
vt 0.282206 0.892382
vt 0.269288 0.893152
vt 0.256371 0.892382
vt 0.243951 0.890101
vt 0.232504 0.886397
vt 0.222470 0.881411
vt 0.214236 0.875337
vt 0.208118 0.868406
vt 0.204350 0.860887
vt 0.203078 0.853066
vt 0.204350 0.845246
vt 0.208118 0.837726
vt 0.214236 0.830795
vt 0.222470 0.824721
vt 0.232504 0.819736
vt 0.243951 0.816031
vt 0.256371 0.813750
vt 0.269288 0.812980
vt 0.282206 0.813750
vt 0.294626 0.816031
vt 0.306073 0.819736
vt 0.316106 0.824721
vt 0.324341 0.830795
vt 0.330459 0.837726
vt 0.334227 0.845246
vt 0.335499 0.853066
vt 0.334227 0.860887
vt 0.330459 0.868406
vt 0.324341 0.875337
vt 0.316106 0.881411
vt 0.306073 0.886397
vt 0.294626 0.890101
vt 0.163933 0.811089
vt 0.163933 0.659612
vt 0.155061 0.811089
vt 0.155061 0.659612
vt 0.213296 0.739111
vt 0.215376 0.738872
vt 0.217376 0.738164
vt 0.219218 0.737013
vt 0.220834 0.735465
vt 0.222159 0.733579
vt 0.223144 0.731427
vt 0.223751 0.729092
vt 0.223956 0.726663
vt 0.223751 0.724235
vt 0.223144 0.721900
vt 0.222159 0.719747
vt 0.220834 0.717861
vt 0.219218 0.716313
vt 0.217376 0.715163
vt 0.215376 0.714454
vt 0.213296 0.714215
vt 0.211217 0.714454
vt 0.209217 0.715163
vt 0.207375 0.716313
vt 0.205759 0.717861
vt 0.204434 0.719747
vt 0.203449 0.721900
vt 0.202842 0.724235
vt 0.202637 0.726663
vt 0.202842 0.729092
vt 0.203449 0.731427
vt 0.204434 0.733579
vt 0.205759 0.735465
vt 0.207375 0.737013
vt 0.209217 0.738164
vt 0.211217 0.738872
s 1
f 1/1/1 2/2/1 4/3/1 3/4/1
f 3/4/2 4/3/2 6/5/2 5/6/2
f 5/7/3 6/8/3 8/9/3 7/10/3
f 7/10/4 8/9/4 10/11/4 9/12/4
f 9/12/5 10/11/5 12/13/5 11/14/5
f 11/15/6 12/16/6 14/17/6 13/18/6
f 13/18/7 14/17/7 16/19/7 15/20/7
f 15/21/8 16/22/8 18/23/8 17/24/8
f 17/24/9 18/23/9 20/25/9 19/26/9
f 19/26/10 20/25/10 22/27/10 21/28/10
f 21/28/11 22/27/11 24/29/11 23/30/11
f 23/30/12 24/29/12 26/31/12 25/32/12
f 25/32/13 26/31/13 28/33/13 27/34/13
f 27/34/14 28/33/14 30/35/14 29/36/14
f 29/36/15 30/35/15 32/37/15 31/38/15
f 31/38/16 32/37/16 34/39/16 33/40/16
f 33/40/17 34/39/17 36/41/17 35/42/17
f 35/42/18 36/41/18 38/43/18 37/44/18
f 37/44/19 38/43/19 40/45/19 39/46/19
f 39/47/20 40/48/20 42/49/20 41/50/20
f 41/51/21 42/52/21 44/53/21 43/54/21
f 43/54/22 44/53/22 46/55/22 45/56/22
f 45/56/23 46/55/23 48/57/23 47/58/23
f 47/59/24 48/60/24 50/61/24 49/62/24
f 49/62/25 50/61/25 52/63/25 51/64/25
f 51/64/26 52/63/26 54/65/26 53/66/26
f 53/66/27 54/65/27 56/67/27 55/68/27
f 55/68/28 56/67/28 58/69/28 57/70/28
f 57/70/29 58/69/29 60/71/29 59/72/29
f 59/72/30 60/71/30 62/73/30 61/74/30
f 4/75/31 2/76/31 64/77/31 62/78/31 60/79/31 58/80/31 56/81/31 54/82/31 52/83/31 50/84/31 48/85/31 46/86/31 44/87/31 42/88/31 40/89/31 38/90/31 36/91/31 34/92/31 32/93/31 30/94/31 28/95/31 26/96/31 24/97/31 22/98/31 20/99/31 18/100/31 16/101/31 14/102/31 12/103/31 10/104/31 8/105/31 6/106/31
f 61/74/32 62/73/32 64/107/32 63/108/32
f 63/108/33 64/107/33 2/109/33 1/110/33
f 1/111/34 3/112/34 5/113/34 7/114/34 9/115/34 11/116/34 13/117/34 15/118/34 17/119/34 19/120/34 21/121/34 23/122/34 25/123/34 27/124/34 29/125/34 31/126/34 33/127/34 35/128/34 37/129/34 39/130/34 41/131/34 43/132/34 45/133/34 47/134/34 49/135/34 51/136/34 53/137/34 55/138/34 57/139/34 59/140/34 61/141/34 63/142/34
o Sphere
v 0.500000 0.967901 0.395831
v 0.500000 0.916169 0.344099
v 0.500000 0.848579 0.316103
v 0.500000 0.812000 0.312500
v 0.500000 0.775421 0.316103
v 0.500000 0.707831 0.344099
v 0.507136 0.995897 0.464123
v 0.513998 0.985227 0.429626
v 0.520322 0.967901 0.397832
v 0.525866 0.944582 0.369965
v 0.530415 0.916169 0.347095
v 0.533795 0.883753 0.330101
v 0.535877 0.848579 0.319636
v 0.536579 0.812000 0.316103
v 0.535877 0.775421 0.319636
v 0.533795 0.740247 0.330101
v 0.530415 0.707831 0.347095
v 0.525866 0.679417 0.369965
v 0.520322 0.656099 0.397832
v 0.513998 0.638773 0.429626
v 0.507136 0.628103 0.464123
v 0.513998 0.995897 0.466205
v 0.527459 0.985227 0.433709
v 0.539864 0.967901 0.403760
v 0.550737 0.944582 0.377510
v 0.559661 0.916169 0.355967
v 0.566291 0.883753 0.339959
v 0.570374 0.848579 0.330101
v 0.571753 0.812000 0.326773
v 0.570374 0.775421 0.330101
v 0.566291 0.740247 0.339959
v 0.559661 0.707831 0.355967
v 0.550737 0.679417 0.377510
v 0.539864 0.656099 0.403760
v 0.527459 0.638773 0.433709
v 0.513998 0.628103 0.466205
v 0.520322 0.995897 0.469585
v 0.539864 0.985227 0.440339
v 0.557873 0.967901 0.413386
v 0.573659 0.944582 0.389762
v 0.586614 0.916169 0.370373
v 0.596240 0.883753 0.355967
v 0.602168 0.848579 0.347095
v 0.604169 0.812000 0.344099
v 0.602168 0.775421 0.347095
v 0.596240 0.740247 0.355967
v 0.586614 0.707831 0.370373
v 0.573659 0.679417 0.389762
v 0.557873 0.656099 0.413386
v 0.539864 0.638773 0.440339
v 0.520322 0.628103 0.469585
v 0.525866 0.995897 0.474134
v 0.550737 0.985227 0.449263
v 0.573659 0.967901 0.426341
v 0.593750 0.944582 0.406250
v 0.610238 0.916169 0.389762
v 0.622490 0.883753 0.377510
v 0.630035 0.848579 0.369965
v 0.632583 0.812000 0.367417
v 0.630035 0.775421 0.369965
v 0.622490 0.740247 0.377510
v 0.610238 0.707831 0.389762
v 0.593750 0.679417 0.406250
v 0.573659 0.656099 0.426341
v 0.550737 0.638773 0.449263
v 0.525866 0.628103 0.474134
v 0.530415 0.995897 0.479678
v 0.559661 0.985227 0.460136
v 0.586614 0.967901 0.442127
v 0.610238 0.944582 0.426341
v 0.629627 0.916169 0.413386
v 0.644033 0.883753 0.403760
v 0.652905 0.848579 0.397832
v 0.655901 0.812000 0.395831
v 0.652905 0.775421 0.397832
v 0.644033 0.740247 0.403760
v 0.629627 0.707831 0.413386
v 0.610238 0.679417 0.426341
v 0.586614 0.656099 0.442127
v 0.559661 0.638773 0.460136
v 0.530415 0.628103 0.479678
v 0.500000 0.999500 0.500000
v 0.533795 0.995897 0.486002
v 0.566291 0.985227 0.472541
v 0.596240 0.967901 0.460136
v 0.622490 0.944582 0.449263
v 0.644033 0.916169 0.440339
v 0.660041 0.883753 0.433709
v 0.669899 0.848579 0.429626
v 0.673227 0.812000 0.428247
v 0.669899 0.775421 0.429626
v 0.660041 0.740247 0.433709
v 0.644033 0.707831 0.440339
v 0.622490 0.679417 0.449263
v 0.596240 0.656099 0.460136
v 0.566291 0.638773 0.472541
v 0.533795 0.628103 0.486002
v 0.535877 0.995897 0.492864
v 0.570374 0.985227 0.486002
v 0.602168 0.967901 0.479678
v 0.630035 0.944582 0.474134
v 0.652905 0.916169 0.469585
v 0.669899 0.883753 0.466205
v 0.680364 0.848579 0.464123
v 0.683897 0.812000 0.463421
v 0.680364 0.775421 0.464123
v 0.669899 0.740247 0.466205
v 0.652905 0.707831 0.469585
v 0.630035 0.679417 0.474134
v 0.602168 0.656099 0.479678
v 0.570374 0.638773 0.486002
v 0.535877 0.628103 0.492864
v 0.536579 0.995897 0.500000
v 0.571753 0.985227 0.500000
v 0.604169 0.967901 0.500000
v 0.632583 0.944582 0.500000
v 0.655901 0.916169 0.500000
v 0.673227 0.883753 0.500000
v 0.683897 0.848579 0.500000
v 0.687500 0.812000 0.500000
v 0.683897 0.775421 0.500000
v 0.673227 0.740247 0.500000
v 0.655901 0.707831 0.500000
v 0.632583 0.679417 0.500000
v 0.604169 0.656099 0.500000
v 0.571753 0.638773 0.500000
v 0.536579 0.628103 0.500000
v 0.535877 0.995897 0.507136
v 0.570374 0.985227 0.513998
v 0.602168 0.967901 0.520322
v 0.630035 0.944582 0.525866
v 0.652905 0.916169 0.530415
v 0.669899 0.883753 0.533795
v 0.680364 0.848579 0.535877
v 0.683897 0.812000 0.536579
v 0.680364 0.775421 0.535877
v 0.669899 0.740247 0.533795
v 0.652905 0.707831 0.530415
v 0.630035 0.679417 0.525866
v 0.602168 0.656099 0.520322
v 0.570374 0.638773 0.513998
v 0.535877 0.628103 0.507136
v 0.533795 0.995897 0.513998
v 0.566291 0.985227 0.527459
v 0.596240 0.967901 0.539864
v 0.622490 0.944582 0.550737
v 0.644033 0.916169 0.559661
v 0.660041 0.883753 0.566291
v 0.669899 0.848579 0.570374
v 0.673227 0.812000 0.571753
v 0.669899 0.775421 0.570374
v 0.660041 0.740247 0.566291
v 0.644033 0.707831 0.559661
v 0.622490 0.679417 0.550737
v 0.596240 0.656099 0.539864
v 0.566291 0.638773 0.527459
v 0.533795 0.628103 0.513998
v 0.530415 0.995897 0.520322
v 0.559661 0.985227 0.539864
v 0.586614 0.967901 0.557873
v 0.610238 0.944582 0.573659
v 0.629627 0.916169 0.586614
v 0.644033 0.883753 0.596240
v 0.652905 0.848579 0.602168
v 0.655901 0.812000 0.604169
v 0.652905 0.775421 0.602168
v 0.644033 0.740247 0.596240
v 0.629627 0.707831 0.586614
v 0.610238 0.679417 0.573659
v 0.586614 0.656099 0.557873
v 0.559661 0.638773 0.539864
v 0.530415 0.628103 0.520322
v 0.525866 0.995897 0.525866
v 0.550737 0.985227 0.550737
v 0.573659 0.967901 0.573659
v 0.593750 0.944582 0.593750
v 0.610238 0.916169 0.610238
v 0.622490 0.883753 0.622490
v 0.630035 0.848579 0.630035
v 0.632582 0.812000 0.632583
v 0.630035 0.775421 0.630035
v 0.622490 0.740247 0.622490
v 0.610238 0.707831 0.610238
v 0.593750 0.679417 0.593750
v 0.573659 0.656099 0.573659
v 0.550737 0.638773 0.550737
v 0.525866 0.628103 0.525866
v 0.520322 0.995897 0.530415
v 0.539864 0.985227 0.559661
v 0.557873 0.967901 0.586614
v 0.573659 0.944582 0.610238
v 0.586614 0.916169 0.629627
v 0.596240 0.883753 0.644033
v 0.602168 0.848579 0.652905
v 0.604169 0.812000 0.655901
v 0.602168 0.775421 0.652905
v 0.596240 0.740247 0.644033
v 0.586614 0.707831 0.629627
v 0.573659 0.679417 0.610238
v 0.557873 0.656099 0.586614
v 0.539864 0.638773 0.559661
v 0.520322 0.628103 0.530415
v 0.513998 0.995897 0.533795
v 0.527459 0.985227 0.566291
v 0.539864 0.967901 0.596240
v 0.550737 0.944582 0.622490
v 0.559661 0.916169 0.644033
v 0.566291 0.883753 0.660041
v 0.570374 0.848579 0.669899
v 0.571753 0.812000 0.673227
v 0.570374 0.775421 0.669899
v 0.566291 0.740247 0.660041
v 0.559661 0.707831 0.644033
v 0.550737 0.679417 0.622490
v 0.539864 0.656099 0.596240
v 0.527459 0.638773 0.566291
v 0.513998 0.628103 0.533795
v 0.507136 0.995897 0.535877
v 0.513998 0.985227 0.570374
v 0.520322 0.967901 0.602168
v 0.525866 0.944582 0.630035
v 0.530415 0.916169 0.652905
v 0.533795 0.883753 0.669899
v 0.535877 0.848579 0.680364
v 0.536579 0.812000 0.683897
v 0.535877 0.775421 0.680364
v 0.533795 0.740247 0.669899
v 0.530415 0.707831 0.652905
v 0.525866 0.679417 0.630035
v 0.520322 0.656099 0.602168
v 0.513998 0.638773 0.570374
v 0.507136 0.628103 0.535877
v 0.500000 0.995897 0.536579
v 0.500000 0.985227 0.571753
v 0.500000 0.967901 0.604169
v 0.500000 0.944582 0.632583
v 0.500000 0.916169 0.655901
v 0.500000 0.883753 0.673227
v 0.500000 0.848579 0.683897
v 0.500000 0.812000 0.687500
v 0.500000 0.775421 0.683897
v 0.500000 0.740247 0.673227
v 0.500000 0.707831 0.655901
v 0.500000 0.679417 0.632583
v 0.500000 0.656099 0.604169
v 0.500000 0.638773 0.571753
v 0.500000 0.628103 0.536579
v 0.492864 0.995897 0.535877
v 0.486002 0.985227 0.570374
v 0.479678 0.967901 0.602168
v 0.474134 0.944582 0.630035
v 0.469585 0.916169 0.652905
v 0.466205 0.883753 0.669899
v 0.464123 0.848579 0.680364
v 0.463421 0.812000 0.683897
v 0.464123 0.775421 0.680364
v 0.466205 0.740247 0.669899
v 0.469585 0.707831 0.652905
v 0.474134 0.679417 0.630035
v 0.479678 0.656099 0.602168
v 0.486002 0.638773 0.570374
v 0.492864 0.628103 0.535877
v 0.486002 0.995897 0.533795
v 0.472541 0.985227 0.566291
v 0.460136 0.967901 0.596240
v 0.449263 0.944582 0.622490
v 0.440339 0.916169 0.644033
v 0.433709 0.883753 0.660041
v 0.429626 0.848579 0.669899
v 0.428247 0.812000 0.673227
v 0.429626 0.775421 0.669899
v 0.433709 0.740247 0.660041
v 0.440339 0.707831 0.644033
v 0.449263 0.679417 0.622490
v 0.460136 0.656099 0.596240
v 0.472541 0.638773 0.566291
v 0.486002 0.628103 0.533795
v 0.479678 0.995897 0.530415
v 0.460136 0.985227 0.559661
v 0.442127 0.967901 0.586614
v 0.426341 0.944582 0.610238
v 0.413386 0.916169 0.629627
v 0.403760 0.883753 0.644033
v 0.397832 0.848579 0.652905
v 0.395831 0.812000 0.655900
v 0.397832 0.775421 0.652905
v 0.403760 0.740247 0.644033
v 0.413386 0.707831 0.629627
v 0.426341 0.679417 0.610238
v 0.442127 0.656099 0.586614
v 0.460136 0.638773 0.559661
v 0.479678 0.628103 0.530415
v 0.474134 0.995897 0.525866
v 0.449263 0.985227 0.550737
v 0.426341 0.967901 0.573659
v 0.406250 0.944582 0.593750
v 0.389762 0.916169 0.610238
v 0.377510 0.883753 0.622490
v 0.369965 0.848579 0.630035
v 0.367417 0.812000 0.632582
v 0.369965 0.775421 0.630035
v 0.377510 0.740247 0.622490
v 0.389762 0.707831 0.610238
v 0.406250 0.679417 0.593750
v 0.426341 0.656099 0.573659
v 0.449263 0.638773 0.550737
v 0.474134 0.628103 0.525866
v 0.500000 0.624500 0.500000
v 0.469585 0.995897 0.520322
v 0.440339 0.985227 0.539864
v 0.413386 0.967901 0.557873
v 0.389762 0.944582 0.573659
v 0.370373 0.916169 0.586614
v 0.355967 0.883753 0.596240
v 0.347095 0.848579 0.602168
v 0.344099 0.812000 0.604169
v 0.347095 0.775421 0.602168
v 0.355967 0.740247 0.596240
v 0.370373 0.707831 0.586614
v 0.389762 0.679417 0.573659
v 0.413386 0.656099 0.557873
v 0.440339 0.638773 0.539864
v 0.469585 0.628103 0.520322
v 0.466205 0.995897 0.513998
v 0.433709 0.985227 0.527459
v 0.403760 0.967901 0.539864
v 0.377510 0.944582 0.550737
v 0.355967 0.916169 0.559660
v 0.339959 0.883753 0.566291
v 0.330101 0.848579 0.570374
v 0.326773 0.812000 0.571753
v 0.330101 0.775421 0.570374
v 0.339959 0.740247 0.566291
v 0.355967 0.707831 0.559660
v 0.377510 0.679417 0.550737
v 0.403760 0.656099 0.539864
v 0.433709 0.638773 0.527459
v 0.466205 0.628103 0.513998
v 0.464123 0.995897 0.507136
v 0.429626 0.985227 0.513998
v 0.397832 0.967901 0.520322
v 0.369965 0.944582 0.525866
v 0.347095 0.916169 0.530415
v 0.330101 0.883753 0.533795
v 0.319636 0.848579 0.535877
v 0.316103 0.812000 0.536579
v 0.319636 0.775421 0.535877
v 0.330101 0.740247 0.533795
v 0.347095 0.707831 0.530415
v 0.369965 0.679417 0.525866
v 0.397832 0.656099 0.520322
v 0.429626 0.638773 0.513998
v 0.464123 0.628103 0.507136
v 0.463421 0.995897 0.500000
v 0.428247 0.985227 0.500000
v 0.395831 0.967901 0.500000
v 0.367417 0.944582 0.500000
v 0.344099 0.916169 0.500000
v 0.326773 0.883753 0.500000
v 0.316103 0.848579 0.500000
v 0.312500 0.812000 0.500000
v 0.316103 0.775421 0.500000
v 0.326773 0.740247 0.500000
v 0.344099 0.707831 0.500000
v 0.367417 0.679417 0.500000
v 0.395831 0.656099 0.500000
v 0.428247 0.638773 0.500000
v 0.463421 0.628103 0.500000
v 0.464123 0.995897 0.492864
v 0.429626 0.985227 0.486002
v 0.397832 0.967901 0.479678
v 0.369965 0.944582 0.474134
v 0.347095 0.916169 0.469585
v 0.330101 0.883753 0.466205
v 0.319636 0.848579 0.464123
v 0.316103 0.812000 0.463421
v 0.319636 0.775421 0.464123
v 0.330101 0.740247 0.466205
v 0.347095 0.707831 0.469585
v 0.369965 0.679417 0.474134
v 0.397832 0.656099 0.479678
v 0.429626 0.638773 0.486002
v 0.464123 0.628103 0.492864
v 0.466205 0.995897 0.486002
v 0.433709 0.985227 0.472541
v 0.403760 0.967901 0.460136
v 0.377510 0.944582 0.449263
v 0.355967 0.916169 0.440339
v 0.339959 0.883753 0.433709
v 0.330101 0.848579 0.429626
v 0.326773 0.812000 0.428247
v 0.330101 0.775421 0.429626
v 0.339959 0.740247 0.433709
v 0.355967 0.707831 0.440339
v 0.377510 0.679417 0.449263
v 0.403760 0.656099 0.460136
v 0.433709 0.638773 0.472541
v 0.466205 0.628103 0.486002
v 0.469585 0.995897 0.479678
v 0.440339 0.985227 0.460136
v 0.413386 0.967901 0.442127
v 0.389762 0.944582 0.426341
v 0.370373 0.916169 0.413386
v 0.355967 0.883753 0.403760
v 0.347095 0.848579 0.397832
v 0.344100 0.812000 0.395831
v 0.347095 0.775421 0.397832
v 0.355967 0.740247 0.403760
v 0.370373 0.707831 0.413386
v 0.389762 0.679417 0.426341
v 0.413386 0.656099 0.442127
v 0.440339 0.638773 0.460136
v 0.469585 0.628103 0.479678
v 0.474134 0.995897 0.474134
v 0.449263 0.985227 0.449263
v 0.426341 0.967901 0.426341
v 0.406250 0.944582 0.406250
v 0.389762 0.916169 0.389762
v 0.377510 0.883753 0.377510
v 0.369965 0.848579 0.369965
v 0.367418 0.812000 0.367418
v 0.369965 0.775421 0.369965
v 0.377510 0.740247 0.377510
v 0.389762 0.707831 0.389762
v 0.406250 0.679417 0.406250
v 0.426341 0.656099 0.426341
v 0.449263 0.638773 0.449263
v 0.474134 0.628103 0.474134
v 0.479678 0.995897 0.469585
v 0.460136 0.985227 0.440339
v 0.442127 0.967901 0.413386
v 0.426341 0.944582 0.389762
v 0.413386 0.916169 0.370373
v 0.403760 0.883753 0.355967
v 0.397832 0.848579 0.347095
v 0.395831 0.812000 0.344100
v 0.397832 0.775421 0.347095
v 0.403760 0.740247 0.355967
v 0.413386 0.707831 0.370373
v 0.426341 0.679417 0.389762
v 0.442127 0.656099 0.413386
v 0.460136 0.638773 0.440339
v 0.479678 0.628103 0.469585
v 0.486002 0.995897 0.466205
v 0.472541 0.985227 0.433709
v 0.460136 0.967901 0.403760
v 0.449263 0.944582 0.377510
v 0.440339 0.916169 0.355967
v 0.433709 0.883753 0.339959
v 0.429626 0.848579 0.330101
v 0.428247 0.812000 0.326773
v 0.429626 0.775421 0.330101
v 0.433709 0.740247 0.339959
v 0.440339 0.707831 0.355967
v 0.449263 0.679417 0.377510
v 0.460136 0.656099 0.403760
v 0.472541 0.638773 0.433709
v 0.486002 0.628103 0.466205
v 0.492864 0.995897 0.464123
v 0.486002 0.985227 0.429626
v 0.479678 0.967901 0.397832
v 0.474134 0.944582 0.369965
v 0.469585 0.916169 0.347095
v 0.466205 0.883753 0.330101
v 0.464123 0.848579 0.319636
v 0.463421 0.812000 0.316103
v 0.464123 0.775421 0.319636
v 0.466205 0.740247 0.330101
v 0.469585 0.707831 0.347095
v 0.474134 0.679417 0.369965
v 0.479678 0.656099 0.397832
v 0.486002 0.638773 0.429626
v 0.492864 0.628103 0.464123
v 0.500000 0.995897 0.463421
v 0.500000 0.985227 0.428247
v 0.500000 0.944582 0.367417
v 0.500000 0.883753 0.326773
v 0.500000 0.740247 0.326773
v 0.500000 0.679417 0.367417
v 0.500000 0.656099 0.395831
v 0.500000 0.638773 0.428247
v 0.500000 0.628103 0.463421
vn 0.0865 0.4696 -0.8786
vn 0.0464 -0.8810 -0.4709
vn 0.0938 0.2890 -0.9527
vn 0.0286 -0.9565 -0.2902
vn 0.0975 0.0975 -0.9904
vn 0.0096 0.9951 -0.0980
vn 0.0096 -0.9951 -0.0980
vn 0.0975 -0.0975 -0.9904
vn 0.0286 0.9565 -0.2902
vn 0.0938 -0.2890 -0.9527
vn 0.0464 0.8810 -0.4709
vn 0.0865 -0.4696 -0.8786
vn 0.0624 0.7715 -0.6332
vn 0.0759 -0.6326 -0.7708
vn 0.0759 0.6326 -0.7708
vn 0.0624 -0.7715 -0.6332
vn 0.2248 0.6326 -0.7412
vn 0.1847 -0.7715 -0.6088
vn 0.2563 0.4696 -0.8448
vn 0.1373 -0.8810 -0.4528
vn 0.2779 0.2890 -0.9161
vn 0.0846 -0.9565 -0.2790
vn 0.2889 0.0975 -0.9524
vn 0.0286 0.9951 -0.0943
vn 0.0286 -0.9951 -0.0942
vn 0.2889 -0.0975 -0.9524
vn 0.0846 0.9565 -0.2790
vn 0.2779 -0.2890 -0.9161
vn 0.1373 0.8810 -0.4528
vn 0.2563 -0.4696 -0.8448
vn 0.1847 0.7715 -0.6088
vn 0.2248 -0.6326 -0.7412
vn 0.4691 -0.0975 -0.8777
vn 0.1374 0.9565 -0.2572
vn 0.4513 -0.2890 -0.8443
vn 0.2230 0.8810 -0.4173
vn 0.4162 -0.4696 -0.7786
vn 0.2999 0.7715 -0.5611
vn 0.3651 -0.6326 -0.6831
vn 0.3651 0.6326 -0.6831
vn 0.2999 -0.7715 -0.5611
vn 0.4162 0.4696 -0.7786
vn 0.2230 -0.8810 -0.4173
vn 0.4513 0.2890 -0.8443
vn 0.1374 -0.9565 -0.2571
vn 0.4691 0.0975 -0.8777
vn 0.0464 0.9951 -0.0869
vn 0.0464 -0.9951 -0.0869
vn 0.4036 -0.7715 -0.4918
vn 0.5601 0.4696 -0.6825
vn 0.3002 -0.8810 -0.3657
vn 0.6073 0.2890 -0.7400
vn 0.1850 -0.9565 -0.2254
vn 0.6314 0.0976 -0.7693
vn 0.0625 0.9951 -0.0761
vn 0.0625 -0.9951 -0.0761
vn 0.6314 -0.0976 -0.7693
vn 0.1850 0.9565 -0.2254
vn 0.6073 -0.2890 -0.7400
vn 0.3002 0.8810 -0.3657
vn 0.5601 -0.4696 -0.6825
vn 0.4036 0.7715 -0.4918
vn 0.4914 -0.6326 -0.5987
vn 0.4914 0.6326 -0.5987
vn 0.2254 0.9565 -0.1850
vn 0.7400 -0.2890 -0.6073
vn 0.3657 0.8810 -0.3002
vn 0.6825 -0.4696 -0.5601
vn 0.4918 0.7715 -0.4036
vn 0.5987 -0.6326 -0.4914
vn 0.5987 0.6326 -0.4914
vn 0.4918 -0.7715 -0.4036
vn 0.6825 0.4696 -0.5601
vn 0.3657 -0.8810 -0.3002
vn 0.7400 0.2890 -0.6073
vn 0.2254 -0.9565 -0.1850
vn 0.7693 0.0976 -0.6314
vn 0.0761 0.9951 -0.0625
vn 0.0761 -0.9951 -0.0625
vn 0.7693 -0.0976 -0.6314
vn 0.7786 0.4696 -0.4162
vn 0.4173 -0.8810 -0.2230
vn 0.8443 0.2890 -0.4513
vn 0.2571 -0.9565 -0.1374
vn 0.8777 0.0975 -0.4691
vn 0.0869 0.9951 -0.0464
vn 0.0869 -0.9951 -0.0464
vn 0.8777 -0.0975 -0.4691
vn 0.2571 0.9565 -0.1374
vn 0.8443 -0.2890 -0.4513
vn 0.4173 0.8810 -0.2230
vn 0.7786 -0.4696 -0.4162
vn 0.5611 0.7715 -0.2999
vn 0.6831 -0.6326 -0.3651
vn 0.6831 0.6326 -0.3651
vn 0.5611 -0.7715 -0.2999
vn 0.9161 -0.2890 -0.2779
vn 0.4528 0.8810 -0.1373
vn 0.8448 -0.4696 -0.2563
vn 0.6088 0.7715 -0.1847
vn 0.7412 -0.6326 -0.2248
vn 0.7412 0.6326 -0.2248
vn 0.6088 -0.7715 -0.1847
vn 0.8448 0.4696 -0.2563
vn 0.4528 -0.8810 -0.1373
vn 0.9161 0.2890 -0.2779
vn 0.2790 -0.9565 -0.0846
vn 0.9524 0.0975 -0.2889
vn 0.0943 0.9951 -0.0286
vn 0.0943 -0.9951 -0.0286
vn 0.9524 -0.0975 -0.2889
vn 0.2790 0.9565 -0.0847
vn 0.4709 -0.8810 -0.0464
vn 0.9527 0.2890 -0.0938
vn 0.2902 -0.9565 -0.0286
vn 0.9904 0.0975 -0.0975
vn 0.0980 0.9951 -0.0096
vn 0.0980 -0.9951 -0.0096
vn 0.9904 -0.0975 -0.0975
vn 0.2902 0.9565 -0.0286
vn 0.9527 -0.2890 -0.0938
vn 0.4709 0.8810 -0.0464
vn 0.8786 -0.4696 -0.0865
vn 0.6332 0.7715 -0.0624
vn 0.7708 -0.6325 -0.0759
vn 0.7708 0.6326 -0.0759
vn 0.6332 -0.7715 -0.0624
vn 0.8786 0.4696 -0.0865
vn 0.8786 -0.4696 0.0865
vn 0.6332 0.7715 0.0624
vn 0.7708 -0.6325 0.0759
vn 0.7708 0.6326 0.0759
vn 0.6332 -0.7715 0.0624
vn 0.8786 0.4696 0.0865
vn 0.4709 -0.8810 0.0464
vn 0.9527 0.2890 0.0938
vn 0.2902 -0.9565 0.0286
vn 0.9904 0.0975 0.0975
vn 0.0980 0.9951 0.0096
vn 0.0980 -0.9951 0.0096
vn 0.9904 -0.0975 0.0975
vn 0.2902 0.9565 0.0286
vn 0.9527 -0.2890 0.0938
vn 0.4709 0.8810 0.0464
vn 0.2790 -0.9565 0.0846
vn 0.9524 0.0975 0.2889
vn 0.0943 0.9951 0.0286
vn 0.0943 -0.9951 0.0286
vn 0.9524 -0.0975 0.2889
vn 0.2790 0.9565 0.0847
vn 0.9161 -0.2890 0.2779
vn 0.4528 0.8810 0.1373
vn 0.8448 -0.4696 0.2563
vn 0.6088 0.7715 0.1847
vn 0.7412 -0.6326 0.2248
vn 0.7412 0.6326 0.2248
vn 0.6088 -0.7715 0.1847
vn 0.8448 0.4696 0.2563
vn 0.4528 -0.8810 0.1373
vn 0.9161 0.2890 0.2779
vn 0.5611 0.7715 0.2999
vn 0.6831 -0.6326 0.3651
vn 0.6831 0.6326 0.3651
vn 0.5611 -0.7715 0.2999
vn 0.7786 0.4696 0.4162
vn 0.4173 -0.8810 0.2230
vn 0.8443 0.2890 0.4513
vn 0.2572 -0.9565 0.1374
vn 0.8777 0.0975 0.4691
vn 0.0869 0.9951 0.0464
vn 0.0869 -0.9951 0.0464
vn 0.8777 -0.0975 0.4691
vn 0.2572 0.9565 0.1374
vn 0.8443 -0.2890 0.4513
vn 0.4173 0.8810 0.2230
vn 0.7786 -0.4696 0.4162
vn 0.7693 0.0976 0.6314
vn 0.0761 0.9951 0.0625
vn 0.0761 -0.9951 0.0625
vn 0.7693 -0.0976 0.6314
vn 0.2254 0.9565 0.1850
vn 0.7400 -0.2890 0.6073
vn 0.3657 0.8810 0.3002
vn 0.6825 -0.4696 0.5601
vn 0.4918 0.7715 0.4036
vn 0.5987 -0.6326 0.4914
vn 0.5987 0.6326 0.4914
vn 0.4918 -0.7715 0.4036
vn 0.6825 0.4696 0.5601
vn 0.3657 -0.8810 0.3002
vn 0.7400 0.2890 0.6073
vn 0.2254 -0.9565 0.1850
vn 0.4914 -0.6326 0.5987
vn 0.4914 0.6326 0.5987
vn 0.4036 -0.7715 0.4918
vn 0.5601 0.4696 0.6825
vn 0.3002 -0.8810 0.3657
vn 0.6073 0.2890 0.7400
vn 0.1850 -0.9565 0.2254
vn 0.6314 0.0976 0.7693
vn 0.0625 0.9951 0.0761
vn 0.0625 -0.9951 0.0761
vn 0.6314 -0.0976 0.7693
vn 0.1850 0.9565 0.2254
vn 0.6073 -0.2890 0.7400
vn 0.3002 0.8810 0.3657
vn 0.5601 -0.4696 0.6825
vn 0.4036 0.7715 0.4918
vn 0.0464 0.9951 0.0869
vn 0.0464 -0.9951 0.0869
vn 0.4691 -0.0975 0.8777
vn 0.1374 0.9565 0.2572
vn 0.4513 -0.2890 0.8443
vn 0.2230 0.8810 0.4173
vn 0.4162 -0.4696 0.7786
vn 0.2999 0.7715 0.5611
vn 0.3651 -0.6326 0.6831
vn 0.3651 0.6326 0.6831
vn 0.2999 -0.7715 0.5611
vn 0.4162 0.4696 0.7786
vn 0.2230 -0.8810 0.4173
vn 0.4513 0.2890 0.8443
vn 0.1374 -0.9565 0.2571
vn 0.4691 0.0975 0.8777
vn 0.2248 0.6326 0.7412
vn 0.1847 -0.7715 0.6088
vn 0.2563 0.4696 0.8448
vn 0.1373 -0.8810 0.4528
vn 0.2779 0.2890 0.9161
vn 0.0846 -0.9565 0.2790
vn 0.2889 0.0975 0.9524
vn 0.0286 0.9951 0.0943
vn 0.0286 -0.9951 0.0942
vn 0.2889 -0.0975 0.9524
vn 0.0846 0.9565 0.2790
vn 0.2779 -0.2890 0.9161
vn 0.1373 0.8810 0.4528
vn 0.2563 -0.4696 0.8448
vn 0.1847 0.7715 0.6088
vn 0.2248 -0.6326 0.7412
vn 0.0975 -0.0975 0.9904
vn 0.0286 0.9565 0.2902
vn 0.0938 -0.2890 0.9527
vn 0.0464 0.8810 0.4709
vn 0.0865 -0.4696 0.8786
vn 0.0624 0.7715 0.6332
vn 0.0759 -0.6325 0.7708
vn 0.0759 0.6326 0.7708
vn 0.0624 -0.7715 0.6332
vn 0.0865 0.4696 0.8786
vn 0.0464 -0.8810 0.4709
vn 0.0938 0.2890 0.9527
vn 0.0286 -0.9565 0.2902
vn 0.0975 0.0975 0.9904
vn 0.0096 0.9951 0.0980
vn 0.0096 -0.9951 0.0980
vn -0.0624 -0.7715 0.6332
vn -0.0865 0.4696 0.8786
vn -0.0464 -0.8810 0.4709
vn -0.0938 0.2890 0.9527
vn -0.0286 -0.9565 0.2902
vn -0.0975 0.0975 0.9904
vn -0.0096 0.9951 0.0980
vn -0.0096 -0.9951 0.0980
vn -0.0975 -0.0975 0.9904
vn -0.0286 0.9565 0.2902
vn -0.0938 -0.2890 0.9527
vn -0.0464 0.8810 0.4709
vn -0.0865 -0.4696 0.8786
vn -0.0624 0.7715 0.6332
vn -0.0759 -0.6325 0.7708
vn -0.0759 0.6326 0.7708
vn -0.2779 -0.2890 0.9161
vn -0.1373 0.8810 0.4528
vn -0.2563 -0.4696 0.8448
vn -0.1847 0.7715 0.6088
vn -0.2248 -0.6326 0.7412
vn -0.2248 0.6326 0.7412
vn -0.1847 -0.7715 0.6088
vn -0.2563 0.4696 0.8448
vn -0.1373 -0.8810 0.4528
vn -0.2779 0.2890 0.9161
vn -0.0846 -0.9565 0.2790
vn -0.2889 0.0975 0.9524
vn -0.0286 0.9951 0.0943
vn -0.0286 -0.9951 0.0942
vn -0.2889 -0.0975 0.9524
vn -0.0846 0.9565 0.2790
vn -0.2230 -0.8810 0.4173
vn -0.4513 0.2890 0.8443
vn -0.1374 -0.9565 0.2572
vn -0.4691 0.0975 0.8777
vn -0.0464 0.9951 0.0869
vn -0.0464 -0.9951 0.0869
vn -0.4692 -0.0975 0.8777
vn -0.1374 0.9565 0.2572
vn -0.4513 -0.2890 0.8443
vn -0.2230 0.8810 0.4173
vn -0.4162 -0.4696 0.7786
vn -0.2999 0.7715 0.5611
vn -0.3651 -0.6326 0.6831
vn -0.3651 0.6326 0.6831
vn -0.2999 -0.7715 0.5611
vn -0.4162 0.4696 0.7786
vn -0.3002 0.8810 0.3657
vn -0.5601 -0.4696 0.6825
vn -0.4036 0.7715 0.4918
vn -0.4914 -0.6326 0.5987
vn -0.4914 0.6326 0.5987
vn -0.4036 -0.7715 0.4918
vn -0.5601 0.4696 0.6825
vn -0.3002 -0.8810 0.3657
vn -0.6073 0.2890 0.7400
vn -0.1850 -0.9565 0.2254
vn -0.6314 0.0975 0.7693
vn -0.0625 0.9951 0.0761
vn -0.0625 -0.9951 0.0761
vn -0.6314 -0.0975 0.7693
vn -0.1850 0.9565 0.2254
vn -0.6073 -0.2890 0.7400
vn -0.7400 0.2890 0.6073
vn -0.2254 -0.9565 0.1850
vn -0.7693 0.0976 0.6314
vn -0.0761 0.9951 0.0625
vn -0.0761 -0.9951 0.0625
vn -0.7693 -0.0976 0.6314
vn -0.2254 0.9565 0.1850
vn -0.7400 -0.2890 0.6073
vn -0.3657 0.8810 0.3002
vn -0.6825 -0.4696 0.5601
vn -0.4918 0.7715 0.4036
vn -0.5987 -0.6326 0.4914
vn -0.5987 0.6326 0.4913
vn -0.4918 -0.7715 0.4036
vn -0.6825 0.4696 0.5601
vn -0.3657 -0.8810 0.3002
vn -0.7786 -0.4696 0.4162
vn -0.5611 0.7715 0.2999
vn -0.6831 -0.6326 0.3651
vn -0.6831 0.6326 0.3651
vn -0.5611 -0.7715 0.2999
vn -0.7786 0.4696 0.4162
vn -0.4173 -0.8810 0.2230
vn -0.8443 0.2890 0.4513
vn -0.2572 -0.9565 0.1374
vn -0.8777 0.0975 0.4691
vn -0.0869 0.9951 0.0464
vn -0.0869 -0.9951 0.0464
vn -0.8777 -0.0975 0.4691
vn -0.2572 0.9565 0.1374
vn -0.8443 -0.2890 0.4513
vn -0.4173 0.8810 0.2230
vn -0.2790 -0.9565 0.0846
vn -0.9524 0.0975 0.2889
vn -0.0943 0.9951 0.0286
vn -0.0943 -0.9951 0.0286
vn -0.9524 -0.0975 0.2889
vn -0.2790 0.9565 0.0847
vn -0.9161 -0.2890 0.2779
vn -0.4528 0.8810 0.1373
vn -0.8448 -0.4696 0.2563
vn -0.6088 0.7715 0.1847
vn -0.7412 -0.6325 0.2248
vn -0.7412 0.6326 0.2248
vn -0.6088 -0.7715 0.1847
vn -0.8448 0.4696 0.2563
vn -0.4528 -0.8810 0.1373
vn -0.9161 0.2890 0.2779
vn -0.6332 0.7715 0.0624
vn -0.7708 -0.6326 0.0759
vn -0.7708 0.6326 0.0759
vn -0.6332 -0.7715 0.0624
vn -0.8786 0.4696 0.0865
vn -0.4709 -0.8810 0.0464
vn -0.9527 0.2890 0.0938
vn -0.2902 -0.9565 0.0286
vn -0.9904 0.0975 0.0975
vn -0.0980 0.9951 0.0096
vn -0.0980 -0.9951 0.0096
vn -0.9904 -0.0975 0.0975
vn -0.2902 0.9565 0.0286
vn -0.9527 -0.2890 0.0938
vn -0.4709 0.8810 0.0464
vn -0.8786 -0.4696 0.0865
vn -0.9904 0.0975 -0.0975
vn -0.0980 0.9951 -0.0096
vn -0.0980 -0.9951 -0.0096
vn -0.9904 -0.0975 -0.0975
vn -0.2902 0.9565 -0.0286
vn -0.9527 -0.2890 -0.0938
vn -0.4709 0.8810 -0.0464
vn -0.8786 -0.4696 -0.0865
vn -0.6332 0.7715 -0.0624
vn -0.7708 -0.6326 -0.0759
vn -0.7708 0.6326 -0.0759
vn -0.6332 -0.7715 -0.0624
vn -0.8786 0.4696 -0.0865
vn -0.4709 -0.8810 -0.0464
vn -0.9527 0.2890 -0.0938
vn -0.2902 -0.9565 -0.0286
vn -0.7412 -0.6326 -0.2248
vn -0.7412 0.6326 -0.2248
vn -0.6088 -0.7715 -0.1847
vn -0.8448 0.4696 -0.2563
vn -0.4528 -0.8810 -0.1373
vn -0.9161 0.2890 -0.2779
vn -0.2790 -0.9565 -0.0846
vn -0.9524 0.0975 -0.2889
vn -0.0943 0.9951 -0.0286
vn -0.0943 -0.9951 -0.0286
vn -0.9524 -0.0975 -0.2889
vn -0.2790 0.9565 -0.0846
vn -0.9161 -0.2890 -0.2779
vn -0.4528 0.8810 -0.1373
vn -0.8448 -0.4696 -0.2563
vn -0.6088 0.7715 -0.1847
vn -0.0869 -0.9951 -0.0464
vn -0.8777 -0.0975 -0.4692
vn -0.2571 0.9565 -0.1374
vn -0.8443 -0.2890 -0.4513
vn -0.4173 0.8810 -0.2230
vn -0.7786 -0.4696 -0.4162
vn -0.5611 0.7715 -0.2999
vn -0.6831 -0.6326 -0.3651
vn -0.6831 0.6326 -0.3651
vn -0.5611 -0.7715 -0.2999
vn -0.7786 0.4696 -0.4162
vn -0.4173 -0.8810 -0.2230
vn -0.8443 0.2890 -0.4513
vn -0.2571 -0.9565 -0.1374
vn -0.8777 0.0975 -0.4692
vn -0.0869 0.9951 -0.0464
vn -0.4918 -0.7715 -0.4036
vn -0.6825 0.4696 -0.5601
vn -0.3657 -0.8810 -0.3002
vn -0.7400 0.2890 -0.6073
vn -0.2254 -0.9565 -0.1850
vn -0.7693 0.0975 -0.6314
vn -0.0761 0.9951 -0.0625
vn -0.0761 -0.9951 -0.0625
vn -0.7693 -0.0975 -0.6314
vn -0.2254 0.9565 -0.1850
vn -0.7400 -0.2890 -0.6073
vn -0.3657 0.8810 -0.3002
vn -0.6825 -0.4696 -0.5601
vn -0.4918 0.7715 -0.4036
vn -0.5987 -0.6326 -0.4914
vn -0.5987 0.6326 -0.4914
vn -0.1850 0.9565 -0.2254
vn -0.6073 -0.2890 -0.7400
vn -0.3002 0.8810 -0.3657
vn -0.5601 -0.4696 -0.6825
vn -0.4036 0.7715 -0.4918
vn -0.4914 -0.6326 -0.5987
vn -0.4914 0.6326 -0.5987
vn -0.4036 -0.7715 -0.4918
vn -0.5601 0.4696 -0.6825
vn -0.3002 -0.8810 -0.3657
vn -0.6073 0.2890 -0.7400
vn -0.1850 -0.9565 -0.2254
vn -0.6314 0.0975 -0.7693
vn -0.0625 0.9951 -0.0761
vn -0.0625 -0.9951 -0.0761
vn -0.6314 -0.0975 -0.7693
vn -0.4162 0.4696 -0.7786
vn -0.2230 -0.8810 -0.4173
vn -0.4513 0.2890 -0.8443
vn -0.1374 -0.9565 -0.2571
vn -0.4691 0.0975 -0.8777
vn -0.0464 0.9951 -0.0869
vn -0.0464 -0.9951 -0.0869
vn -0.4691 -0.0975 -0.8777
vn -0.1374 0.9565 -0.2571
vn -0.4513 -0.2890 -0.8443
vn -0.2230 0.8810 -0.4173
vn -0.4162 -0.4696 -0.7786
vn -0.2999 0.7715 -0.5611
vn -0.3651 -0.6326 -0.6831
vn -0.3651 0.6326 -0.6831
vn -0.2999 -0.7715 -0.5611
vn -0.2779 -0.2890 -0.9161
vn -0.1373 0.8810 -0.4528
vn -0.2563 -0.4696 -0.8448
vn -0.1847 0.7715 -0.6088
vn -0.2248 -0.6326 -0.7412
vn -0.2248 0.6326 -0.7412
vn -0.1847 -0.7715 -0.6088
vn -0.2563 0.4696 -0.8448
vn -0.1373 -0.8810 -0.4528
vn -0.2779 0.2890 -0.9161
vn -0.0846 -0.9565 -0.2790
vn -0.2889 0.0975 -0.9524
vn -0.0286 0.9951 -0.0943
vn -0.0286 -0.9951 -0.0942
vn -0.2889 -0.0975 -0.9524
vn -0.0846 0.9565 -0.2790
vn -0.0464 -0.8810 -0.4709
vn -0.0938 0.2890 -0.9527
vn -0.0286 -0.9565 -0.2902
vn -0.0975 0.0975 -0.9904
vn -0.0096 0.9951 -0.0980
vn -0.0096 -0.9951 -0.0980
vn -0.0975 -0.0975 -0.9904
vn -0.0286 0.9565 -0.2902
vn -0.0938 -0.2890 -0.9527
vn -0.0464 0.8810 -0.4709
vn -0.0865 -0.4696 -0.8786
vn -0.0624 0.7715 -0.6332
vn -0.0759 -0.6325 -0.7708
vn -0.0759 0.6326 -0.7708
vn -0.0624 -0.7715 -0.6332
vn -0.0865 0.4696 -0.8786
vt 0.870031 0.213912
vt 0.870031 0.233729
vt 0.861174 0.233729
vt 0.861174 0.213912
vt 0.870031 0.055374
vt 0.870031 0.075191
vt 0.861174 0.075191
vt 0.861174 0.055374
vt 0.870031 0.194095
vt 0.861174 0.194095
vt 0.750000 0.062500
vt 0.750000 0.125000
vt 0.718750 0.125000
vt 0.718750 0.062500
vt 0.870031 0.174277
vt 0.861174 0.174277
vt 0.870031 0.312999
vt 0.865603 0.332816
vt 0.861174 0.312999
vt 0.734375 0.000000
vt 0.870031 0.154460
vt 0.861174 0.154460
vt 0.870031 0.293181
vt 0.861174 0.293181
vt 0.870031 0.134643
vt 0.861174 0.134643
vt 0.870031 0.273364
vt 0.861174 0.273364
vt 0.870031 0.114825
vt 0.861174 0.114825
vt 0.870031 0.253547
vt 0.861174 0.253547
vt 0.870031 0.095008
vt 0.861174 0.095008
vt 0.852317 0.253547
vt 0.852317 0.233729
vt 0.852317 0.095008
vt 0.852317 0.075191
vt 0.852317 0.213912
vt 0.852317 0.055374
vt 0.852317 0.194095
vt 0.687500 0.125000
vt 0.687500 0.062500
vt 0.852317 0.174277
vt 0.856746 0.332816
vt 0.852317 0.312999
vt 0.703125 0.000000
vt 0.852317 0.154460
vt 0.852317 0.293181
vt 0.852317 0.134643
vt 0.852317 0.273364
vt 0.852317 0.114825
vt 0.843460 0.174277
vt 0.843460 0.154460
vt 0.843460 0.312999
vt 0.843460 0.293181
vt 0.843460 0.134643
vt 0.843460 0.273364
vt 0.843460 0.114825
vt 0.843460 0.253547
vt 0.843460 0.095008
vt 0.843460 0.233729
vt 0.843460 0.075191
vt 0.843460 0.213912
vt 0.687500 0.187500
vt 0.656250 0.187500
vt 0.656250 0.125000
vt 0.843460 0.194095
vt 0.656250 0.062500
vt 0.847889 0.332816
vt 0.671875 0.000000
vt 0.834603 0.095008
vt 0.834603 0.075191
vt 0.834603 0.233729
vt 0.834603 0.213912
vt 0.625000 0.187500
vt 0.625000 0.125000
vt 0.834603 0.194095
vt 0.625000 0.062500
vt 0.834603 0.174277
vt 0.839032 0.332816
vt 0.834603 0.312999
vt 0.640625 0.000000
vt 0.834603 0.154460
vt 0.834603 0.293181
vt 0.834603 0.134643
vt 0.834603 0.273364
vt 0.834603 0.114825
vt 0.834603 0.253547
vt 0.825746 0.312999
vt 0.825746 0.293181
vt 0.825746 0.154460
vt 0.825746 0.134643
vt 0.825746 0.273364
vt 0.825746 0.114825
vt 0.825746 0.253547
vt 0.825746 0.095008
vt 0.825746 0.233729
vt 0.825746 0.075191
vt 0.825746 0.213912
vt 0.593750 0.187500
vt 0.593750 0.125000
vt 0.825746 0.194095
vt 0.593750 0.062500
vt 0.825746 0.174277
vt 0.830175 0.332816
vt 0.609375 0.000000
vt 0.816889 0.233729
vt 0.816889 0.213912
vt 0.562500 0.187500
vt 0.562500 0.125000
vt 0.816889 0.194095
vt 0.562500 0.062500
vt 0.816889 0.174277
vt 0.821317 0.332816
vt 0.816889 0.312999
vt 0.578125 0.000000
vt 0.816889 0.154460
vt 0.816889 0.293181
vt 0.816889 0.134643
vt 0.816889 0.273364
vt 0.816889 0.114825
vt 0.816889 0.253547
vt 0.593750 0.250000
vt 0.593750 0.312500
vt 0.562500 0.312500
vt 0.562500 0.250000
vt 0.903067 0.215118
vt 0.903067 0.231791
vt 0.890132 0.231791
vt 0.890132 0.215118
vt 0.913415 0.120954
vt 0.913415 0.126241
vt 0.909749 0.126241
vt 0.909749 0.120954
vt 0.903067 0.198444
vt 0.890132 0.198444
vt 0.913415 0.115668
vt 0.909749 0.115668
vt 0.531250 0.312500
vt 0.531250 0.250000
vt 0.913415 0.110381
vt 0.909749 0.110381
vt 0.531250 0.187500
vt 0.913415 0.105094
vt 0.909749 0.105094
vt 0.531250 0.125000
vt 0.913415 0.099808
vt 0.909749 0.099808
vt 0.531250 0.062500
vt 0.903067 0.248464
vt 0.903067 0.265137
vt 0.890132 0.265137
vt 0.890132 0.248464
vt 0.562500 0.937500
vt 0.546875 1.000000
vt 0.531250 0.937500
vt 0.546875 0.000000
vt 0.562500 0.875000
vt 0.531250 0.875000
vt 0.500000 0.187500
vt 0.500000 0.125000
vt 0.890132 0.281810
vt 0.877197 0.281810
vt 0.877197 0.265137
vt 0.500000 0.062500
vt 0.877197 0.248464
vt 0.890132 0.365176
vt 0.883665 0.381849
vt 0.877197 0.365176
vt 0.515625 0.000000
vt 0.877197 0.231791
vt 0.890132 0.348503
vt 0.877197 0.348503
vt 0.877197 0.215118
vt 0.906083 0.126241
vt 0.906083 0.120954
vt 0.877197 0.198444
vt 0.906083 0.115668
vt 0.890132 0.181771
vt 0.877197 0.181771
vt 0.906083 0.110381
vt 0.890132 0.165098
vt 0.877197 0.165098
vt 0.890132 0.298483
vt 0.877197 0.298483
vt 0.864262 0.215118
vt 0.864262 0.198444
vt 0.877197 0.315156
vt 0.877197 0.331830
vt 0.864262 0.331830
vt 0.864262 0.315156
vt 0.864262 0.181771
vt 0.864262 0.298483
vt 0.864262 0.165098
vt 0.864262 0.281810
vt 0.877197 0.148425
vt 0.864262 0.148425
vt 0.864262 0.265137
vt 0.468750 0.125000
vt 0.468750 0.062500
vt 0.864262 0.248464
vt 0.906083 0.131528
vt 0.904249 0.136814
vt 0.902416 0.131528
vt 0.484375 0.000000
vt 0.864262 0.231791
vt 0.902416 0.126241
vt 0.902416 0.120954
vt 0.437500 0.125000
vt 0.437500 0.062500
vt 0.851327 0.265137
vt 0.851327 0.248464
vt 0.900583 0.136814
vt 0.898750 0.131528
vt 0.453125 0.000000
vt 0.851327 0.231791
vt 0.898750 0.126241
vt 0.851327 0.215118
vt 0.864262 0.348503
vt 0.851327 0.348503
vt 0.851327 0.331830
vt 0.851327 0.198444
vt 0.851327 0.315156
vt 0.851327 0.181771
vt 0.851327 0.298483
vt 0.851327 0.165098
vt 0.851327 0.281810
vt 0.851327 0.148425
vt 0.838392 0.331830
vt 0.838392 0.315156
vt 0.838392 0.198444
vt 0.838392 0.181771
vt 0.838392 0.298483
vt 0.838392 0.165098
vt 0.838392 0.281810
vt 0.838392 0.148425
vt 0.838392 0.265137
vt 0.406250 0.125000
vt 0.406250 0.062500
vt 0.838392 0.248464
vt 0.896917 0.136814
vt 0.895084 0.131528
vt 0.421875 0.000000
vt 0.838392 0.231791
vt 0.895084 0.126241
vt 0.838392 0.215118
vt 0.838392 0.348503
vt 0.825456 0.265137
vt 0.825456 0.248464
vt 0.893251 0.136814
vt 0.891418 0.131528
vt 0.390625 0.000000
vt 0.375000 0.062500
vt 0.825456 0.231791
vt 0.838392 0.365176
vt 0.825456 0.365176
vt 0.825456 0.348503
vt 0.825456 0.215118
vt 0.825456 0.331830
vt 0.825456 0.198444
vt 0.825456 0.315156
vt 0.825456 0.181771
vt 0.825456 0.298483
vt 0.825456 0.165098
vt 0.825456 0.281810
vt 0.825456 0.148425
vt 0.838392 0.131752
vt 0.825456 0.131752
vt 0.812521 0.198444
vt 0.812521 0.181771
vt 0.812521 0.315156
vt 0.812521 0.298483
vt 0.812521 0.165098
vt 0.812521 0.281810
vt 0.812521 0.148425
vt 0.812521 0.265137
vt 0.812521 0.131752
vt 0.812521 0.248464
vt 0.889585 0.136814
vt 0.887752 0.131528
vt 0.359375 0.000000
vt 0.343750 0.062500
vt 0.812521 0.231791
vt 0.812521 0.365176
vt 0.812521 0.348503
vt 0.812521 0.215118
vt 0.812521 0.331830
vt 0.885919 0.136814
vt 0.884085 0.131528
vt 0.328125 0.000000
vt 0.312500 0.062500
vt 0.799586 0.248464
vt 0.799586 0.231791
vt 0.799586 0.365176
vt 0.799586 0.348503
vt 0.799586 0.215118
vt 0.799586 0.331830
vt 0.799586 0.198444
vt 0.799586 0.315156
vt 0.799586 0.181771
vt 0.799586 0.298483
vt 0.799586 0.165098
vt 0.799586 0.281810
vt 0.799586 0.148425
vt 0.799586 0.265137
vt 0.799586 0.131752
vt 0.786651 0.315156
vt 0.786651 0.298483
vt 0.786651 0.181771
vt 0.786651 0.165098
vt 0.786651 0.281810
vt 0.786651 0.148425
vt 0.786651 0.265137
vt 0.786651 0.131752
vt 0.786651 0.248464
vt 0.882252 0.136814
vt 0.880419 0.131528
vt 0.296875 0.000000
vt 0.281250 0.062500
vt 0.786651 0.231791
vt 0.786651 0.365176
vt 0.786651 0.348503
vt 0.786651 0.215118
vt 0.786651 0.331830
vt 0.786651 0.198444
vt 0.773716 0.248464
vt 0.773716 0.231791
vt 0.773716 0.365176
vt 0.773716 0.348503
vt 0.773716 0.215118
vt 0.773716 0.331830
vt 0.773716 0.198444
vt 0.773716 0.315156
vt 0.773716 0.181771
vt 0.773716 0.298483
vt 0.773716 0.165098
vt 0.773716 0.281810
vt 0.773716 0.148425
vt 0.773716 0.265137
vt 0.773716 0.131752
vt 0.878586 0.136814
vt 0.876753 0.131528
vt 0.265625 0.000000
vt 0.250000 0.062500
vt 0.760781 0.181771
vt 0.760781 0.165098
vt 0.760781 0.298483
vt 0.760781 0.281810
vt 0.760781 0.148425
vt 0.760781 0.265137
vt 0.250000 0.125000
vt 0.218750 0.125000
vt 0.218750 0.062500
vt 0.760781 0.248464
vt 0.874920 0.136814
vt 0.873087 0.131528
vt 0.234375 0.000000
vt 0.760781 0.231791
vt 0.760781 0.365176
vt 0.760781 0.348503
vt 0.760781 0.215118
vt 0.760781 0.331830
vt 0.760781 0.198444
vt 0.760781 0.315156
vt 0.747845 0.231791
vt 0.747845 0.215118
vt 0.747845 0.348503
vt 0.747845 0.331830
vt 0.747845 0.198444
vt 0.747845 0.315156
vt 0.747845 0.181771
vt 0.747845 0.298483
vt 0.747845 0.165098
vt 0.747845 0.281810
vt 0.747845 0.148425
vt 0.747845 0.265137
vt 0.187500 0.125000
vt 0.187500 0.062500
vt 0.747845 0.248464
vt 0.871254 0.136814
vt 0.869421 0.131528
vt 0.203125 0.000000
vt 0.873087 0.126241
vt 0.869421 0.126241
vt 0.734910 0.165098
vt 0.734910 0.148425
vt 0.734910 0.281810
vt 0.734910 0.265137
vt 0.156250 0.125000
vt 0.156250 0.062500
vt 0.734910 0.248464
vt 0.867588 0.136814
vt 0.865755 0.131528
vt 0.171875 0.000000
vt 0.734910 0.231791
vt 0.865755 0.126241
vt 0.734910 0.215118
vt 0.734910 0.348503
vt 0.734910 0.331830
vt 0.734910 0.198444
vt 0.734910 0.315156
vt 0.734910 0.181771
vt 0.734910 0.298483
vt 0.865755 0.120954
vt 0.862088 0.126241
vt 0.862088 0.120954
vt 0.721975 0.215118
vt 0.721975 0.198444
vt 0.721975 0.331830
vt 0.721975 0.315156
vt 0.721975 0.181771
vt 0.721975 0.298483
vt 0.721975 0.165098
vt 0.721975 0.281810
vt 0.721975 0.148425
vt 0.721975 0.265137
vt 0.125000 0.125000
vt 0.125000 0.062500
vt 0.721975 0.248464
vt 0.863921 0.136814
vt 0.862088 0.131528
vt 0.140625 0.000000
vt 0.721975 0.231791
vt 0.709040 0.281810
vt 0.709040 0.265137
vt 0.093750 0.125000
vt 0.093750 0.062500
vt 0.709040 0.248464
vt 0.860255 0.136814
vt 0.858422 0.131528
vt 0.109375 0.000000
vt 0.709040 0.231791
vt 0.858422 0.126241
vt 0.709040 0.215118
vt 0.858422 0.120954
vt 0.709040 0.198444
vt 0.862088 0.115668
vt 0.858422 0.115668
vt 0.709040 0.181771
vt 0.862088 0.110381
vt 0.858422 0.110381
vt 0.125000 0.187500
vt 0.125000 0.250000
vt 0.093750 0.250000
vt 0.093750 0.187500
vt 0.709040 0.298483
vt 0.093750 0.312500
vt 0.093750 0.375000
vt 0.062500 0.375000
vt 0.062500 0.312500
vt 0.684033 0.253547
vt 0.684033 0.273364
vt 0.675175 0.273364
vt 0.675175 0.253547
vt 0.062500 0.250000
vt 0.854756 0.115668
vt 0.854756 0.110381
vt 0.062500 0.187500
vt 0.858422 0.105094
vt 0.854756 0.105094
vt 0.062500 0.125000
vt 0.684033 0.194095
vt 0.684033 0.213912
vt 0.675175 0.213912
vt 0.675175 0.194095
vt 0.062500 0.062500
vt 0.093750 0.500000
vt 0.093750 0.562500
vt 0.062500 0.562500
vt 0.062500 0.500000
vt 0.684033 0.312999
vt 0.679604 0.332816
vt 0.675175 0.312999
vt 0.078125 0.000000
vt 0.093750 0.437500
vt 0.062500 0.437500
vt 0.684033 0.293181
vt 0.675175 0.293181
vt 0.031250 0.125000
vt 0.031250 0.062500
vt 0.675175 0.174277
vt 0.666318 0.194095
vt 0.666318 0.174277
vt 0.670747 0.332816
vt 0.666318 0.312999
vt 0.046875 0.000000
vt 0.675175 0.154460
vt 0.666318 0.154460
vt 0.666318 0.293181
vt 0.675175 0.134643
vt 0.666318 0.134643
vt 0.666318 0.273364
vt 0.675175 0.114825
vt 0.666318 0.114825
vt 0.666318 0.253547
vt 0.031250 0.312500
vt 0.031250 0.250000
vt 0.675175 0.233729
vt 0.666318 0.233729
vt 0.031250 0.187500
vt 0.666318 0.213912
vt 0.657461 0.273364
vt 0.657461 0.253547
vt 0.666318 0.095008
vt 0.657461 0.114825
vt 0.657461 0.095008
vt 0.657461 0.233729
vt 0.666318 0.075191
vt 0.657461 0.075191
vt 0.657461 0.213912
vt 0.000000 0.187500
vt 0.000000 0.125000
vt 0.657461 0.194095
vt 0.000000 0.062500
vt 0.657461 0.174277
vt 0.661890 0.332816
vt 0.657461 0.312999
vt 0.015625 0.000000
vt 0.657461 0.154460
vt 0.657461 0.293181
vt 0.657461 0.134643
vt 0.940888 0.174277
vt 0.940888 0.194095
vt 0.932031 0.194095
vt 0.932031 0.174277
vt 0.940888 0.312999
vt 0.936460 0.332816
vt 0.932031 0.312999
vt 0.984375 0.000000
vt 1.000000 0.062500
vt 0.968750 0.062500
vt 0.940888 0.154460
vt 0.932031 0.154460
vt 0.940888 0.293181
vt 0.932031 0.293181
vt 0.940888 0.134643
vt 0.932031 0.134643
vt 0.940888 0.273364
vt 0.932031 0.273364
vt 0.940888 0.114825
vt 0.932031 0.114825
vt 0.940888 0.253547
vt 0.932031 0.253547
vt 0.940888 0.095008
vt 0.932031 0.095008
vt 0.940888 0.233729
vt 0.932031 0.233729
vt 0.940888 0.075191
vt 0.932031 0.075191
vt 0.940888 0.213912
vt 0.932031 0.213912
vt 1.000000 0.125000
vt 1.000000 0.187500
vt 0.968750 0.187500
vt 0.968750 0.125000
vt 0.923174 0.114825
vt 0.923174 0.095008
vt 0.923174 0.253547
vt 0.923174 0.233729
vt 0.923174 0.075191
vt 0.923174 0.213912
vt 0.932031 0.055374
vt 0.923174 0.055374
vt 0.923174 0.194095
vt 0.937500 0.125000
vt 0.937500 0.062500
vt 0.923174 0.174277
vt 0.927603 0.332816
vt 0.923174 0.312999
vt 0.953125 0.000000
vt 0.923174 0.154460
vt 0.923174 0.293181
vt 0.923174 0.134643
vt 0.923174 0.273364
vt 0.921875 0.000000
vt 0.906250 0.062500
vt 0.914317 0.174277
vt 0.914317 0.154460
vt 0.914317 0.312999
vt 0.914317 0.293181
vt 0.914317 0.134643
vt 0.914317 0.273364
vt 0.914317 0.114825
vt 0.914317 0.253547
vt 0.914317 0.095008
vt 0.914317 0.233729
vt 0.914317 0.075191
vt 0.914317 0.213912
vt 0.914317 0.055374
vt 0.914317 0.194095
vt 0.906250 0.125000
vt 0.918745 0.332816
vt 0.905460 0.095008
vt 0.905460 0.075191
vt 0.905460 0.233729
vt 0.905460 0.213912
vt 0.905460 0.055374
vt 0.905460 0.194095
vt 0.875000 0.125000
vt 0.875000 0.062500
vt 0.905460 0.174277
vt 0.909888 0.332816
vt 0.905460 0.312999
vt 0.890625 0.000000
vt 0.905460 0.154460
vt 0.905460 0.293181
vt 0.905460 0.134643
vt 0.905460 0.273364
vt 0.905460 0.114825
vt 0.905460 0.253547
vt 0.896603 0.312999
vt 0.896603 0.293181
vt 0.896603 0.154460
vt 0.896603 0.134643
vt 0.896603 0.273364
vt 0.896603 0.114825
vt 0.896603 0.253547
vt 0.896603 0.095008
vt 0.896603 0.233729
vt 0.896603 0.075191
vt 0.896603 0.213912
vt 0.896603 0.055374
vt 0.896603 0.194095
vt 0.843750 0.125000
vt 0.843750 0.062500
vt 0.896603 0.174277
vt 0.901031 0.332816
vt 0.859375 0.000000
vt 0.887746 0.233729
vt 0.887746 0.213912
vt 0.887746 0.075191
vt 0.887746 0.055374
vt 0.887746 0.194095
vt 0.812500 0.125000
vt 0.812500 0.062500
vt 0.887746 0.174277
vt 0.892174 0.332816
vt 0.887746 0.312999
vt 0.828125 0.000000
vt 0.887746 0.154460
vt 0.887746 0.293181
vt 0.887746 0.134643
vt 0.887746 0.273364
vt 0.887746 0.114825
vt 0.887746 0.253547
vt 0.887746 0.095008
vt 0.878889 0.154460
vt 0.878889 0.134643
vt 0.878889 0.293181
vt 0.878889 0.273364
vt 0.878889 0.114825
vt 0.878889 0.253547
vt 0.878889 0.095008
vt 0.878889 0.233729
vt 0.878889 0.075191
vt 0.878889 0.213912
vt 0.878889 0.055374
vt 0.878889 0.194095
vt 0.781250 0.125000
vt 0.781250 0.062500
vt 0.878889 0.174277
vt 0.883317 0.332816
vt 0.878889 0.312999
vt 0.796875 0.000000
vt 0.874460 0.332816
vt 0.765625 0.000000
s 1
f 541/143/35 66/144/35 75/145/35 76/146/35
f 545/147/36 544/148/36 83/149/36 84/150/36
f 67/151/37 541/143/37 76/146/37 77/152/37
f 546/153/38 545/154/38 84/155/38 85/156/38
f 68/157/39 67/151/39 77/152/39 78/158/39
f 538/159/40 146/160/40 71/161/40
f 372/162/41 546/153/41 85/156/41
f 69/163/42 68/157/42 78/158/42 79/164/42
f 539/165/43 538/159/43 71/161/43 72/166/43
f 542/167/44 69/163/44 79/164/44 80/168/44
f 65/169/45 539/165/45 72/166/45 73/170/45
f 70/171/46 542/167/46 80/168/46 81/172/46
f 540/173/47 65/169/47 73/170/47 74/174/47
f 543/175/48 70/171/48 81/172/48 82/176/48
f 66/144/49 540/173/49 74/174/49 75/145/49
f 544/148/50 543/175/50 82/176/50 83/149/50
f 75/145/51 74/174/51 89/177/51 90/178/51
f 83/149/52 82/176/52 97/179/52 98/180/52
f 76/146/53 75/145/53 90/178/53 91/181/53
f 84/150/54 83/149/54 98/180/54 99/182/54
f 77/152/55 76/146/55 91/181/55 92/183/55
f 85/156/56 84/155/56 99/184/56 100/185/56
f 78/158/57 77/152/57 92/183/57 93/186/57
f 71/161/58 146/187/58 86/188/58
f 372/189/59 85/156/59 100/185/59
f 79/164/60 78/158/60 93/186/60 94/190/60
f 72/166/61 71/161/61 86/188/61 87/191/61
f 80/168/62 79/164/62 94/190/62 95/192/62
f 73/170/63 72/166/63 87/191/63 88/193/63
f 81/172/64 80/168/64 95/192/64 96/194/64
f 74/174/65 73/170/65 88/193/65 89/177/65
f 82/176/66 81/172/66 96/194/66 97/179/66
f 94/190/67 93/186/67 108/195/67 109/196/67
f 87/191/68 86/188/68 101/197/68 102/198/68
f 95/192/69 94/190/69 109/196/69 110/199/69
f 88/193/70 87/191/70 102/198/70 103/200/70
f 96/194/71 95/192/71 110/199/71 111/201/71
f 89/177/72 88/193/72 103/200/72 104/202/72
f 97/179/73 96/194/73 111/201/73 112/203/73
f 90/178/74 89/177/74 104/202/74 105/204/74
f 98/180/75 97/179/75 112/203/75 113/205/75
f 91/181/76 90/178/76 105/204/76 106/206/76
f 99/184/77 98/207/77 113/208/77 114/209/77
f 92/183/78 91/181/78 106/206/78 107/210/78
f 100/185/79 99/184/79 114/209/79 115/211/79
f 93/186/80 92/183/80 107/210/80 108/195/80
f 86/188/81 146/212/81 101/197/81
f 372/213/82 100/185/82 115/211/82
f 113/205/83 112/203/83 127/214/83 128/215/83
f 106/206/84 105/204/84 120/216/84 121/217/84
f 114/209/85 113/208/85 128/218/85 129/219/85
f 107/210/86 106/206/86 121/217/86 122/220/86
f 115/211/87 114/209/87 129/219/87 130/221/87
f 108/195/88 107/210/88 122/220/88 123/222/88
f 101/197/89 146/223/89 116/224/89
f 372/225/90 115/211/90 130/221/90
f 109/196/91 108/195/91 123/222/91 124/226/91
f 102/198/92 101/197/92 116/224/92 117/227/92
f 110/199/93 109/196/93 124/226/93 125/228/93
f 103/200/94 102/198/94 117/227/94 118/229/94
f 111/201/95 110/199/95 125/228/95 126/230/95
f 104/202/96 103/200/96 118/229/96 119/231/96
f 112/203/97 111/201/97 126/230/97 127/214/97
f 105/204/98 104/202/98 119/231/98 120/216/98
f 117/227/99 116/224/99 131/232/99 132/233/99
f 125/228/100 124/226/100 139/234/100 140/235/100
f 118/229/101 117/227/101 132/233/101 133/236/101
f 126/230/102 125/228/102 140/235/102 141/237/102
f 119/231/103 118/229/103 133/236/103 134/238/103
f 127/214/104 126/230/104 141/237/104 142/239/104
f 120/216/105 119/231/105 134/238/105 135/240/105
f 128/215/106 127/214/106 142/239/106 143/241/106
f 121/217/107 120/216/107 135/240/107 136/242/107
f 129/219/108 128/218/108 143/243/108 144/244/108
f 122/220/109 121/217/109 136/242/109 137/245/109
f 130/221/110 129/219/110 144/244/110 145/246/110
f 123/222/111 122/220/111 137/245/111 138/247/111
f 116/224/112 146/248/112 131/232/112
f 372/249/113 130/221/113 145/246/113
f 124/226/114 123/222/114 138/247/114 139/234/114
f 136/242/115 135/240/115 151/250/115 152/251/115
f 144/244/116 143/243/116 159/252/116 160/253/116
f 137/245/117 136/242/117 152/251/117 153/254/117
f 145/246/118 144/244/118 160/253/118 161/255/118
f 138/247/119 137/245/119 153/254/119 154/256/119
f 131/232/120 146/257/120 147/258/120
f 372/259/121 145/246/121 161/255/121
f 139/234/122 138/247/122 154/256/122 155/260/122
f 132/233/123 131/232/123 147/258/123 148/261/123
f 140/235/124 139/234/124 155/260/124 156/262/124
f 133/236/125 132/233/125 148/261/125 149/263/125
f 141/237/126 140/235/126 156/262/126 157/264/126
f 134/238/127 133/236/127 149/263/127 150/265/127
f 142/266/128 141/267/128 157/268/128 158/269/128
f 135/240/129 134/238/129 150/265/129 151/250/129
f 143/243/130 142/266/130 158/269/130 159/252/130
f 156/270/131 155/271/131 170/272/131 171/273/131
f 149/274/132 148/275/132 163/276/132 164/277/132
f 157/278/133 156/270/133 171/273/133 172/279/133
f 150/280/134 149/274/134 164/277/134 165/281/134
f 158/269/135 157/268/135 172/282/135 173/283/135
f 151/284/136 150/280/136 165/281/136 166/285/136
f 159/252/137 158/269/137 173/283/137 174/286/137
f 152/287/138 151/284/138 166/285/138 167/288/138
f 160/253/139 159/252/139 174/286/139 175/289/139
f 153/290/140 152/287/140 167/288/140 168/291/140
f 161/255/141 160/253/141 175/289/141 176/292/141
f 154/293/142 153/294/142 168/295/142 169/296/142
f 147/297/143 146/298/143 162/299/143
f 372/300/144 161/255/144 176/292/144
f 155/271/145 154/293/145 169/296/145 170/272/145
f 148/301/146 147/297/146 162/299/146 163/302/146
f 175/289/147 174/286/147 189/303/147 190/304/147
f 168/295/148 167/305/148 182/306/148 183/307/148
f 176/292/149 175/289/149 190/304/149 191/308/149
f 169/296/150 168/295/150 183/307/150 184/309/150
f 162/310/151 146/311/151 177/312/151
f 372/313/152 176/292/152 191/308/152
f 170/272/153 169/296/153 184/309/153 185/314/153
f 163/315/154 162/310/154 177/312/154 178/316/154
f 171/273/155 170/272/155 185/314/155 186/317/155
f 164/277/156 163/276/156 178/318/156 179/319/156
f 172/279/157 171/273/157 186/317/157 187/320/157
f 165/281/158 164/277/158 179/319/158 180/321/158
f 173/322/159 172/279/159 187/320/159 188/323/159
f 166/285/160 165/281/160 180/321/160 181/324/160
f 174/325/161 173/322/161 188/323/161 189/326/161
f 167/305/162 166/327/162 181/328/162 182/306/162
f 187/320/163 186/317/163 201/329/163 202/330/163
f 180/331/164 179/332/164 194/333/164 195/334/164
f 188/323/165 187/320/165 202/330/165 203/335/165
f 181/328/166 180/331/166 195/334/166 196/336/166
f 189/326/167 188/323/167 203/335/167 204/337/167
f 182/306/168 181/328/168 196/336/168 197/338/168
f 190/339/169 189/326/169 204/337/169 205/340/169
f 183/307/170 182/306/170 197/338/170 198/341/170
f 191/308/171 190/304/171 205/342/171 206/343/171
f 184/309/172 183/307/172 198/341/172 199/344/172
f 177/345/173 146/346/173 192/347/173
f 372/348/174 191/308/174 206/343/174
f 185/314/175 184/309/175 199/344/175 200/349/175
f 178/318/176 177/345/176 192/347/176 193/350/176
f 186/317/177 185/314/177 200/349/177 201/329/177
f 179/319/178 178/318/178 193/350/178 194/351/178
f 206/343/179 205/342/179 220/352/179 221/353/179
f 199/344/180 198/341/180 213/354/180 214/355/180
f 192/347/181 146/356/181 207/357/181
f 372/358/182 206/343/182 221/353/182
f 200/349/183 199/344/183 214/355/183 215/359/183
f 193/350/184 192/347/184 207/357/184 208/360/184
f 201/329/185 200/349/185 215/359/185 216/361/185
f 194/333/186 193/362/186 208/363/186 209/364/186
f 202/330/187 201/329/187 216/361/187 217/365/187
f 195/334/188 194/333/188 209/364/188 210/366/188
f 203/335/189 202/330/189 217/365/189 218/367/189
f 196/336/190 195/334/190 210/366/190 211/368/190
f 204/337/191 203/335/191 218/367/191 219/369/191
f 197/338/192 196/336/192 211/368/192 212/370/192
f 205/340/193 204/337/193 219/369/193 220/371/193
f 198/341/194 197/338/194 212/370/194 213/354/194
f 210/366/195 209/364/195 224/372/195 225/373/195
f 218/367/196 217/365/196 232/374/196 233/375/196
f 211/368/197 210/366/197 225/373/197 226/376/197
f 219/369/198 218/367/198 233/375/198 234/377/198
f 212/370/199 211/368/199 226/376/199 227/378/199
f 220/371/200 219/369/200 234/377/200 235/379/200
f 213/354/201 212/370/201 227/378/201 228/380/201
f 221/353/202 220/352/202 235/381/202 236/382/202
f 214/355/203 213/354/203 228/380/203 229/383/203
f 207/357/204 146/384/204 222/385/204
f 372/386/205 221/353/205 236/382/205
f 215/359/206 214/355/206 229/383/206 230/387/206
f 208/360/207 207/357/207 222/385/207 223/388/207
f 216/361/208 215/359/208 230/387/208 231/389/208
f 209/364/209 208/363/209 223/390/209 224/372/209
f 217/365/210 216/361/210 231/389/210 232/374/210
f 229/383/211 228/380/211 243/391/211 244/392/211
f 222/385/212 146/393/212 237/394/212
f 372/395/213 236/382/213 251/396/213
f 230/387/214 229/383/214 244/392/214 245/397/214
f 223/390/215 222/398/215 237/399/215 238/400/215
f 231/389/216 230/387/216 245/397/216 246/401/216
f 224/372/217 223/390/217 238/400/217 239/402/217
f 232/374/218 231/389/218 246/401/218 247/403/218
f 225/373/219 224/372/219 239/402/219 240/404/219
f 233/375/220 232/374/220 247/403/220 248/405/220
f 226/376/221 225/373/221 240/404/221 241/406/221
f 234/377/222 233/375/222 248/405/222 249/407/222
f 227/378/223 226/376/223 241/406/223 242/408/223
f 235/379/224 234/377/224 249/407/224 250/409/224
f 228/380/225 227/378/225 242/408/225 243/391/225
f 236/410/226 235/379/226 250/409/226 251/411/226
f 248/405/227 247/403/227 262/412/227 263/413/227
f 241/406/228 240/404/228 255/414/228 256/415/228
f 249/407/229 248/405/229 263/413/229 264/416/229
f 242/408/230 241/406/230 256/415/230 257/417/230
f 250/409/231 249/407/231 264/416/231 265/418/231
f 243/391/232 242/408/232 257/417/232 258/419/232
f 251/411/233 250/409/233 265/418/233 266/420/233
f 244/392/234 243/391/234 258/419/234 259/421/234
f 237/394/235 146/422/235 252/423/235
f 372/424/236 251/396/236 266/425/236
f 245/397/237 244/392/237 259/421/237 260/426/237
f 238/400/238 237/399/238 252/427/238 253/428/238
f 246/401/239 245/397/239 260/426/239 261/429/239
f 239/402/240 238/400/240 253/428/240 254/430/240
f 247/403/241 246/401/241 261/429/241 262/412/241
f 240/404/242 239/402/242 254/430/242 255/414/242
f 252/423/243 146/431/243 267/432/243
f 372/433/244 266/425/244 281/434/244
f 260/426/245 259/421/245 274/435/245 275/436/245
f 253/428/246 252/427/246 267/437/246 268/438/246
f 261/429/247 260/426/247 275/436/247 276/439/247
f 254/430/248 253/428/248 268/438/248 269/440/248
f 262/412/249 261/429/249 276/439/249 277/441/249
f 255/414/250 254/430/250 269/440/250 270/442/250
f 263/413/251 262/412/251 277/441/251 278/443/251
f 256/415/252 255/414/252 270/442/252 271/444/252
f 264/416/253 263/413/253 278/443/253 279/445/253
f 257/417/254 256/415/254 271/444/254 272/446/254
f 265/418/255 264/416/255 279/445/255 280/447/255
f 258/419/256 257/417/256 272/446/256 273/448/256
f 266/420/257 265/418/257 280/447/257 281/449/257
f 259/421/258 258/419/258 273/448/258 274/435/258
f 271/444/259 270/442/259 285/450/259 286/451/259
f 279/445/260 278/443/260 293/452/260 294/453/260
f 272/446/261 271/444/261 286/451/261 287/454/261
f 280/447/262 279/445/262 294/453/262 295/455/262
f 273/448/263 272/446/263 287/454/263 288/456/263
f 281/449/264 280/447/264 295/455/264 296/457/264
f 274/435/265 273/448/265 288/456/265 289/458/265
f 267/432/266 146/459/266 282/460/266
f 372/461/267 281/434/267 296/462/267
f 275/436/268 274/435/268 289/458/268 290/463/268
f 268/438/269 267/437/269 282/464/269 283/465/269
f 276/439/270 275/436/270 290/463/270 291/466/270
f 269/440/271 268/438/271 283/465/271 284/467/271
f 277/441/272 276/439/272 291/466/272 292/468/272
f 270/442/273 269/440/273 284/467/273 285/450/273
f 278/443/274 277/441/274 292/468/274 293/452/274
f 290/463/275 289/458/275 304/469/275 305/470/275
f 283/465/276 282/464/276 297/471/276 298/472/276
f 291/466/277 290/463/277 305/470/277 306/473/277
f 284/467/278 283/465/278 298/472/278 299/474/278
f 292/468/279 291/466/279 306/473/279 307/475/279
f 285/450/280 284/467/280 299/474/280 300/476/280
f 293/452/281 292/468/281 307/475/281 308/477/281
f 286/451/282 285/450/282 300/476/282 301/478/282
f 294/453/283 293/452/283 308/477/283 309/479/283
f 287/454/284 286/451/284 301/478/284 302/480/284
f 295/455/285 294/453/285 309/479/285 310/481/285
f 288/456/286 287/454/286 302/480/286 303/482/286
f 296/457/287 295/455/287 310/481/287 311/483/287
f 289/458/288 288/456/288 303/482/288 304/469/288
f 282/460/289 146/484/289 297/485/289
f 372/486/290 296/462/290 311/487/290
f 309/479/291 308/477/291 323/488/291 324/489/291
f 302/480/292 301/478/292 316/490/292 317/491/292
f 310/481/293 309/479/293 324/489/293 325/492/293
f 303/482/294 302/480/294 317/491/294 318/493/294
f 311/487/295 310/494/295 325/495/295 326/496/295
f 304/469/296 303/482/296 318/493/296 319/497/296
f 297/485/297 146/498/297 312/499/297
f 372/500/298 311/487/298 326/496/298
f 305/470/299 304/469/299 319/497/299 320/501/299
f 298/472/300 297/471/300 312/502/300 313/503/300
f 306/473/301 305/470/301 320/501/301 321/504/301
f 299/474/302 298/472/302 313/503/302 314/505/302
f 307/475/303 306/473/303 321/504/303 322/506/303
f 300/476/304 299/474/304 314/505/304 315/507/304
f 308/477/305 307/475/305 322/506/305 323/488/305
f 301/478/306 300/476/306 315/507/306 316/490/306
f 321/504/307 320/501/307 335/508/307 336/509/307
f 314/505/308 313/503/308 328/510/308 329/511/308
f 322/506/309 321/504/309 336/509/309 337/512/309
f 315/507/310 314/505/310 329/511/310 330/513/310
f 323/488/311 322/506/311 337/512/311 338/514/311
f 316/490/312 315/507/312 330/513/312 331/515/312
f 324/489/313 323/488/313 338/514/313 339/516/313
f 317/491/314 316/490/314 331/515/314 332/517/314
f 325/492/315 324/489/315 339/516/315 340/518/315
f 318/493/316 317/491/316 332/517/316 333/519/316
f 326/496/317 325/495/317 340/520/317 341/521/317
f 319/497/318 318/493/318 333/519/318 334/522/318
f 312/499/319 146/523/319 327/524/319
f 372/525/320 326/496/320 341/521/320
f 320/501/321 319/497/321 334/522/321 335/508/321
f 313/526/322 312/499/322 327/524/322 328/527/322
f 340/518/323 339/516/323 354/528/323 355/529/323
f 333/519/324 332/517/324 347/530/324 348/531/324
f 341/521/325 340/520/325 355/532/325 356/533/325
f 334/522/326 333/519/326 348/531/326 349/534/326
f 327/524/327 146/535/327 342/536/327
f 372/537/328 341/521/328 356/533/328
f 335/508/329 334/522/329 349/534/329 350/538/329
f 328/527/330 327/524/330 342/536/330 343/539/330
f 336/509/331 335/508/331 350/538/331 351/540/331
f 329/511/332 328/510/332 343/541/332 344/542/332
f 337/512/333 336/509/333 351/540/333 352/543/333
f 330/513/334 329/511/334 344/542/334 345/544/334
f 338/514/335 337/512/335 352/543/335 353/545/335
f 331/515/336 330/513/336 345/544/336 346/546/336
f 339/516/337 338/514/337 353/545/337 354/528/337
f 332/517/338 331/515/338 346/546/338 347/530/338
f 344/547/339 343/539/339 358/548/339 359/549/339
f 352/543/340 351/540/340 366/550/340 367/551/340
f 345/544/341 344/542/341 359/552/341 360/553/341
f 353/545/342 352/543/342 367/551/342 368/554/342
f 346/546/343 345/544/343 360/553/343 361/555/343
f 354/528/344 353/545/344 368/554/344 369/556/344
f 347/530/345 346/546/345 361/555/345 362/557/345
f 355/529/346 354/528/346 369/556/346 370/558/346
f 348/531/347 347/530/347 362/557/347 363/559/347
f 356/533/348 355/532/348 370/560/348 371/561/348
f 349/534/349 348/531/349 363/559/349 364/562/349
f 342/536/350 146/563/350 357/564/350
f 372/565/351 356/533/351 371/561/351
f 350/538/352 349/534/352 364/562/352 365/566/352
f 343/539/353 342/536/353 357/564/353 358/548/353
f 351/540/354 350/538/354 365/566/354 366/550/354
f 363/559/355 362/557/355 378/567/355 379/568/355
f 371/561/356 370/560/356 386/569/356 387/570/356
f 364/562/357 363/559/357 379/568/357 380/571/357
f 357/564/358 146/572/358 373/573/358
f 372/574/359 371/561/359 387/570/359
f 365/566/360 364/562/360 380/571/360 381/575/360
f 358/548/361 357/564/361 373/573/361 374/576/361
f 366/550/362 365/566/362 381/575/362 382/577/362
f 359/549/363 358/548/363 374/576/363 375/578/363
f 367/551/364 366/550/364 382/577/364 383/579/364
f 360/580/365 359/549/365 375/578/365 376/581/365
f 368/554/366 367/551/366 383/579/366 384/582/366
f 361/583/367 360/580/367 376/581/367 377/584/367
f 369/585/368 368/586/368 384/587/368 385/588/368
f 362/557/369 361/555/369 377/589/369 378/567/369
f 370/560/370 369/585/370 385/588/370 386/569/370
f 383/590/371 382/591/371 397/592/371 398/593/371
f 376/594/372 375/595/372 390/596/372 391/597/372
f 384/587/373 383/590/373 398/593/373 399/598/373
f 377/584/374 376/581/374 391/599/374 392/600/374
f 385/588/375 384/587/375 399/598/375 400/601/375
f 378/602/376 377/584/376 392/600/376 393/603/376
f 386/569/377 385/588/377 400/601/377 401/604/377
f 379/605/378 378/606/378 393/607/378 394/608/378
f 387/570/379 386/569/379 401/604/379 402/609/379
f 380/610/380 379/611/380 394/612/380 395/613/380
f 373/614/381 146/615/381 388/616/381
f 372/617/382 387/570/382 402/609/382
f 381/618/383 380/610/383 395/613/383 396/619/383
f 374/620/384 373/614/384 388/616/384 389/621/384
f 382/591/385 381/618/385 396/619/385 397/592/385
f 375/595/386 374/620/386 389/621/386 390/596/386
f 402/609/387 401/604/387 416/622/387 417/623/387
f 395/624/388 394/608/388 409/625/388 410/626/388
f 388/616/389 146/627/389 403/628/389
f 372/629/390 402/609/390 417/623/390
f 396/630/391 395/624/391 410/626/391 411/631/391
f 389/621/392 388/616/392 403/628/392 404/632/392
f 397/633/393 396/630/393 411/631/393 412/634/393
f 390/596/394 389/621/394 404/632/394 405/635/394
f 398/636/395 397/633/395 412/634/395 413/637/395
f 391/597/396 390/596/396 405/635/396 406/638/396
f 399/598/397 398/593/397 413/639/397 414/640/397
f 392/641/398 391/597/398 406/638/398 407/642/398
f 400/601/399 399/598/399 414/640/399 415/643/399
f 393/607/400 392/641/400 407/642/400 408/644/400
f 401/604/401 400/601/401 415/643/401 416/622/401
f 394/608/402 393/607/402 408/644/402 409/625/402
f 406/638/403 405/635/403 420/645/403 421/646/403
f 414/647/404 413/637/404 428/648/404 429/649/404
f 407/642/405 406/638/405 421/646/405 422/650/405
f 415/651/406 414/647/406 429/649/406 430/652/406
f 408/644/407 407/642/407 422/650/407 423/653/407
f 416/622/408 415/643/408 430/654/408 431/655/408
f 409/625/409 408/644/409 423/653/409 424/656/409
f 417/623/410 416/622/410 431/655/410 432/657/410
f 410/626/411 409/625/411 424/656/411 425/658/411
f 403/628/412 146/659/412 418/660/412
f 372/661/413 417/623/413 432/657/413
f 411/631/414 410/626/414 425/658/414 426/662/414
f 404/632/415 403/628/415 418/660/415 419/663/415
f 412/634/416 411/631/416 426/662/416 427/664/416
f 405/635/417 404/632/417 419/663/417 420/645/417
f 413/637/418 412/634/418 427/664/418 428/648/418
f 425/665/419 424/666/419 439/667/419 440/668/419
f 418/669/420 146/670/420 433/671/420
f 372/672/421 432/673/421 447/674/421
f 426/675/422 425/665/422 440/668/422 441/676/422
f 419/677/423 418/669/423 433/671/423 434/678/423
f 427/679/424 426/675/424 441/676/424 442/680/424
f 420/681/425 419/677/425 434/678/425 435/682/425
f 428/683/426 427/679/426 442/680/426 443/684/426
f 421/685/427 420/681/427 435/682/427 436/686/427
f 429/687/428 428/683/428 443/684/428 444/688/428
f 422/689/429 421/685/429 436/686/429 437/690/429
f 430/691/430 429/687/430 444/688/430 445/692/430
f 423/693/431 422/689/431 437/690/431 438/694/431
f 431/695/432 430/696/432 445/697/432 446/698/432
f 424/666/433 423/693/433 438/694/433 439/667/433
f 432/673/434 431/695/434 446/698/434 447/674/434
f 444/688/435 443/684/435 458/699/435 459/700/435
f 437/690/436 436/686/436 451/701/436 452/702/436
f 445/692/437 444/688/437 459/700/437 460/703/437
f 438/694/438 437/690/438 452/702/438 453/704/438
f 446/705/439 445/692/439 460/703/439 461/706/439
f 439/667/440 438/694/440 453/704/440 454/707/440
f 447/674/441 446/698/441 461/708/441 462/709/441
f 440/668/442 439/667/442 454/707/442 455/710/442
f 433/671/443 146/711/443 448/712/443
f 372/713/444 447/674/444 462/709/444
f 441/676/445 440/668/445 455/710/445 456/714/445
f 434/678/446 433/671/446 448/712/446 449/715/446
f 442/680/447 441/676/447 456/714/447 457/716/447
f 435/682/448 434/678/448 449/715/448 450/717/448
f 443/684/449 442/680/449 457/716/449 458/699/449
f 436/686/450 435/682/450 450/717/450 451/701/450
f 372/718/451 462/709/451 477/719/451
f 456/714/452 455/710/452 470/720/452 471/721/452
f 449/715/453 448/712/453 463/722/453 464/723/453
f 457/716/454 456/714/454 471/721/454 472/724/454
f 450/717/455 449/715/455 464/723/455 465/725/455
f 458/699/456 457/716/456 472/724/456 473/726/456
f 451/701/457 450/717/457 465/725/457 466/727/457
f 459/700/458 458/699/458 473/726/458 474/728/458
f 452/702/459 451/701/459 466/727/459 467/729/459
f 460/703/460 459/700/460 474/728/460 475/730/460
f 453/704/461 452/702/461 467/729/461 468/731/461
f 461/706/462 460/703/462 475/730/462 476/732/462
f 454/707/463 453/704/463 468/731/463 469/733/463
f 462/709/464 461/708/464 476/734/464 477/719/464
f 455/710/465 454/707/465 469/733/465 470/720/465
f 448/712/466 146/735/466 463/722/466
f 475/730/467 474/728/467 489/736/467 490/737/467
f 468/731/468 467/729/468 482/738/468 483/739/468
f 476/732/469 475/730/469 490/737/469 491/740/469
f 469/733/470 468/731/470 483/739/470 484/741/470
f 477/719/471 476/734/471 491/742/471 492/743/471
f 470/720/472 469/733/472 484/741/472 485/744/472
f 463/722/473 146/745/473 478/746/473
f 372/747/474 477/719/474 492/743/474
f 471/721/475 470/720/475 485/744/475 486/748/475
f 464/723/476 463/722/476 478/746/476 479/749/476
f 472/724/477 471/721/477 486/748/477 487/750/477
f 465/725/478 464/723/478 479/749/478 480/751/478
f 473/726/479 472/724/479 487/750/479 488/752/479
f 466/727/480 465/725/480 480/751/480 481/753/480
f 474/728/481 473/726/481 488/752/481 489/736/481
f 467/729/482 466/727/482 481/753/482 482/738/482
f 479/749/483 478/746/483 493/754/483 494/755/483
f 487/750/484 486/748/484 501/756/484 502/757/484
f 480/751/485 479/749/485 494/755/485 495/758/485
f 488/752/486 487/750/486 502/757/486 503/759/486
f 481/753/487 480/751/487 495/758/487 496/760/487
f 489/736/488 488/752/488 503/759/488 504/761/488
f 482/738/489 481/753/489 496/760/489 497/762/489
f 490/737/490 489/736/490 504/761/490 505/763/490
f 483/739/491 482/738/491 497/762/491 498/764/491
f 491/740/492 490/737/492 505/763/492 506/765/492
f 484/741/493 483/739/493 498/764/493 499/766/493
f 492/743/494 491/742/494 506/767/494 507/768/494
f 485/744/495 484/741/495 499/766/495 500/769/495
f 478/746/496 146/770/496 493/754/496
f 372/771/497 492/743/497 507/768/497
f 486/748/498 485/744/498 500/769/498 501/756/498
f 498/764/499 497/762/499 512/772/499 513/773/499
f 506/765/500 505/763/500 520/774/500 521/775/500
f 499/766/501 498/764/501 513/773/501 514/776/501
f 507/768/502 506/767/502 521/777/502 522/778/502
f 500/769/503 499/766/503 514/776/503 515/779/503
f 493/754/504 146/780/504 508/781/504
f 372/782/505 507/768/505 522/778/505
f 501/756/506 500/769/506 515/779/506 516/783/506
f 494/755/507 493/754/507 508/781/507 509/784/507
f 502/757/508 501/756/508 516/783/508 517/785/508
f 495/758/509 494/755/509 509/784/509 510/786/509
f 503/759/510 502/757/510 517/785/510 518/787/510
f 496/760/511 495/758/511 510/786/511 511/788/511
f 504/761/512 503/759/512 518/787/512 519/789/512
f 497/762/513 496/760/513 511/788/513 512/772/513
f 505/763/514 504/761/514 519/789/514 520/774/514
f 517/785/515 516/783/515 531/790/515 532/791/515
f 510/786/516 509/784/516 524/792/516 525/793/516
f 518/787/517 517/785/517 532/791/517 533/794/517
f 511/788/518 510/786/518 525/793/518 526/795/518
f 519/789/519 518/787/519 533/794/519 534/796/519
f 512/772/520 511/788/520 526/795/520 527/797/520
f 520/774/521 519/789/521 534/796/521 535/798/521
f 513/773/522 512/772/522 527/797/522 528/799/522
f 521/775/523 520/774/523 535/798/523 536/800/523
f 514/776/524 513/773/524 528/799/524 529/801/524
f 522/778/525 521/777/525 536/802/525 537/803/525
f 515/779/526 514/776/526 529/801/526 530/804/526
f 508/781/527 146/805/527 523/806/527
f 372/807/528 522/778/528 537/803/528
f 516/783/529 515/779/529 530/804/529 531/790/529
f 509/784/530 508/781/530 523/806/530 524/792/530
f 536/800/531 535/798/531 544/148/531 545/147/531
f 529/801/532 528/799/532 541/143/532 67/151/532
f 537/803/533 536/802/533 545/154/533 546/153/533
f 530/804/534 529/801/534 67/151/534 68/157/534
f 523/806/535 146/808/535 538/159/535
f 372/809/536 537/803/536 546/153/536
f 531/790/537 530/804/537 68/157/537 69/163/537
f 524/792/538 523/806/538 538/159/538 539/165/538
f 532/791/539 531/790/539 69/163/539 542/167/539
f 525/793/540 524/792/540 539/165/540 65/169/540
f 533/794/541 532/791/541 542/167/541 70/171/541
f 526/795/542 525/793/542 65/169/542 540/173/542
f 534/796/543 533/794/543 70/171/543 543/175/543
f 527/797/544 526/795/544 540/173/544 66/144/544
f 535/798/545 534/796/545 543/175/545 544/148/545
f 528/799/546 527/797/546 66/144/546 541/143/546
