# Blender 4.4.0
# www.blender.org
mtllib score.mtl
usemtl score
o Text
v -0.166667 0.125000 0.266500
v -0.433333 0.125000 0.266500
v -0.433333 0.125000 0.066500
v -0.366667 0.125000 0.066500
v -0.366667 0.125000 0.133167
v -0.166667 0.125000 0.133167
v -0.300000 0.125000 0.066500
v -0.366667 0.125000 0.066500
v -0.366667 0.125000 -0.000167
v -0.300000 0.125000 -0.000167
v -0.233333 0.125000 -0.000167
v -0.300000 0.125000 -0.000167
v -0.300000 0.125000 -0.066833
v -0.233333 0.125000 -0.066833
v -0.366667 0.125000 -0.133500
v -0.433333 0.125000 -0.133500
v -0.433333 0.125000 -0.200167
v -0.366667 0.125000 -0.200167
v -0.166667 0.125000 -0.066833
v -0.233333 0.125000 -0.066833
v -0.233333 0.125000 -0.200167
v -0.166667 0.125000 -0.200167
v -0.233333 0.125000 -0.200167
v -0.366667 0.125000 -0.200167
v -0.366667 0.125000 -0.266833
v -0.233333 0.125000 -0.266833
v -0.166667 -0.125000 0.266500
v -0.433333 -0.125000 0.266500
v -0.433333 -0.125000 0.066500
v -0.366667 -0.125000 0.066500
v -0.366667 -0.125000 0.133167
v -0.166667 -0.125000 0.133167
v -0.300000 -0.125000 0.066500
v -0.366667 -0.125000 0.066500
v -0.366667 -0.125000 -0.000167
v -0.300000 -0.125000 -0.000167
v -0.233333 -0.125000 -0.000167
v -0.300000 -0.125000 -0.000167
v -0.300000 -0.125000 -0.066833
v -0.233333 -0.125000 -0.066833
v -0.366667 -0.125000 -0.133500
v -0.433333 -0.125000 -0.133500
v -0.433333 -0.125000 -0.200167
v -0.366667 -0.125000 -0.200167
v -0.166667 -0.125000 -0.066833
v -0.233333 -0.125000 -0.066833
v -0.233333 -0.125000 -0.200167
v -0.166667 -0.125000 -0.200167
v -0.233333 -0.125000 -0.200167
v -0.366667 -0.125000 -0.200167
v -0.366667 -0.125000 -0.266833
v -0.233333 -0.125000 -0.266833
v -0.166667 -0.125000 0.266500
v -0.166667 0.125000 0.266500
v -0.433333 -0.125000 0.266500
v -0.433333 0.125000 0.266500
v -0.433333 -0.125000 0.066500
v -0.433333 0.125000 0.066500
v -0.366667 -0.125000 0.066500
v -0.366667 0.125000 0.066500
v -0.366667 -0.125000 0.133167
v -0.366667 0.125000 0.133167
v -0.166667 -0.125000 0.133167
v -0.166667 0.125000 0.133167
v -0.300000 -0.125000 0.066500
v -0.300000 0.125000 0.066500
v -0.366667 -0.125000 0.066500
v -0.366667 0.125000 0.066500
v -0.366667 -0.125000 -0.000167
v -0.366667 0.125000 -0.000167
v -0.300000 -0.125000 -0.000167
v -0.300000 0.125000 -0.000167
v -0.233333 -0.125000 -0.000167
v -0.233333 0.125000 -0.000167
v -0.300000 -0.125000 -0.000167
v -0.300000 0.125000 -0.000167
v -0.300000 -0.125000 -0.066833
v -0.300000 0.125000 -0.066833
v -0.233333 -0.125000 -0.066833
v -0.233333 0.125000 -0.066833
v -0.366667 -0.125000 -0.133500
v -0.366667 0.125000 -0.133500
v -0.433333 -0.125000 -0.133500
v -0.433333 0.125000 -0.133500
v -0.433333 -0.125000 -0.200167
v -0.433333 0.125000 -0.200167
v -0.366667 -0.125000 -0.200167
v -0.366667 0.125000 -0.200167
v -0.166667 -0.125000 -0.066833
v -0.166667 0.125000 -0.066833
v -0.233333 -0.125000 -0.066833
v -0.233333 0.125000 -0.066833
v -0.233333 -0.125000 -0.200167
v -0.233333 0.125000 -0.200167
v -0.166667 -0.125000 -0.200167
v -0.166667 0.125000 -0.200167
v -0.233333 -0.125000 -0.200167
v -0.233333 0.125000 -0.200167
v -0.366667 -0.125000 -0.200167
v -0.366667 0.125000 -0.200167
v -0.366667 -0.125000 -0.266833
v -0.366667 0.125000 -0.266833
v -0.233333 -0.125000 -0.266833
v -0.233333 0.125000 -0.266833
vn -0.0000 1.0000 -0.0000
vn -0.0000 -1.0000 -0.0000
vn 0.7071 -0.0000 0.7071
vn -0.7071 -0.0000 0.7071
vn -0.7071 -0.0000 -0.7071
vn 0.7071 -0.0000 -0.7071
vt 0.920000 0.000000
vt 1.000000 0.000000
vt 0.960000 0.000000
vt 0.880000 0.000000
vt 0.600000 0.000000
vt 0.680000 0.000000
vt 0.640000 0.000000
vt 0.560000 0.000000
vt 0.760000 0.000000
vt 0.840000 0.000000
vt 0.800000 0.000000
vt 0.720000 0.000000
vt 0.440000 0.000000
vt 0.520000 0.000000
vt 0.480000 0.000000
vt 0.400000 0.000000
vt 0.280000 0.000000
vt 0.360000 0.000000
vt 0.320000 0.000000
vt 0.240000 0.000000
vt 0.040000 0.000000
vt 0.120000 0.000000
vt 0.080000 0.000000
vt 0.160000 0.000000
vt 0.200000 0.000000
vt 0.000000 0.000000
vt 0.000000 1.000000
vt 0.166667 1.000000
vt 0.166667 0.000000
vt 0.333333 1.000000
vt 0.333333 0.000000
vt 0.500000 1.000000
vt 0.500000 0.000000
vt 0.666667 1.000000
vt 0.666667 0.000000
vt 0.833333 1.000000
vt 0.833333 0.000000
vt 1.000000 1.000000
vt 0.250000 1.000000
vt 0.250000 0.000000
vt 0.750000 1.000000
vt 0.750000 0.000000
s 0
f 24/1/1 26/2/1 25/3/1
f 24/1/1 23/4/1 26/2/1
f 16/5/1 18/6/1 17/7/1
f 16/5/1 15/8/1 18/6/1
f 20/9/1 22/10/1 21/11/1
f 20/9/1 19/12/1 22/10/1
f 12/13/1 14/14/1 13/15/1
f 12/13/1 11/16/1 14/14/1
f 8/17/1 10/18/1 9/19/1
f 8/17/1 7/20/1 10/18/1
f 2/21/1 4/22/1 3/23/1
f 2/21/1 5/24/1 4/22/1
f 2/21/1 6/25/1 5/24/1
f 2/21/1 1/26/1 6/25/1
f 50/1/2 51/3/2 52/2/2
f 50/1/2 52/2/2 49/4/2
f 42/5/2 43/7/2 44/6/2
f 42/5/2 44/6/2 41/8/2
f 46/9/2 47/11/2 48/10/2
f 46/9/2 48/10/2 45/12/2
f 38/13/2 39/15/2 40/14/2
f 38/13/2 40/14/2 37/16/2
f 34/17/2 35/19/2 36/18/2
f 34/17/2 36/18/2 33/20/2
f 28/21/2 29/23/2 30/22/2
f 28/21/2 30/22/2 31/24/2
f 28/21/2 31/24/2 32/25/2
f 28/21/2 32/25/2 27/26/2
s 1
f 54/27/3 56/28/4 55/29/4 53/26/3
f 56/28/4 58/30/5 57/31/5 55/29/4
f 58/30/5 60/32/6 59/33/6 57/31/5
f 60/32/6 62/34/6 61/35/6 59/33/6
f 62/34/6 64/36/6 63/37/6 61/35/6
f 64/36/6 54/38/3 53/2/3 63/37/6
f 66/27/3 68/39/4 67/40/4 65/26/3
f 68/39/4 70/32/5 69/33/5 67/40/4
f 70/32/5 72/41/6 71/42/6 69/33/5
f 72/41/6 66/38/3 65/2/3 71/42/6
f 74/27/3 76/39/4 75/40/4 73/26/3
f 76/39/4 78/32/5 77/33/5 75/40/4
f 78/32/5 80/41/6 79/42/6 77/33/5
f 80/41/6 74/38/3 73/2/3 79/42/6
f 82/27/3 84/39/4 83/40/4 81/26/3
f 84/39/4 86/32/5 85/33/5 83/40/4
f 86/32/5 88/41/6 87/42/6 85/33/5
f 88/41/6 82/38/3 81/2/3 87/42/6
f 90/27/3 92/39/4 91/40/4 89/26/3
f 92/39/4 94/32/5 93/33/5 91/40/4
f 94/32/5 96/41/6 95/42/6 93/33/5
f 96/41/6 90/38/3 89/2/3 95/42/6
f 98/27/3 100/39/4 99/40/4 97/26/3
f 100/39/4 102/32/5 101/33/5 99/40/4
f 102/32/5 104/41/6 103/42/6 101/33/5
f 104/41/6 98/38/3 97/2/3 103/42/6
o Text.001
v 0.033333 0.125000 0.266500
v -0.033333 0.125000 0.266500
v -0.033333 0.125000 0.199833
v -0.100000 0.125000 0.199833
v -0.100000 0.125000 -0.200167
v -0.033333 0.125000 -0.200167
v -0.033333 0.125000 0.133167
v 0.033333 0.125000 0.133167
v 0.033333 0.125000 -0.200167
v 0.100000 0.125000 -0.200167
v 0.100000 0.125000 0.199833
v 0.033333 0.125000 0.199833
v 0.033333 0.125000 -0.266833
v -0.033333 0.125000 -0.266833
v -0.033333 0.125000 -0.200167
v 0.033333 0.125000 -0.200167
v 0.033333 -0.125000 0.266500
v -0.033333 -0.125000 0.266500
v -0.033333 -0.125000 0.199833
v -0.100000 -0.125000 0.199833
v -0.100000 -0.125000 -0.200167
v -0.033333 -0.125000 -0.200167
v -0.033333 -0.125000 0.133167
v 0.033333 -0.125000 0.133167
v 0.033333 -0.125000 -0.200167
v 0.100000 -0.125000 -0.200167
v 0.100000 -0.125000 0.199833
v 0.033333 -0.125000 0.199833
v 0.033333 -0.125000 -0.266833
v -0.033333 -0.125000 -0.266833
v -0.033333 -0.125000 -0.200167
v 0.033333 -0.125000 -0.200167
v 0.033333 -0.125000 0.266500
v 0.033333 0.125000 0.266500
v -0.033333 -0.125000 0.266500
v -0.033333 0.125000 0.266500
v -0.033333 -0.125000 0.199833
v -0.033333 0.125000 0.199833
v -0.100000 -0.125000 0.199833
v -0.100000 0.125000 0.199833
v -0.100000 -0.125000 -0.200167
v -0.100000 0.125000 -0.200167
v -0.033333 -0.125000 -0.200167
v -0.033333 0.125000 -0.200167
v -0.033333 -0.125000 0.133167
v -0.033333 0.125000 0.133167
v 0.033333 -0.125000 0.133167
v 0.033333 0.125000 0.133167
v 0.033333 -0.125000 -0.200167
v 0.033333 0.125000 -0.200167
v 0.100000 -0.125000 -0.200167
v 0.100000 0.125000 -0.200167
v 0.100000 -0.125000 0.199833
v 0.100000 0.125000 0.199833
v 0.033333 -0.125000 0.199833
v 0.033333 0.125000 0.199833
v 0.033333 -0.125000 -0.266833
v 0.033333 0.125000 -0.266833
v -0.033333 -0.125000 -0.266833
v -0.033333 0.125000 -0.266833
v -0.033333 -0.125000 -0.200167
v -0.033333 0.125000 -0.200167
v 0.033333 -0.125000 -0.200167
v 0.033333 0.125000 -0.200167
vn -0.0000 1.0000 -0.0000
vn -0.0000 -1.0000 -0.0000
vn 0.7071 -0.0000 0.7071
vn -0.7071 -0.0000 0.7071
vn -0.7071 -0.0000 -0.7071
vn 0.7071 -0.0000 -0.7071
vt 0.933333 0.000000
vt 0.800000 0.000000
vt 0.866667 0.000000
vt 1.000000 0.000000
vt 0.200000 0.000000
vt 0.333333 0.000000
vt 0.266667 0.000000
vt 0.400000 0.000000
vt 0.466667 0.000000
vt 0.600000 0.000000
vt 0.533333 0.000000
vt 0.666667 0.000000
vt 0.133333 0.000000
vt 0.066667 0.000000
vt 0.733333 0.000000
vt 0.000000 0.000000
vt 0.000000 1.000000
vt 0.083333 1.000000
vt 0.083333 0.000000
vt 0.166667 1.000000
vt 0.166667 0.000000
vt 0.250000 1.000000
vt 0.250000 0.000000
vt 0.333333 1.000000
vt 0.416667 1.000000
vt 0.416667 0.000000
vt 0.500000 1.000000
vt 0.500000 0.000000
vt 0.583333 1.000000
vt 0.583333 0.000000
vt 0.666667 1.000000
vt 0.750000 1.000000
vt 0.750000 0.000000
vt 0.833333 1.000000
vt 0.833333 0.000000
vt 0.916667 1.000000
vt 0.916667 0.000000
vt 1.000000 1.000000
s 0
f 119/43/7 117/44/7 118/45/7
f 119/43/7 120/46/7 117/44/7
f 108/47/7 110/48/7 109/49/7
f 108/47/7 111/50/7 110/48/7
f 112/51/7 114/52/7 113/53/7
f 112/51/7 115/54/7 114/52/7
f 108/47/7 112/51/7 111/50/7
f 108/47/7 115/54/7 112/51/7
f 107/55/7 115/54/7 108/47/7
f 106/56/7 116/57/7 107/55/7
f 116/57/7 115/54/7 107/55/7
f 106/56/7 105/58/7 116/57/7
f 135/43/8 134/45/8 133/44/8
f 135/43/8 133/44/8 136/46/8
f 124/47/8 125/49/8 126/48/8
f 124/47/8 126/48/8 127/50/8
f 128/51/8 129/53/8 130/52/8
f 128/51/8 130/52/8 131/54/8
f 124/47/8 127/50/8 128/51/8
f 124/47/8 128/51/8 131/54/8
f 123/55/8 124/47/8 131/54/8
f 122/56/8 123/55/8 132/57/8
f 132/57/7 123/55/7 131/54/7
f 122/56/8 132/57/8 121/58/8
s 1
f 138/59/9 140/60/10 139/61/10 137/58/9
f 140/60/10 142/62/10 141/63/10 139/61/10
f 142/62/10 144/64/10 143/65/10 141/63/10
f 144/64/10 146/66/11 145/48/11 143/65/10
f 146/66/11 148/67/12 147/68/12 145/48/11
f 148/67/12 150/69/12 149/70/12 147/68/12
f 150/69/12 152/71/11 151/72/11 149/70/12
f 152/71/11 154/73/11 153/54/11 151/72/11
f 154/73/11 156/74/12 155/75/12 153/54/11
f 156/74/12 158/76/9 157/77/9 155/75/12
f 158/76/9 160/78/9 159/79/9 157/77/9
f 160/78/9 138/80/9 137/46/9 159/79/9
f 162/59/10 164/64/9 163/65/9 161/58/10
f 164/64/9 166/69/12 165/70/12 163/65/9
f 166/69/12 168/74/11 167/75/11 165/70/12
f 168/74/11 162/80/10 161/46/10 167/75/11
o Text.002
v 0.299833 0.125000 0.266500
v 0.233167 0.125000 0.266500
v 0.233167 0.125000 0.199833
v 0.166500 0.125000 0.199833
v 0.166500 0.125000 -0.200167
v 0.233167 0.125000 -0.200167
v 0.233167 0.125000 0.133167
v 0.299833 0.125000 0.133167
v 0.299833 0.125000 -0.200167
v 0.366500 0.125000 -0.200167
v 0.366500 0.125000 0.199833
v 0.299833 0.125000 0.199833
v 0.299833 0.125000 -0.266833
v 0.233167 0.125000 -0.266833
v 0.233167 0.125000 -0.200167
v 0.299833 0.125000 -0.200167
v 0.299833 -0.125000 0.266500
v 0.233167 -0.125000 0.266500
v 0.233167 -0.125000 0.199833
v 0.166500 -0.125000 0.199833
v 0.166500 -0.125000 -0.200167
v 0.233167 -0.125000 -0.200167
v 0.233167 -0.125000 0.133167
v 0.299833 -0.125000 0.133167
v 0.299833 -0.125000 -0.200167
v 0.366500 -0.125000 -0.200167
v 0.366500 -0.125000 0.199833
v 0.299833 -0.125000 0.199833
v 0.299833 -0.125000 -0.266833
v 0.233167 -0.125000 -0.266833
v 0.233167 -0.125000 -0.200167
v 0.299833 -0.125000 -0.200167
v 0.299833 -0.125000 0.266500
v 0.299833 0.125000 0.266500
v 0.233167 -0.125000 0.266500
v 0.233167 0.125000 0.266500
v 0.233167 -0.125000 0.199833
v 0.233167 0.125000 0.199833
v 0.166500 -0.125000 0.199833
v 0.166500 0.125000 0.199833
v 0.166500 -0.125000 -0.200167
v 0.166500 0.125000 -0.200167
v 0.233167 -0.125000 -0.200167
v 0.233167 0.125000 -0.200167
v 0.233167 -0.125000 0.133167
v 0.233167 0.125000 0.133167
v 0.299833 -0.125000 0.133167
v 0.299833 0.125000 0.133167
v 0.299833 -0.125000 -0.200167
v 0.299833 0.125000 -0.200167
v 0.366500 -0.125000 -0.200167
v 0.366500 0.125000 -0.200167
v 0.366500 -0.125000 0.199833
v 0.366500 0.125000 0.199833
v 0.299833 -0.125000 0.199833
v 0.299833 0.125000 0.199833
v 0.299833 -0.125000 -0.266833
v 0.299833 0.125000 -0.266833
v 0.233167 -0.125000 -0.266833
v 0.233167 0.125000 -0.266833
v 0.233167 -0.125000 -0.200167
v 0.233167 0.125000 -0.200167
v 0.299833 -0.125000 -0.200167
v 0.299833 0.125000 -0.200167
vn -0.0000 1.0000 -0.0000
vn -0.0000 -1.0000 -0.0000
vn 0.7071 -0.0000 0.7071
vn -0.7071 -0.0000 0.7071
vn -0.7071 -0.0000 -0.7071
vn 0.7071 -0.0000 -0.7071
vt 0.933333 0.000000
vt 0.800000 0.000000
vt 0.866667 0.000000
vt 1.000000 0.000000
vt 0.200000 0.000000
vt 0.333333 0.000000
vt 0.266667 0.000000
vt 0.400000 0.000000
vt 0.466667 0.000000
vt 0.600000 0.000000
vt 0.533333 0.000000
vt 0.666667 0.000000
vt 0.133333 0.000000
vt 0.066667 0.000000
vt 0.733333 0.000000
vt 0.000000 0.000000
vt 0.000000 1.000000
vt 0.083333 1.000000
vt 0.083333 0.000000
vt 0.166667 1.000000
vt 0.166667 0.000000
vt 0.250000 1.000000
vt 0.250000 0.000000
vt 0.333333 1.000000
vt 0.416667 1.000000
vt 0.416667 0.000000
vt 0.500000 1.000000
vt 0.500000 0.000000
vt 0.583333 1.000000
vt 0.583333 0.000000
vt 0.666667 1.000000
vt 0.750000 1.000000
vt 0.750000 0.000000
vt 0.833333 1.000000
vt 0.833333 0.000000
vt 0.916667 1.000000
vt 0.916667 0.000000
vt 1.000000 1.000000
s 0
f 183/81/13 181/82/13 182/83/13
f 183/81/13 184/84/13 181/82/13
f 172/85/13 174/86/13 173/87/13
f 172/85/13 175/88/13 174/86/13
f 176/89/13 178/90/13 177/91/13
f 176/89/13 179/92/13 178/90/13
f 172/85/13 176/89/13 175/88/13
f 172/85/13 179/92/13 176/89/13
f 171/93/13 179/92/13 172/85/13
f 170/94/13 180/95/13 171/93/13
f 180/95/13 179/92/13 171/93/13
f 170/94/13 169/96/13 180/95/13
f 199/81/14 198/83/14 197/82/14
f 199/81/14 197/82/14 200/84/14
f 188/85/14 189/87/14 190/86/14
f 188/85/14 190/86/14 191/88/14
f 192/89/14 193/91/14 194/90/14
f 192/89/14 194/90/14 195/92/14
f 188/85/14 191/88/14 192/89/14
f 188/85/14 192/89/14 195/92/14
f 187/93/14 188/85/14 195/92/14
f 186/94/14 187/93/14 196/95/14
f 196/95/13 187/93/13 195/92/13
f 186/94/14 196/95/14 185/96/14
s 1
f 202/97/15 204/98/16 203/99/16 201/96/15
f 204/98/16 206/100/16 205/101/16 203/99/16
f 206/100/16 208/102/16 207/103/16 205/101/16
f 208/102/16 210/104/17 209/86/17 207/103/16
f 210/104/17 212/105/18 211/106/18 209/86/17
f 212/105/18 214/107/18 213/108/18 211/106/18
f 214/107/18 216/109/17 215/110/17 213/108/18
f 216/109/17 218/111/17 217/92/17 215/110/17
f 218/111/17 220/112/18 219/113/18 217/92/17
f 220/112/18 222/114/15 221/115/15 219/113/18
f 222/114/15 224/116/15 223/117/15 221/115/15
f 224/116/15 202/118/15 201/84/15 223/117/15
f 226/97/16 228/102/15 227/103/15 225/96/16
f 228/102/15 230/107/18 229/108/18 227/103/15
f 230/107/18 232/112/17 231/113/17 229/108/18
f 232/112/17 226/118/16 225/84/16 231/113/17
o Text.003
v 0.576333 0.125000 0.266500
v 0.509667 0.125000 0.266500
v 0.509667 0.125000 0.199833
v 0.443000 0.125000 0.199833
v 0.443000 0.125000 -0.200167
v 0.509667 0.125000 -0.200167
v 0.509667 0.125000 0.133167
v 0.576333 0.125000 0.133167
v 0.576333 0.125000 -0.200167
v 0.643000 0.125000 -0.200167
v 0.643000 0.125000 0.199833
v 0.576333 0.125000 0.199833
v 0.576333 0.125000 -0.266833
v 0.509667 0.125000 -0.266833
v 0.509667 0.125000 -0.200167
v 0.576333 0.125000 -0.200167
v 0.576333 -0.125000 0.266500
v 0.509667 -0.125000 0.266500
v 0.509667 -0.125000 0.199833
v 0.443000 -0.125000 0.199833
v 0.443000 -0.125000 -0.200167
v 0.509667 -0.125000 -0.200167
v 0.509667 -0.125000 0.133167
v 0.576333 -0.125000 0.133167
v 0.576333 -0.125000 -0.200167
v 0.643000 -0.125000 -0.200167
v 0.643000 -0.125000 0.199833
v 0.576333 -0.125000 0.199833
v 0.576333 -0.125000 -0.266833
v 0.509667 -0.125000 -0.266833
v 0.509667 -0.125000 -0.200167
v 0.576333 -0.125000 -0.200167
v 0.576333 -0.125000 0.266500
v 0.576333 0.125000 0.266500
v 0.509667 -0.125000 0.266500
v 0.509667 0.125000 0.266500
v 0.509667 -0.125000 0.199833
v 0.509667 0.125000 0.199833
v 0.443000 -0.125000 0.199833
v 0.443000 0.125000 0.199833
v 0.443000 -0.125000 -0.200167
v 0.443000 0.125000 -0.200167
v 0.509667 -0.125000 -0.200167
v 0.509667 0.125000 -0.200167
v 0.509667 -0.125000 0.133167
v 0.509667 0.125000 0.133167
v 0.576333 -0.125000 0.133167
v 0.576333 0.125000 0.133167
v 0.576333 -0.125000 -0.200167
v 0.576333 0.125000 -0.200167
v 0.643000 -0.125000 -0.200167
v 0.643000 0.125000 -0.200167
v 0.643000 -0.125000 0.199833
v 0.643000 0.125000 0.199833
v 0.576333 -0.125000 0.199833
v 0.576333 0.125000 0.199833
v 0.576333 -0.125000 -0.266833
v 0.576333 0.125000 -0.266833
v 0.509667 -0.125000 -0.266833
v 0.509667 0.125000 -0.266833
v 0.509667 -0.125000 -0.200167
v 0.509667 0.125000 -0.200167
v 0.576333 -0.125000 -0.200167
v 0.576333 0.125000 -0.200167
vn -0.0000 1.0000 -0.0000
vn -0.0000 -1.0000 -0.0000
vn 0.7071 -0.0000 0.7071
vn -0.7071 -0.0000 0.7071
vn -0.7071 -0.0000 -0.7071
vn 0.7071 -0.0000 -0.7071
vt 0.933333 0.000000
vt 0.800000 0.000000
vt 0.866667 0.000000
vt 1.000000 0.000000
vt 0.200000 0.000000
vt 0.333333 0.000000
vt 0.266667 0.000000
vt 0.400000 0.000000
vt 0.466667 0.000000
vt 0.600000 0.000000
vt 0.533333 0.000000
vt 0.666667 0.000000
vt 0.133333 0.000000
vt 0.066667 0.000000
vt 0.733333 0.000000
vt 0.000000 0.000000
vt 0.000000 1.000000
vt 0.083333 1.000000
vt 0.083333 0.000000
vt 0.166667 1.000000
vt 0.166667 0.000000
vt 0.250000 1.000000
vt 0.250000 0.000000
vt 0.333333 1.000000
vt 0.416667 1.000000
vt 0.416667 0.000000
vt 0.500000 1.000000
vt 0.500000 0.000000
vt 0.583333 1.000000
vt 0.583333 0.000000
vt 0.666667 1.000000
vt 0.750000 1.000000
vt 0.750000 0.000000
vt 0.833333 1.000000
vt 0.833333 0.000000
vt 0.916667 1.000000
vt 0.916667 0.000000
vt 1.000000 1.000000
s 0
f 247/119/19 245/120/19 246/121/19
f 247/119/19 248/122/19 245/120/19
f 236/123/19 238/124/19 237/125/19
f 236/123/19 239/126/19 238/124/19
f 240/127/19 242/128/19 241/129/19
f 240/127/19 243/130/19 242/128/19
f 236/123/19 240/127/19 239/126/19
f 236/123/19 243/130/19 240/127/19
f 235/131/19 243/130/19 236/123/19
f 234/132/19 244/133/19 235/131/19
f 244/133/19 243/130/19 235/131/19
f 234/132/19 233/134/19 244/133/19
f 263/119/20 262/121/20 261/120/20
f 263/119/20 261/120/20 264/122/20
f 252/123/20 253/125/20 254/124/20
f 252/123/20 254/124/20 255/126/20
f 256/127/20 257/129/20 258/128/20
f 256/127/20 258/128/20 259/130/20
f 252/123/20 255/126/20 256/127/20
f 252/123/20 256/127/20 259/130/20
f 251/131/20 252/123/20 259/130/20
f 250/132/20 251/131/20 260/133/20
f 260/133/19 251/131/19 259/130/19
f 250/132/20 260/133/20 249/134/20
s 1
f 266/135/21 268/136/22 267/137/22 265/134/21
f 268/136/22 270/138/22 269/139/22 267/137/22
f 270/138/22 272/140/22 271/141/22 269/139/22
f 272/140/22 274/142/23 273/124/23 271/141/22
f 274/142/23 276/143/24 275/144/24 273/124/23
f 276/143/24 278/145/24 277/146/24 275/144/24
f 278/145/24 280/147/23 279/148/23 277/146/24
f 280/147/23 282/149/23 281/130/23 279/148/23
f 282/149/23 284/150/24 283/151/24 281/130/23
f 284/150/24 286/152/21 285/153/21 283/151/24
f 286/152/21 288/154/21 287/155/21 285/153/21
f 288/154/21 266/156/21 265/122/21 287/155/21
f 290/135/22 292/140/21 291/141/21 289/134/22
f 292/140/21 294/145/24 293/146/24 291/141/21
f 294/145/24 296/150/23 295/151/23 293/146/24
f 296/150/23 290/156/22 289/122/22 295/151/23
