# Blender 4.4.0
# www.blender.org
mtllib score.mtl
usemtl score
o Text
v -0.233333 0.125000 0.266500
v -0.366667 0.125000 0.266500
v -0.366667 0.125000 0.199833
v -0.433333 0.125000 0.199833
v -0.433333 0.125000 0.066500
v -0.366667 0.125000 0.066500
v -0.366667 0.125000 0.133167
v -0.233333 0.125000 0.133167
v -0.233333 0.125000 -0.000167
v -0.166667 0.125000 -0.000167
v -0.166667 0.125000 0.199833
v -0.233333 0.125000 0.199833
v -0.233333 0.125000 -0.000167
v -0.366667 0.125000 -0.000167
v -0.366667 0.125000 -0.066833
v -0.233333 0.125000 -0.066833
v -0.366667 0.125000 -0.133500
v -0.433333 0.125000 -0.133500
v -0.433333 0.125000 -0.200167
v -0.366667 0.125000 -0.200167
v -0.166667 0.125000 -0.066833
v -0.233333 0.125000 -0.066833
v -0.233333 0.125000 -0.200167
v -0.166667 0.125000 -0.200167
v -0.233333 0.125000 -0.200167
v -0.366667 0.125000 -0.200167
v -0.366667 0.125000 -0.266833
v -0.233333 0.125000 -0.266833
v -0.233333 -0.125000 0.266500
v -0.366667 -0.125000 0.266500
v -0.366667 -0.125000 0.199833
v -0.433333 -0.125000 0.199833
v -0.433333 -0.125000 0.066500
v -0.366667 -0.125000 0.066500
v -0.366667 -0.125000 0.133167
v -0.233333 -0.125000 0.133167
v -0.233333 -0.125000 -0.000167
v -0.166667 -0.125000 -0.000167
v -0.166667 -0.125000 0.199833
v -0.233333 -0.125000 0.199833
v -0.233333 -0.125000 -0.000167
v -0.366667 -0.125000 -0.000167
v -0.366667 -0.125000 -0.066833
v -0.233333 -0.125000 -0.066833
v -0.366667 -0.125000 -0.133500
v -0.433333 -0.125000 -0.133500
v -0.433333 -0.125000 -0.200167
v -0.366667 -0.125000 -0.200167
v -0.166667 -0.125000 -0.066833
v -0.233333 -0.125000 -0.066833
v -0.233333 -0.125000 -0.200167
v -0.166667 -0.125000 -0.200167
v -0.233333 -0.125000 -0.200167
v -0.366667 -0.125000 -0.200167
v -0.366667 -0.125000 -0.266833
v -0.233333 -0.125000 -0.266833
v -0.233333 -0.125000 0.266500
v -0.233333 0.125000 0.266500
v -0.366667 -0.125000 0.266500
v -0.366667 0.125000 0.266500
v -0.366667 -0.125000 0.199833
v -0.366667 0.125000 0.199833
v -0.433333 -0.125000 0.199833
v -0.433333 0.125000 0.199833
v -0.433333 -0.125000 0.066500
v -0.433333 0.125000 0.066500
v -0.366667 -0.125000 0.066500
v -0.366667 0.125000 0.066500
v -0.366667 -0.125000 0.133167
v -0.366667 0.125000 0.133167
v -0.233333 -0.125000 0.133167
v -0.233333 0.125000 0.133167
v -0.233333 -0.125000 -0.000167
v -0.233333 0.125000 -0.000167
v -0.166667 -0.125000 -0.000167
v -0.166667 0.125000 -0.000167
v -0.166667 -0.125000 0.199833
v -0.166667 0.125000 0.199833
v -0.233333 -0.125000 0.199833
v -0.233333 0.125000 0.199833
v -0.233333 -0.125000 -0.000167
v -0.233333 0.125000 -0.000167
v -0.366667 -0.125000 -0.000167
v -0.366667 0.125000 -0.000167
v -0.366667 -0.125000 -0.066833
v -0.366667 0.125000 -0.066833
v -0.233333 -0.125000 -0.066833
v -0.233333 0.125000 -0.066833
v -0.366667 -0.125000 -0.133500
v -0.366667 0.125000 -0.133500
v -0.433333 -0.125000 -0.133500
v -0.433333 0.125000 -0.133500
v -0.433333 -0.125000 -0.200167
v -0.433333 0.125000 -0.200167
v -0.366667 -0.125000 -0.200167
v -0.366667 0.125000 -0.200167
v -0.166667 -0.125000 -0.066833
v -0.166667 0.125000 -0.066833
v -0.233333 -0.125000 -0.066833
v -0.233333 0.125000 -0.066833
v -0.233333 -0.125000 -0.200167
v -0.233333 0.125000 -0.200167
v -0.166667 -0.125000 -0.200167
v -0.166667 0.125000 -0.200167
v -0.233333 -0.125000 -0.200167
v -0.233333 0.125000 -0.200167
v -0.366667 -0.125000 -0.200167
v -0.366667 0.125000 -0.200167
v -0.366667 -0.125000 -0.266833
v -0.366667 0.125000 -0.266833
v -0.233333 -0.125000 -0.266833
v -0.233333 0.125000 -0.266833
vn -0.0000 1.0000 -0.0000
vn -0.0000 -1.0000 -0.0000
vn 0.7071 -0.0000 0.7071
vn -0.7071 -0.0000 0.7071
vn -0.7071 -0.0000 -0.7071
vn 0.7071 -0.0000 -0.7071
vt 0.925926 0.000000
vt 1.000000 0.000000
vt 0.962963 0.000000
vt 0.888889 0.000000
vt 0.629630 0.000000
vt 0.703704 0.000000
vt 0.666667 0.000000
vt 0.592593 0.000000
vt 0.777778 0.000000
vt 0.851852 0.000000
vt 0.814815 0.000000
vt 0.740741 0.000000
vt 0.481481 0.000000
vt 0.555556 0.000000
vt 0.518519 0.000000
vt 0.444444 0.000000
vt 0.259259 0.000000
vt 0.333333 0.000000
vt 0.296296 0.000000
vt 0.370370 0.000000
vt 0.111111 0.000000
vt 0.185185 0.000000
vt 0.148148 0.000000
vt 0.222222 0.000000
vt 0.074074 0.000000
vt 0.037037 0.000000
vt 0.407407 0.000000
vt 0.000000 0.000000
vt 0.000000 1.000000
vt 0.083333 1.000000
vt 0.083333 0.000000
vt 0.166667 1.000000
vt 0.166667 0.000000
vt 0.250000 1.000000
vt 0.250000 0.000000
vt 0.333333 1.000000
vt 0.416667 1.000000
vt 0.416667 0.000000
vt 0.500000 1.000000
vt 0.500000 0.000000
vt 0.583333 1.000000
vt 0.583333 0.000000
vt 0.666667 1.000000
vt 0.750000 1.000000
vt 0.750000 0.000000
vt 0.833333 1.000000
vt 0.833333 0.000000
vt 0.916667 1.000000
vt 0.916667 0.000000
vt 1.000000 1.000000
s 0
f 26/1/1 28/2/1 27/3/1
f 26/1/1 25/4/1 28/2/1
f 18/5/1 20/6/1 19/7/1
f 18/5/1 17/8/1 20/6/1
f 22/9/1 24/10/1 23/11/1
f 22/9/1 21/12/1 24/10/1
f 14/13/1 16/14/1 15/15/1
f 14/13/1 13/16/1 16/14/1
f 8/17/1 10/18/1 9/19/1
f 8/17/1 11/20/1 10/18/1
f 4/21/1 6/22/1 5/23/1
f 4/21/1 7/24/1 6/22/1
f 4/21/1 8/17/1 7/24/1
f 4/21/1 11/20/1 8/17/1
f 3/25/1 11/20/1 4/21/1
f 2/26/1 12/27/1 3/25/1
f 12/27/1 11/20/1 3/25/1
f 2/26/1 1/28/1 12/27/1
f 54/1/2 55/3/2 56/2/2
f 54/1/2 56/2/2 53/4/2
f 46/5/2 47/7/2 48/6/2
f 46/5/2 48/6/2 45/8/2
f 50/9/2 51/11/2 52/10/2
f 50/9/2 52/10/2 49/12/2
f 42/13/2 43/15/2 44/14/2
f 42/13/2 44/14/2 41/16/2
f 36/17/2 37/19/2 38/18/2
f 36/17/2 38/18/2 39/20/2
f 32/21/2 33/23/2 34/22/2
f 32/21/2 34/22/2 35/24/2
f 32/21/2 35/24/2 36/17/2
f 32/21/2 36/17/2 39/20/2
f 31/25/1 32/21/1 39/20/1
f 30/26/2 31/25/2 40/27/2
f 40/27/1 31/25/1 39/20/1
f 30/26/2 40/27/2 29/28/2
s 1
f 58/29/3 60/30/4 59/31/4 57/28/3
f 60/30/4 62/32/4 61/33/4 59/31/4
f 62/32/4 64/34/4 63/35/4 61/33/4
f 64/34/4 66/36/5 65/18/5 63/35/4
f 66/36/5 68/37/6 67/38/6 65/18/5
f 68/37/6 70/39/6 69/40/6 67/38/6
f 70/39/6 72/41/5 71/42/5 69/40/6
f 72/41/5 74/43/5 73/7/5 71/42/5
f 74/43/5 76/44/6 75/45/6 73/7/5
f 76/44/6 78/46/3 77/47/3 75/45/6
f 78/46/3 80/48/3 79/49/3 77/47/3
f 80/48/3 58/50/3 57/2/3 79/49/3
f 82/29/3 84/34/4 83/35/4 81/28/3
f 84/34/4 86/39/5 85/40/5 83/35/4
f 86/39/5 88/44/6 87/45/6 85/40/5
f 88/44/6 82/50/3 81/2/3 87/45/6
f 90/29/3 92/34/4 91/35/4 89/28/3
f 92/34/4 94/39/5 93/40/5 91/35/4
f 94/39/5 96/44/6 95/45/6 93/40/5
f 96/44/6 90/50/3 89/2/3 95/45/6
f 98/29/3 100/34/4 99/35/4 97/28/3
f 100/34/4 102/39/5 101/40/5 99/35/4
f 102/39/5 104/44/6 103/45/6 101/40/5
f 104/44/6 98/50/3 97/2/3 103/45/6
f 106/29/3 108/34/4 107/35/4 105/28/3
f 108/34/4 110/39/5 109/40/5 107/35/4
f 110/39/5 112/44/6 111/45/6 109/40/5
f 112/44/6 106/50/3 105/2/3 111/45/6
o Text.001
v 0.033333 0.125000 0.266500
v -0.033333 0.125000 0.266500
v -0.033333 0.125000 0.199833
v -0.100000 0.125000 0.199833
v -0.100000 0.125000 -0.200167
v -0.033333 0.125000 -0.200167
v -0.033333 0.125000 0.133167
v 0.033333 0.125000 0.133167
v 0.033333 0.125000 -0.200167
v 0.100000 0.125000 -0.200167
v 0.100000 0.125000 0.199833
v 0.033333 0.125000 0.199833
v 0.033333 0.125000 -0.266833
v -0.033333 0.125000 -0.266833
v -0.033333 0.125000 -0.200167
v 0.033333 0.125000 -0.200167
v 0.033333 -0.125000 0.266500
v -0.033333 -0.125000 0.266500
v -0.033333 -0.125000 0.199833
v -0.100000 -0.125000 0.199833
v -0.100000 -0.125000 -0.200167
v -0.033333 -0.125000 -0.200167
v -0.033333 -0.125000 0.133167
v 0.033333 -0.125000 0.133167
v 0.033333 -0.125000 -0.200167
v 0.100000 -0.125000 -0.200167
v 0.100000 -0.125000 0.199833
v 0.033333 -0.125000 0.199833
v 0.033333 -0.125000 -0.266833
v -0.033333 -0.125000 -0.266833
v -0.033333 -0.125000 -0.200167
v 0.033333 -0.125000 -0.200167
v 0.033333 -0.125000 0.266500
v 0.033333 0.125000 0.266500
v -0.033333 -0.125000 0.266500
v -0.033333 0.125000 0.266500
v -0.033333 -0.125000 0.199833
v -0.033333 0.125000 0.199833
v -0.100000 -0.125000 0.199833
v -0.100000 0.125000 0.199833
v -0.100000 -0.125000 -0.200167
v -0.100000 0.125000 -0.200167
v -0.033333 -0.125000 -0.200167
v -0.033333 0.125000 -0.200167
v -0.033333 -0.125000 0.133167
v -0.033333 0.125000 0.133167
v 0.033333 -0.125000 0.133167
v 0.033333 0.125000 0.133167
v 0.033333 -0.125000 -0.200167
v 0.033333 0.125000 -0.200167
v 0.100000 -0.125000 -0.200167
v 0.100000 0.125000 -0.200167
v 0.100000 -0.125000 0.199833
v 0.100000 0.125000 0.199833
v 0.033333 -0.125000 0.199833
v 0.033333 0.125000 0.199833
v 0.033333 -0.125000 -0.266833
v 0.033333 0.125000 -0.266833
v -0.033333 -0.125000 -0.266833
v -0.033333 0.125000 -0.266833
v -0.033333 -0.125000 -0.200167
v -0.033333 0.125000 -0.200167
v 0.033333 -0.125000 -0.200167
v 0.033333 0.125000 -0.200167
vn -0.0000 1.0000 -0.0000
vn -0.0000 -1.0000 -0.0000
vn 0.7071 -0.0000 0.7071
vn -0.7071 -0.0000 0.7071
vn -0.7071 -0.0000 -0.7071
vn 0.7071 -0.0000 -0.7071
vt 0.933333 0.000000
vt 0.800000 0.000000
vt 0.866667 0.000000
vt 1.000000 0.000000
vt 0.200000 0.000000
vt 0.333333 0.000000
vt 0.266667 0.000000
vt 0.400000 0.000000
vt 0.466667 0.000000
vt 0.600000 0.000000
vt 0.533333 0.000000
vt 0.666667 0.000000
vt 0.133333 0.000000
vt 0.066667 0.000000
vt 0.733333 0.000000
vt 0.000000 0.000000
vt 0.000000 1.000000
vt 0.083333 1.000000
vt 0.083333 0.000000
vt 0.166667 1.000000
vt 0.166667 0.000000
vt 0.250000 1.000000
vt 0.250000 0.000000
vt 0.333333 1.000000
vt 0.416667 1.000000
vt 0.416667 0.000000
vt 0.500000 1.000000
vt 0.500000 0.000000
vt 0.583333 1.000000
vt 0.583333 0.000000
vt 0.666667 1.000000
vt 0.750000 1.000000
vt 0.750000 0.000000
vt 0.833333 1.000000
vt 0.833333 0.000000
vt 0.916667 1.000000
vt 0.916667 0.000000
vt 1.000000 1.000000
s 0
f 127/51/7 125/52/7 126/53/7
f 127/51/7 128/54/7 125/52/7
f 116/55/7 118/56/7 117/57/7
f 116/55/7 119/58/7 118/56/7
f 120/59/7 122/60/7 121/61/7
f 120/59/7 123/62/7 122/60/7
f 116/55/7 120/59/7 119/58/7
f 116/55/7 123/62/7 120/59/7
f 115/63/7 123/62/7 116/55/7
f 114/64/7 124/65/7 115/63/7
f 124/65/7 123/62/7 115/63/7
f 114/64/7 113/66/7 124/65/7
f 143/51/8 142/53/8 141/52/8
f 143/51/8 141/52/8 144/54/8
f 132/55/8 133/57/8 134/56/8
f 132/55/8 134/56/8 135/58/8
f 136/59/8 137/61/8 138/60/8
f 136/59/8 138/60/8 139/62/8
f 132/55/8 135/58/8 136/59/8
f 132/55/8 136/59/8 139/62/8
f 131/63/8 132/55/8 139/62/8
f 130/64/8 131/63/8 140/65/8
f 140/65/7 131/63/7 139/62/7
f 130/64/8 140/65/8 129/66/8
s 1
f 146/67/9 148/68/10 147/69/10 145/66/9
f 148/68/10 150/70/10 149/71/10 147/69/10
f 150/70/10 152/72/10 151/73/10 149/71/10
f 152/72/10 154/74/11 153/56/11 151/73/10
f 154/74/11 156/75/12 155/76/12 153/56/11
f 156/75/12 158/77/12 157/78/12 155/76/12
f 158/77/12 160/79/11 159/80/11 157/78/12
f 160/79/11 162/81/11 161/62/11 159/80/11
f 162/81/11 164/82/12 163/83/12 161/62/11
f 164/82/12 166/84/9 165/85/9 163/83/12
f 166/84/9 168/86/9 167/87/9 165/85/9
f 168/86/9 146/88/9 145/54/9 167/87/9
f 170/67/10 172/72/9 171/73/9 169/66/10
f 172/72/9 174/77/12 173/78/12 171/73/9
f 174/77/12 176/82/11 175/83/11 173/78/12
f 176/82/11 170/88/10 169/54/10 175/83/11
o Text.002
v 0.299833 0.125000 0.266500
v 0.233167 0.125000 0.266500
v 0.233167 0.125000 0.199833
v 0.166500 0.125000 0.199833
v 0.166500 0.125000 -0.200167
v 0.233167 0.125000 -0.200167
v 0.233167 0.125000 0.133167
v 0.299833 0.125000 0.133167
v 0.299833 0.125000 -0.200167
v 0.366500 0.125000 -0.200167
v 0.366500 0.125000 0.199833
v 0.299833 0.125000 0.199833
v 0.299833 0.125000 -0.266833
v 0.233167 0.125000 -0.266833
v 0.233167 0.125000 -0.200167
v 0.299833 0.125000 -0.200167
v 0.299833 -0.125000 0.266500
v 0.233167 -0.125000 0.266500
v 0.233167 -0.125000 0.199833
v 0.166500 -0.125000 0.199833
v 0.166500 -0.125000 -0.200167
v 0.233167 -0.125000 -0.200167
v 0.233167 -0.125000 0.133167
v 0.299833 -0.125000 0.133167
v 0.299833 -0.125000 -0.200167
v 0.366500 -0.125000 -0.200167
v 0.366500 -0.125000 0.199833
v 0.299833 -0.125000 0.199833
v 0.299833 -0.125000 -0.266833
v 0.233167 -0.125000 -0.266833
v 0.233167 -0.125000 -0.200167
v 0.299833 -0.125000 -0.200167
v 0.299833 -0.125000 0.266500
v 0.299833 0.125000 0.266500
v 0.233167 -0.125000 0.266500
v 0.233167 0.125000 0.266500
v 0.233167 -0.125000 0.199833
v 0.233167 0.125000 0.199833
v 0.166500 -0.125000 0.199833
v 0.166500 0.125000 0.199833
v 0.166500 -0.125000 -0.200167
v 0.166500 0.125000 -0.200167
v 0.233167 -0.125000 -0.200167
v 0.233167 0.125000 -0.200167
v 0.233167 -0.125000 0.133167
v 0.233167 0.125000 0.133167
v 0.299833 -0.125000 0.133167
v 0.299833 0.125000 0.133167
v 0.299833 -0.125000 -0.200167
v 0.299833 0.125000 -0.200167
v 0.366500 -0.125000 -0.200167
v 0.366500 0.125000 -0.200167
v 0.366500 -0.125000 0.199833
v 0.366500 0.125000 0.199833
v 0.299833 -0.125000 0.199833
v 0.299833 0.125000 0.199833
v 0.299833 -0.125000 -0.266833
v 0.299833 0.125000 -0.266833
v 0.233167 -0.125000 -0.266833
v 0.233167 0.125000 -0.266833
v 0.233167 -0.125000 -0.200167
v 0.233167 0.125000 -0.200167
v 0.299833 -0.125000 -0.200167
v 0.299833 0.125000 -0.200167
vn -0.0000 1.0000 -0.0000
vn -0.0000 -1.0000 -0.0000
vn 0.7071 -0.0000 0.7071
vn -0.7071 -0.0000 0.7071
vn -0.7071 -0.0000 -0.7071
vn 0.7071 -0.0000 -0.7071
vt 0.933333 0.000000
vt 0.800000 0.000000
vt 0.866667 0.000000
vt 1.000000 0.000000
vt 0.200000 0.000000
vt 0.333333 0.000000
vt 0.266667 0.000000
vt 0.400000 0.000000
vt 0.466667 0.000000
vt 0.600000 0.000000
vt 0.533333 0.000000
vt 0.666667 0.000000
vt 0.133333 0.000000
vt 0.066667 0.000000
vt 0.733333 0.000000
vt 0.000000 0.000000
vt 0.000000 1.000000
vt 0.083333 1.000000
vt 0.083333 0.000000
vt 0.166667 1.000000
vt 0.166667 0.000000
vt 0.250000 1.000000
vt 0.250000 0.000000
vt 0.333333 1.000000
vt 0.416667 1.000000
vt 0.416667 0.000000
vt 0.500000 1.000000
vt 0.500000 0.000000
vt 0.583333 1.000000
vt 0.583333 0.000000
vt 0.666667 1.000000
vt 0.750000 1.000000
vt 0.750000 0.000000
vt 0.833333 1.000000
vt 0.833333 0.000000
vt 0.916667 1.000000
vt 0.916667 0.000000
vt 1.000000 1.000000
s 0
f 191/89/13 189/90/13 190/91/13
f 191/89/13 192/92/13 189/90/13
f 180/93/13 182/94/13 181/95/13
f 180/93/13 183/96/13 182/94/13
f 184/97/13 186/98/13 185/99/13
f 184/97/13 187/100/13 186/98/13
f 180/93/13 184/97/13 183/96/13
f 180/93/13 187/100/13 184/97/13
f 179/101/13 187/100/13 180/93/13
f 178/102/13 188/103/13 179/101/13
f 188/103/13 187/100/13 179/101/13
f 178/102/13 177/104/13 188/103/13
f 207/89/14 206/91/14 205/90/14
f 207/89/14 205/90/14 208/92/14
f 196/93/14 197/95/14 198/94/14
f 196/93/14 198/94/14 199/96/14
f 200/97/14 201/99/14 202/98/14
f 200/97/14 202/98/14 203/100/14
f 196/93/14 199/96/14 200/97/14
f 196/93/14 200/97/14 203/100/14
f 195/101/14 196/93/14 203/100/14
f 194/102/14 195/101/14 204/103/14
f 204/103/13 195/101/13 203/100/13
f 194/102/14 204/103/14 193/104/14
s 1
f 210/105/15 212/106/16 211/107/16 209/104/15
f 212/106/16 214/108/16 213/109/16 211/107/16
f 214/108/16 216/110/16 215/111/16 213/109/16
f 216/110/16 218/112/17 217/94/17 215/111/16
f 218/112/17 220/113/18 219/114/18 217/94/17
f 220/113/18 222/115/18 221/116/18 219/114/18
f 222/115/18 224/117/17 223/118/17 221/116/18
f 224/117/17 226/119/17 225/100/17 223/118/17
f 226/119/17 228/120/18 227/121/18 225/100/17
f 228/120/18 230/122/15 229/123/15 227/121/18
f 230/122/15 232/124/15 231/125/15 229/123/15
f 232/124/15 210/126/15 209/92/15 231/125/15
f 234/105/16 236/110/15 235/111/15 233/104/16
f 236/110/15 238/115/18 237/116/18 235/111/15
f 238/115/18 240/120/17 239/121/17 237/116/18
f 240/120/17 234/126/16 233/92/16 239/121/17
