# Blender 4.4.0
# www.blender.org
mtllib score.mtl
usemtl score
o Text
v -0.233333 0.125000 0.266500
v -0.300000 0.125000 0.266500
v -0.300000 0.125000 0.133167
v -0.433333 0.125000 0.133167
v -0.433333 0.125000 -0.266833
v -0.366667 0.125000 -0.266833
v -0.366667 0.125000 -0.000167
v -0.300000 0.125000 -0.000167
v -0.300000 0.125000 -0.266833
v -0.233333 0.125000 -0.266833
v -0.233333 0.125000 -0.000167
v -0.166667 0.125000 -0.000167
v -0.166667 0.125000 0.133167
v -0.233333 0.125000 0.133167
v -0.233333 -0.125000 0.266500
v -0.300000 -0.125000 0.266500
v -0.300000 -0.125000 0.133167
v -0.433333 -0.125000 0.133167
v -0.433333 -0.125000 -0.266833
v -0.366667 -0.125000 -0.266833
v -0.366667 -0.125000 -0.000167
v -0.300000 -0.125000 -0.000167
v -0.300000 -0.125000 -0.266833
v -0.233333 -0.125000 -0.266833
v -0.233333 -0.125000 -0.000167
v -0.166667 -0.125000 -0.000167
v -0.166667 -0.125000 0.133167
v -0.233333 -0.125000 0.133167
v -0.233333 -0.125000 0.266500
v -0.233333 0.125000 0.266500
v -0.300000 -0.125000 0.266500
v -0.300000 0.125000 0.266500
v -0.300000 -0.125000 0.133167
v -0.300000 0.125000 0.133167
v -0.433333 -0.125000 0.133167
v -0.433333 0.125000 0.133167
v -0.433333 -0.125000 -0.266833
v -0.433333 0.125000 -0.266833
v -0.366667 -0.125000 -0.266833
v -0.366667 0.125000 -0.266833
v -0.366667 -0.125000 -0.000167
v -0.366667 0.125000 -0.000167
v -0.300000 -0.125000 -0.000167
v -0.300000 0.125000 -0.000167
v -0.300000 -0.125000 -0.266833
v -0.300000 0.125000 -0.266833
v -0.233333 -0.125000 -0.266833
v -0.233333 0.125000 -0.266833
v -0.233333 -0.125000 -0.000167
v -0.233333 0.125000 -0.000167
v -0.166667 -0.125000 -0.000167
v -0.166667 0.125000 -0.000167
v -0.166667 -0.125000 0.133167
v -0.166667 0.125000 0.133167
v -0.233333 -0.125000 0.133167
v -0.233333 0.125000 0.133167
vn -0.0000 1.0000 -0.0000
vn -0.0000 -1.0000 -0.0000
vn 0.7071 -0.0000 0.7071
vn -0.7071 -0.0000 0.7071
vn -0.7071 -0.0000 -0.7071
vn 0.7071 -0.0000 -0.7071
vt 0.230769 0.000000
vt 0.384615 0.000000
vt 0.307692 0.000000
vt 0.461538 0.000000
vt 0.538462 0.000000
vt 0.692308 0.000000
vt 0.615385 0.000000
vt 0.769231 0.000000
vt 0.846154 0.000000
vt 0.923077 0.000000
vt 0.153846 0.000000
vt 0.076923 0.000000
vt 1.000000 0.000000
vt 0.000000 0.000000
vt 0.000000 1.000000
vt 0.071429 1.000000
vt 0.071429 0.000000
vt 0.142857 1.000000
vt 0.142857 0.000000
vt 0.214286 1.000000
vt 0.214286 0.000000
vt 0.285714 1.000000
vt 0.285714 0.000000
vt 0.357143 1.000000
vt 0.357143 0.000000
vt 0.428571 1.000000
vt 0.428571 0.000000
vt 0.500000 1.000000
vt 0.500000 0.000000
vt 0.571429 1.000000
vt 0.571429 0.000000
vt 0.642857 1.000000
vt 0.642857 0.000000
vt 0.714286 1.000000
vt 0.714286 0.000000
vt 0.785714 1.000000
vt 0.785714 0.000000
vt 0.857143 1.000000
vt 0.857143 0.000000
vt 0.928571 1.000000
vt 0.928571 0.000000
vt 1.000000 1.000000
s 0
f 4/1/1 6/2/1 5/3/1
f 4/1/1 7/4/1 6/2/1
f 8/5/1 10/6/1 9/7/1
f 8/5/1 11/8/1 10/6/1
f 4/1/1 8/5/1 7/4/1
f 4/1/1 11/8/1 8/5/1
f 4/1/1 12/9/1 11/8/1
f 4/1/1 13/10/1 12/9/1
f 3/11/1 13/10/1 4/1/1
f 2/12/1 14/13/1 3/11/1
f 14/13/1 13/10/1 3/11/1
f 2/12/1 1/14/1 14/13/1
f 18/1/2 19/3/2 20/2/2
f 18/1/2 20/2/2 21/4/2
f 22/5/2 23/7/2 24/6/2
f 22/5/2 24/6/2 25/8/2
f 18/1/2 21/4/2 22/5/2
f 18/1/2 22/5/2 25/8/2
f 18/1/2 25/8/2 26/9/2
f 18/1/2 26/9/2 27/10/2
f 17/11/1 18/1/1 27/10/1
f 16/12/2 17/11/2 28/13/2
f 28/13/1 17/11/1 27/10/1
f 16/12/2 28/13/2 15/14/2
s 1
f 30/15/3 32/16/4 31/17/4 29/14/3
f 32/16/4 34/18/4 33/19/4 31/17/4
f 34/18/4 36/20/4 35/21/4 33/19/4
f 36/20/4 38/22/5 37/23/5 35/21/4
f 38/22/5 40/24/6 39/25/6 37/23/5
f 40/24/6 42/26/6 41/27/6 39/25/6
f 42/26/6 44/28/5 43/29/5 41/27/6
f 44/28/5 46/30/5 45/31/5 43/29/5
f 46/30/5 48/32/6 47/33/6 45/31/5
f 48/32/6 50/34/6 49/35/6 47/33/6
f 50/34/6 52/36/6 51/37/6 49/35/6
f 52/36/6 54/38/3 53/39/3 51/37/6
f 54/38/3 56/40/3 55/41/3 53/39/3
f 56/40/3 30/42/3 29/13/3 55/41/3
o Text.001
v 0.033333 0.125000 0.266500
v -0.033333 0.125000 0.266500
v -0.033333 0.125000 0.199833
v -0.100000 0.125000 0.199833
v -0.100000 0.125000 -0.200167
v -0.033333 0.125000 -0.200167
v -0.033333 0.125000 0.133167
v 0.033333 0.125000 0.133167
v 0.033333 0.125000 -0.200167
v 0.100000 0.125000 -0.200167
v 0.100000 0.125000 0.199833
v 0.033333 0.125000 0.199833
v 0.033333 0.125000 -0.266833
v -0.033333 0.125000 -0.266833
v -0.033333 0.125000 -0.200167
v 0.033333 0.125000 -0.200167
v 0.033333 -0.125000 0.266500
v -0.033333 -0.125000 0.266500
v -0.033333 -0.125000 0.199833
v -0.100000 -0.125000 0.199833
v -0.100000 -0.125000 -0.200167
v -0.033333 -0.125000 -0.200167
v -0.033333 -0.125000 0.133167
v 0.033333 -0.125000 0.133167
v 0.033333 -0.125000 -0.200167
v 0.100000 -0.125000 -0.200167
v 0.100000 -0.125000 0.199833
v 0.033333 -0.125000 0.199833
v 0.033333 -0.125000 -0.266833
v -0.033333 -0.125000 -0.266833
v -0.033333 -0.125000 -0.200167
v 0.033333 -0.125000 -0.200167
v 0.033333 -0.125000 0.266500
v 0.033333 0.125000 0.266500
v -0.033333 -0.125000 0.266500
v -0.033333 0.125000 0.266500
v -0.033333 -0.125000 0.199833
v -0.033333 0.125000 0.199833
v -0.100000 -0.125000 0.199833
v -0.100000 0.125000 0.199833
v -0.100000 -0.125000 -0.200167
v -0.100000 0.125000 -0.200167
v -0.033333 -0.125000 -0.200167
v -0.033333 0.125000 -0.200167
v -0.033333 -0.125000 0.133167
v -0.033333 0.125000 0.133167
v 0.033333 -0.125000 0.133167
v 0.033333 0.125000 0.133167
v 0.033333 -0.125000 -0.200167
v 0.033333 0.125000 -0.200167
v 0.100000 -0.125000 -0.200167
v 0.100000 0.125000 -0.200167
v 0.100000 -0.125000 0.199833
v 0.100000 0.125000 0.199833
v 0.033333 -0.125000 0.199833
v 0.033333 0.125000 0.199833
v 0.033333 -0.125000 -0.266833
v 0.033333 0.125000 -0.266833
v -0.033333 -0.125000 -0.266833
v -0.033333 0.125000 -0.266833
v -0.033333 -0.125000 -0.200167
v -0.033333 0.125000 -0.200167
v 0.033333 -0.125000 -0.200167
v 0.033333 0.125000 -0.200167
vn -0.0000 1.0000 -0.0000
vn -0.0000 -1.0000 -0.0000
vn 0.7071 -0.0000 0.7071
vn -0.7071 -0.0000 0.7071
vn -0.7071 -0.0000 -0.7071
vn 0.7071 -0.0000 -0.7071
vt 0.933333 0.000000
vt 0.800000 0.000000
vt 0.866667 0.000000
vt 1.000000 0.000000
vt 0.200000 0.000000
vt 0.333333 0.000000
vt 0.266667 0.000000
vt 0.400000 0.000000
vt 0.466667 0.000000
vt 0.600000 0.000000
vt 0.533333 0.000000
vt 0.666667 0.000000
vt 0.133333 0.000000
vt 0.066667 0.000000
vt 0.733333 0.000000
vt 0.000000 0.000000
vt 0.000000 1.000000
vt 0.083333 1.000000
vt 0.083333 0.000000
vt 0.166667 1.000000
vt 0.166667 0.000000
vt 0.250000 1.000000
vt 0.250000 0.000000
vt 0.333333 1.000000
vt 0.416667 1.000000
vt 0.416667 0.000000
vt 0.500000 1.000000
vt 0.500000 0.000000
vt 0.583333 1.000000
vt 0.583333 0.000000
vt 0.666667 1.000000
vt 0.750000 1.000000
vt 0.750000 0.000000
vt 0.833333 1.000000
vt 0.833333 0.000000
vt 0.916667 1.000000
vt 0.916667 0.000000
vt 1.000000 1.000000
s 0
f 71/43/7 69/44/7 70/45/7
f 71/43/7 72/46/7 69/44/7
f 60/47/7 62/48/7 61/49/7
f 60/47/7 63/50/7 62/48/7
f 64/51/7 66/52/7 65/53/7
f 64/51/7 67/54/7 66/52/7
f 60/47/7 64/51/7 63/50/7
f 60/47/7 67/54/7 64/51/7
f 59/55/7 67/54/7 60/47/7
f 58/56/7 68/57/7 59/55/7
f 68/57/7 67/54/7 59/55/7
f 58/56/7 57/58/7 68/57/7
f 87/43/8 86/45/8 85/44/8
f 87/43/8 85/44/8 88/46/8
f 76/47/8 77/49/8 78/48/8
f 76/47/8 78/48/8 79/50/8
f 80/51/8 81/53/8 82/52/8
f 80/51/8 82/52/8 83/54/8
f 76/47/8 79/50/8 80/51/8
f 76/47/8 80/51/8 83/54/8
f 75/55/8 76/47/8 83/54/8
f 74/56/8 75/55/8 84/57/8
f 84/57/7 75/55/7 83/54/7
f 74/56/8 84/57/8 73/58/8
s 1
f 90/59/9 92/60/10 91/61/10 89/58/9
f 92/60/10 94/62/10 93/63/10 91/61/10
f 94/62/10 96/64/10 95/65/10 93/63/10
f 96/64/10 98/66/11 97/48/11 95/65/10
f 98/66/11 100/67/12 99/68/12 97/48/11
f 100/67/12 102/69/12 101/70/12 99/68/12
f 102/69/12 104/71/11 103/72/11 101/70/12
f 104/71/11 106/73/11 105/54/11 103/72/11
f 106/73/11 108/74/12 107/75/12 105/54/11
f 108/74/12 110/76/9 109/77/9 107/75/12
f 110/76/9 112/78/9 111/79/9 109/77/9
f 112/78/9 90/80/9 89/46/9 111/79/9
f 114/59/10 116/64/9 115/65/9 113/58/10
f 116/64/9 118/69/12 117/70/12 115/65/9
f 118/69/12 120/74/11 119/75/11 117/70/12
f 120/74/11 114/80/10 113/46/10 119/75/11
o Text.002
v 0.299833 0.125000 0.266500
v 0.233167 0.125000 0.266500
v 0.233167 0.125000 0.199833
v 0.166500 0.125000 0.199833
v 0.166500 0.125000 -0.200167
v 0.233167 0.125000 -0.200167
v 0.233167 0.125000 0.133167
v 0.299833 0.125000 0.133167
v 0.299833 0.125000 -0.200167
v 0.366500 0.125000 -0.200167
v 0.366500 0.125000 0.199833
v 0.299833 0.125000 0.199833
v 0.299833 0.125000 -0.266833
v 0.233167 0.125000 -0.266833
v 0.233167 0.125000 -0.200167
v 0.299833 0.125000 -0.200167
v 0.299833 -0.125000 0.266500
v 0.233167 -0.125000 0.266500
v 0.233167 -0.125000 0.199833
v 0.166500 -0.125000 0.199833
v 0.166500 -0.125000 -0.200167
v 0.233167 -0.125000 -0.200167
v 0.233167 -0.125000 0.133167
v 0.299833 -0.125000 0.133167
v 0.299833 -0.125000 -0.200167
v 0.366500 -0.125000 -0.200167
v 0.366500 -0.125000 0.199833
v 0.299833 -0.125000 0.199833
v 0.299833 -0.125000 -0.266833
v 0.233167 -0.125000 -0.266833
v 0.233167 -0.125000 -0.200167
v 0.299833 -0.125000 -0.200167
v 0.299833 -0.125000 0.266500
v 0.299833 0.125000 0.266500
v 0.233167 -0.125000 0.266500
v 0.233167 0.125000 0.266500
v 0.233167 -0.125000 0.199833
v 0.233167 0.125000 0.199833
v 0.166500 -0.125000 0.199833
v 0.166500 0.125000 0.199833
v 0.166500 -0.125000 -0.200167
v 0.166500 0.125000 -0.200167
v 0.233167 -0.125000 -0.200167
v 0.233167 0.125000 -0.200167
v 0.233167 -0.125000 0.133167
v 0.233167 0.125000 0.133167
v 0.299833 -0.125000 0.133167
v 0.299833 0.125000 0.133167
v 0.299833 -0.125000 -0.200167
v 0.299833 0.125000 -0.200167
v 0.366500 -0.125000 -0.200167
v 0.366500 0.125000 -0.200167
v 0.366500 -0.125000 0.199833
v 0.366500 0.125000 0.199833
v 0.299833 -0.125000 0.199833
v 0.299833 0.125000 0.199833
v 0.299833 -0.125000 -0.266833
v 0.299833 0.125000 -0.266833
v 0.233167 -0.125000 -0.266833
v 0.233167 0.125000 -0.266833
v 0.233167 -0.125000 -0.200167
v 0.233167 0.125000 -0.200167
v 0.299833 -0.125000 -0.200167
v 0.299833 0.125000 -0.200167
vn -0.0000 1.0000 -0.0000
vn -0.0000 -1.0000 -0.0000
vn 0.7071 -0.0000 0.7071
vn -0.7071 -0.0000 0.7071
vn -0.7071 -0.0000 -0.7071
vn 0.7071 -0.0000 -0.7071
vt 0.933333 0.000000
vt 0.800000 0.000000
vt 0.866667 0.000000
vt 1.000000 0.000000
vt 0.200000 0.000000
vt 0.333333 0.000000
vt 0.266667 0.000000
vt 0.400000 0.000000
vt 0.466667 0.000000
vt 0.600000 0.000000
vt 0.533333 0.000000
vt 0.666667 0.000000
vt 0.133333 0.000000
vt 0.066667 0.000000
vt 0.733333 0.000000
vt 0.000000 0.000000
vt 0.000000 1.000000
vt 0.083333 1.000000
vt 0.083333 0.000000
vt 0.166667 1.000000
vt 0.166667 0.000000
vt 0.250000 1.000000
vt 0.250000 0.000000
vt 0.333333 1.000000
vt 0.416667 1.000000
vt 0.416667 0.000000
vt 0.500000 1.000000
vt 0.500000 0.000000
vt 0.583333 1.000000
vt 0.583333 0.000000
vt 0.666667 1.000000
vt 0.750000 1.000000
vt 0.750000 0.000000
vt 0.833333 1.000000
vt 0.833333 0.000000
vt 0.916667 1.000000
vt 0.916667 0.000000
vt 1.000000 1.000000
s 0
f 135/81/13 133/82/13 134/83/13
f 135/81/13 136/84/13 133/82/13
f 124/85/13 126/86/13 125/87/13
f 124/85/13 127/88/13 126/86/13
f 128/89/13 130/90/13 129/91/13
f 128/89/13 131/92/13 130/90/13
f 124/85/13 128/89/13 127/88/13
f 124/85/13 131/92/13 128/89/13
f 123/93/13 131/92/13 124/85/13
f 122/94/13 132/95/13 123/93/13
f 132/95/13 131/92/13 123/93/13
f 122/94/13 121/96/13 132/95/13
f 151/81/14 150/83/14 149/82/14
f 151/81/14 149/82/14 152/84/14
f 140/85/14 141/87/14 142/86/14
f 140/85/14 142/86/14 143/88/14
f 144/89/14 145/91/14 146/90/14
f 144/89/14 146/90/14 147/92/14
f 140/85/14 143/88/14 144/89/14
f 140/85/14 144/89/14 147/92/14
f 139/93/14 140/85/14 147/92/14
f 138/94/14 139/93/14 148/95/14
f 148/95/13 139/93/13 147/92/13
f 138/94/14 148/95/14 137/96/14
s 1
f 154/97/15 156/98/16 155/99/16 153/96/15
f 156/98/16 158/100/16 157/101/16 155/99/16
f 158/100/16 160/102/16 159/103/16 157/101/16
f 160/102/16 162/104/17 161/86/17 159/103/16
f 162/104/17 164/105/18 163/106/18 161/86/17
f 164/105/18 166/107/18 165/108/18 163/106/18
f 166/107/18 168/109/17 167/110/17 165/108/18
f 168/109/17 170/111/17 169/92/17 167/110/17
f 170/111/17 172/112/18 171/113/18 169/92/17
f 172/112/18 174/114/15 173/115/15 171/113/18
f 174/114/15 176/116/15 175/117/15 173/115/15
f 176/116/15 154/118/15 153/84/15 175/117/15
f 178/97/16 180/102/15 179/103/15 177/96/16
f 180/102/15 182/107/18 181/108/18 179/103/15
f 182/107/18 184/112/17 183/113/17 181/108/18
f 184/112/17 178/118/16 177/84/16 183/113/17
o Text.003
v 0.576333 0.125000 0.266500
v 0.509667 0.125000 0.266500
v 0.509667 0.125000 0.199833
v 0.443000 0.125000 0.199833
v 0.443000 0.125000 -0.200167
v 0.509667 0.125000 -0.200167
v 0.509667 0.125000 0.133167
v 0.576333 0.125000 0.133167
v 0.576333 0.125000 -0.200167
v 0.643000 0.125000 -0.200167
v 0.643000 0.125000 0.199833
v 0.576333 0.125000 0.199833
v 0.576333 0.125000 -0.266833
v 0.509667 0.125000 -0.266833
v 0.509667 0.125000 -0.200167
v 0.576333 0.125000 -0.200167
v 0.576333 -0.125000 0.266500
v 0.509667 -0.125000 0.266500
v 0.509667 -0.125000 0.199833
v 0.443000 -0.125000 0.199833
v 0.443000 -0.125000 -0.200167
v 0.509667 -0.125000 -0.200167
v 0.509667 -0.125000 0.133167
v 0.576333 -0.125000 0.133167
v 0.576333 -0.125000 -0.200167
v 0.643000 -0.125000 -0.200167
v 0.643000 -0.125000 0.199833
v 0.576333 -0.125000 0.199833
v 0.576333 -0.125000 -0.266833
v 0.509667 -0.125000 -0.266833
v 0.509667 -0.125000 -0.200167
v 0.576333 -0.125000 -0.200167
v 0.576333 -0.125000 0.266500
v 0.576333 0.125000 0.266500
v 0.509667 -0.125000 0.266500
v 0.509667 0.125000 0.266500
v 0.509667 -0.125000 0.199833
v 0.509667 0.125000 0.199833
v 0.443000 -0.125000 0.199833
v 0.443000 0.125000 0.199833
v 0.443000 -0.125000 -0.200167
v 0.443000 0.125000 -0.200167
v 0.509667 -0.125000 -0.200167
v 0.509667 0.125000 -0.200167
v 0.509667 -0.125000 0.133167
v 0.509667 0.125000 0.133167
v 0.576333 -0.125000 0.133167
v 0.576333 0.125000 0.133167
v 0.576333 -0.125000 -0.200167
v 0.576333 0.125000 -0.200167
v 0.643000 -0.125000 -0.200167
v 0.643000 0.125000 -0.200167
v 0.643000 -0.125000 0.199833
v 0.643000 0.125000 0.199833
v 0.576333 -0.125000 0.199833
v 0.576333 0.125000 0.199833
v 0.576333 -0.125000 -0.266833
v 0.576333 0.125000 -0.266833
v 0.509667 -0.125000 -0.266833
v 0.509667 0.125000 -0.266833
v 0.509667 -0.125000 -0.200167
v 0.509667 0.125000 -0.200167
v 0.576333 -0.125000 -0.200167
v 0.576333 0.125000 -0.200167
vn -0.0000 1.0000 -0.0000
vn -0.0000 -1.0000 -0.0000
vn 0.7071 -0.0000 0.7071
vn -0.7071 -0.0000 0.7071
vn -0.7071 -0.0000 -0.7071
vn 0.7071 -0.0000 -0.7071
vt 0.933333 0.000000
vt 0.800000 0.000000
vt 0.866667 0.000000
vt 1.000000 0.000000
vt 0.200000 0.000000
vt 0.333333 0.000000
vt 0.266667 0.000000
vt 0.400000 0.000000
vt 0.466667 0.000000
vt 0.600000 0.000000
vt 0.533333 0.000000
vt 0.666667 0.000000
vt 0.133333 0.000000
vt 0.066667 0.000000
vt 0.733333 0.000000
vt 0.000000 0.000000
vt 0.000000 1.000000
vt 0.083333 1.000000
vt 0.083333 0.000000
vt 0.166667 1.000000
vt 0.166667 0.000000
vt 0.250000 1.000000
vt 0.250000 0.000000
vt 0.333333 1.000000
vt 0.416667 1.000000
vt 0.416667 0.000000
vt 0.500000 1.000000
vt 0.500000 0.000000
vt 0.583333 1.000000
vt 0.583333 0.000000
vt 0.666667 1.000000
vt 0.750000 1.000000
vt 0.750000 0.000000
vt 0.833333 1.000000
vt 0.833333 0.000000
vt 0.916667 1.000000
vt 0.916667 0.000000
vt 1.000000 1.000000
s 0
f 199/119/19 197/120/19 198/121/19
f 199/119/19 200/122/19 197/120/19
f 188/123/19 190/124/19 189/125/19
f 188/123/19 191/126/19 190/124/19
f 192/127/19 194/128/19 193/129/19
f 192/127/19 195/130/19 194/128/19
f 188/123/19 192/127/19 191/126/19
f 188/123/19 195/130/19 192/127/19
f 187/131/19 195/130/19 188/123/19
f 186/132/19 196/133/19 187/131/19
f 196/133/19 195/130/19 187/131/19
f 186/132/19 185/134/19 196/133/19
f 215/119/20 214/121/20 213/120/20
f 215/119/20 213/120/20 216/122/20
f 204/123/20 205/125/20 206/124/20
f 204/123/20 206/124/20 207/126/20
f 208/127/20 209/129/20 210/128/20
f 208/127/20 210/128/20 211/130/20
f 204/123/20 207/126/20 208/127/20
f 204/123/20 208/127/20 211/130/20
f 203/131/20 204/123/20 211/130/20
f 202/132/20 203/131/20 212/133/20
f 212/133/19 203/131/19 211/130/19
f 202/132/20 212/133/20 201/134/20
s 1
f 218/135/21 220/136/22 219/137/22 217/134/21
f 220/136/22 222/138/22 221/139/22 219/137/22
f 222/138/22 224/140/22 223/141/22 221/139/22
f 224/140/22 226/142/23 225/124/23 223/141/22
f 226/142/23 228/143/24 227/144/24 225/124/23
f 228/143/24 230/145/24 229/146/24 227/144/24
f 230/145/24 232/147/23 231/148/23 229/146/24
f 232/147/23 234/149/23 233/130/23 231/148/23
f 234/149/23 236/150/24 235/151/24 233/130/23
f 236/150/24 238/152/21 237/153/21 235/151/24
f 238/152/21 240/154/21 239/155/21 237/153/21
f 240/154/21 218/156/21 217/122/21 239/155/21
f 242/135/22 244/140/21 243/141/21 241/134/22
f 244/140/21 246/145/24 245/146/24 243/141/21
f 246/145/24 248/150/23 247/151/23 245/146/24
f 248/150/23 242/156/22 241/122/22 247/151/23
