# Blender 4.4.0
# www.blender.org
mtllib score.mtl
usemtl score
o Text
v -0.233333 0.125000 0.266500
v -0.366667 0.125000 0.266500
v -0.366667 0.125000 0.199833
v -0.433333 0.125000 0.199833
v -0.433333 0.125000 -0.200167
v -0.366667 0.125000 -0.200167
v -0.366667 0.125000 -0.066833
v -0.233333 0.125000 -0.066833
v -0.233333 0.125000 -0.000167
v -0.366667 0.125000 -0.000167
v -0.366667 0.125000 0.133167
v -0.233333 0.125000 0.133167
v -0.233333 0.125000 -0.000167
v -0.166667 0.125000 -0.000167
v -0.166667 0.125000 0.199833
v -0.233333 0.125000 0.199833
v -0.166667 0.125000 -0.133500
v -0.233333 0.125000 -0.133500
v -0.233333 0.125000 -0.200167
v -0.166667 0.125000 -0.200167
v -0.233333 0.125000 -0.200167
v -0.366667 0.125000 -0.200167
v -0.366667 0.125000 -0.266833
v -0.233333 0.125000 -0.266833
v -0.233333 -0.125000 0.266500
v -0.366667 -0.125000 0.266500
v -0.366667 -0.125000 0.199833
v -0.433333 -0.125000 0.199833
v -0.433333 -0.125000 -0.200167
v -0.366667 -0.125000 -0.200167
v -0.366667 -0.125000 -0.066833
v -0.233333 -0.125000 -0.066833
v -0.233333 -0.125000 -0.000167
v -0.366667 -0.125000 -0.000167
v -0.366667 -0.125000 0.133167
v -0.233333 -0.125000 0.133167
v -0.233333 -0.125000 -0.000167
v -0.166667 -0.125000 -0.000167
v -0.166667 -0.125000 0.199833
v -0.233333 -0.125000 0.199833
v -0.166667 -0.125000 -0.133500
v -0.233333 -0.125000 -0.133500
v -0.233333 -0.125000 -0.200167
v -0.166667 -0.125000 -0.200167
v -0.233333 -0.125000 -0.200167
v -0.366667 -0.125000 -0.200167
v -0.366667 -0.125000 -0.266833
v -0.233333 -0.125000 -0.266833
v -0.233333 -0.125000 0.266500
v -0.233333 0.125000 0.266500
v -0.366667 -0.125000 0.266500
v -0.366667 0.125000 0.266500
v -0.366667 -0.125000 0.199833
v -0.366667 0.125000 0.199833
v -0.433333 -0.125000 0.199833
v -0.433333 0.125000 0.199833
v -0.433333 -0.125000 -0.200167
v -0.433333 0.125000 -0.200167
v -0.366667 -0.125000 -0.200167
v -0.366667 0.125000 -0.200167
v -0.366667 -0.125000 -0.066833
v -0.366667 0.125000 -0.066833
v -0.233333 -0.125000 -0.066833
v -0.233333 0.125000 -0.066833
v -0.233333 -0.125000 -0.000167
v -0.233333 0.125000 -0.000167
v -0.366667 -0.125000 -0.000167
v -0.366667 0.125000 -0.000167
v -0.366667 -0.125000 0.133167
v -0.366667 0.125000 0.133167
v -0.233333 -0.125000 0.133167
v -0.233333 0.125000 0.133167
v -0.233333 -0.125000 -0.000167
v -0.233333 0.125000 -0.000167
v -0.166667 -0.125000 -0.000167
v -0.166667 0.125000 -0.000167
v -0.166667 -0.125000 0.199833
v -0.166667 0.125000 0.199833
v -0.233333 -0.125000 0.199833
v -0.233333 0.125000 0.199833
v -0.166667 -0.125000 -0.133500
v -0.166667 0.125000 -0.133500
v -0.233333 -0.125000 -0.133500
v -0.233333 0.125000 -0.133500
v -0.233333 -0.125000 -0.200167
v -0.233333 0.125000 -0.200167
v -0.166667 -0.125000 -0.200167
v -0.166667 0.125000 -0.200167
v -0.233333 -0.125000 -0.200167
v -0.233333 0.125000 -0.200167
v -0.366667 -0.125000 -0.200167
v -0.366667 0.125000 -0.200167
v -0.366667 -0.125000 -0.266833
v -0.366667 0.125000 -0.266833
v -0.233333 -0.125000 -0.266833
v -0.233333 0.125000 -0.266833
vn -0.0000 1.0000 -0.0000
vn -0.0000 -1.0000 -0.0000
vn 0.7071 -0.0000 0.7071
vn -0.7071 -0.0000 0.7071
vn -0.7071 -0.0000 -0.7071
vn 0.7071 -0.0000 -0.7071
vt 0.913043 0.000000
vt 1.000000 0.000000
vt 0.956522 0.000000
vt 0.869565 0.000000
vt 0.130435 0.000000
vt 0.217391 0.000000
vt 0.173913 0.000000
vt 0.260870 0.000000
vt 0.739130 0.000000
vt 0.826087 0.000000
vt 0.782609 0.000000
vt 0.695652 0.000000
vt 0.391304 0.000000
vt 0.304348 0.000000
vt 0.347826 0.000000
vt 0.434783 0.000000
vt 0.478261 0.000000
vt 0.565217 0.000000
vt 0.521739 0.000000
vt 0.608696 0.000000
vt 0.086957 0.000000
vt 0.043478 0.000000
vt 0.652174 0.000000
vt 0.000000 0.000000
vt 0.000000 1.000000
vt 0.062500 1.000000
vt 0.062500 0.000000
vt 0.125000 1.000000
vt 0.125000 0.000000
vt 0.187500 1.000000
vt 0.187500 0.000000
vt 0.250000 1.000000
vt 0.250000 0.000000
vt 0.312500 1.000000
vt 0.312500 0.000000
vt 0.375000 1.000000
vt 0.375000 0.000000
vt 0.437500 1.000000
vt 0.437500 0.000000
vt 0.500000 1.000000
vt 0.500000 0.000000
vt 0.562500 1.000000
vt 0.562500 0.000000
vt 0.625000 1.000000
vt 0.625000 0.000000
vt 0.687500 1.000000
vt 0.687500 0.000000
vt 0.750000 1.000000
vt 0.750000 0.000000
vt 0.812500 1.000000
vt 0.812500 0.000000
vt 0.875000 1.000000
vt 0.875000 0.000000
vt 0.937500 1.000000
vt 0.937500 0.000000
vt 1.000000 1.000000
s 0
f 22/1/1 24/2/1 23/3/1
f 22/1/1 21/4/1 24/2/1
f 4/5/1 6/6/1 5/7/1
f 4/5/1 7/8/1 6/6/1
f 18/9/1 20/10/1 19/11/1
f 18/9/1 17/12/1 20/10/1
f 4/5/1 10/13/1 7/8/1
f 10/13/1 8/14/1 7/8/1
f 10/13/1 9/15/1 8/14/1
f 4/5/1 11/16/1 10/13/1
f 12/17/1 14/18/1 13/19/1
f 12/17/1 15/20/1 14/18/1
f 4/5/1 12/17/1 11/16/1
f 4/5/1 15/20/1 12/17/1
f 3/21/1 15/20/1 4/5/1
f 2/22/1 16/23/1 3/21/1
f 16/23/1 15/20/1 3/21/1
f 2/22/1 1/24/1 16/23/1
f 46/1/2 47/3/2 48/2/2
f 46/1/2 48/2/2 45/4/2
f 28/5/2 29/7/2 30/6/2
f 28/5/2 30/6/2 31/8/2
f 42/9/2 43/11/2 44/10/2
f 42/9/2 44/10/2 41/12/2
f 28/5/2 31/8/2 34/13/2
f 34/13/2 31/8/2 32/14/2
f 34/13/2 32/14/2 33/15/2
f 28/5/2 34/13/2 35/16/2
f 36/17/2 37/19/2 38/18/2
f 36/17/2 38/18/2 39/20/2
f 28/5/2 35/16/2 36/17/2
f 28/5/2 36/17/2 39/20/2
f 27/21/1 28/5/1 39/20/1
f 26/22/2 27/21/2 40/23/2
f 40/23/1 27/21/1 39/20/1
f 26/22/2 40/23/2 25/24/2
s 1
f 50/25/3 52/26/4 51/27/4 49/24/3
f 52/26/4 54/28/4 53/29/4 51/27/4
f 54/28/4 56/30/4 55/31/4 53/29/4
f 56/30/4 58/32/5 57/33/5 55/31/4
f 58/32/5 60/34/6 59/35/6 57/33/5
f 60/34/6 62/36/6 61/37/6 59/35/6
f 62/36/6 64/38/6 63/39/6 61/37/6
f 64/38/6 66/40/3 65/41/3 63/39/6
f 66/40/3 68/42/3 67/43/3 65/41/3
f 68/42/3 70/44/6 69/45/6 67/43/3
f 70/44/6 72/46/5 71/47/5 69/45/6
f 72/46/5 74/48/5 73/49/5 71/47/5
f 74/48/5 76/50/6 75/51/6 73/49/5
f 76/50/6 78/52/3 77/53/3 75/51/6
f 78/52/3 80/54/3 79/55/3 77/53/3
f 80/54/3 50/56/3 49/2/3 79/55/3
f 82/25/3 84/32/4 83/33/4 81/24/3
f 84/32/4 86/40/5 85/41/5 83/33/4
f 86/40/5 88/48/6 87/49/6 85/41/5
f 88/48/6 82/56/3 81/2/3 87/49/6
f 90/25/3 92/32/4 91/33/4 89/24/3
f 92/32/4 94/40/5 93/41/5 91/33/4
f 94/40/5 96/48/6 95/49/6 93/41/5
f 96/48/6 90/56/3 89/2/3 95/49/6
o Text.001
v 0.033333 0.125000 0.266500
v -0.033333 0.125000 0.266500
v -0.033333 0.125000 0.199833
v -0.100000 0.125000 0.199833
v -0.100000 0.125000 -0.200167
v -0.033333 0.125000 -0.200167
v -0.033333 0.125000 0.133167
v 0.033333 0.125000 0.133167
v 0.033333 0.125000 -0.200167
v 0.100000 0.125000 -0.200167
v 0.100000 0.125000 0.199833
v 0.033333 0.125000 0.199833
v 0.033333 0.125000 -0.266833
v -0.033333 0.125000 -0.266833
v -0.033333 0.125000 -0.200167
v 0.033333 0.125000 -0.200167
v 0.033333 -0.125000 0.266500
v -0.033333 -0.125000 0.266500
v -0.033333 -0.125000 0.199833
v -0.100000 -0.125000 0.199833
v -0.100000 -0.125000 -0.200167
v -0.033333 -0.125000 -0.200167
v -0.033333 -0.125000 0.133167
v 0.033333 -0.125000 0.133167
v 0.033333 -0.125000 -0.200167
v 0.100000 -0.125000 -0.200167
v 0.100000 -0.125000 0.199833
v 0.033333 -0.125000 0.199833
v 0.033333 -0.125000 -0.266833
v -0.033333 -0.125000 -0.266833
v -0.033333 -0.125000 -0.200167
v 0.033333 -0.125000 -0.200167
v 0.033333 -0.125000 0.266500
v 0.033333 0.125000 0.266500
v -0.033333 -0.125000 0.266500
v -0.033333 0.125000 0.266500
v -0.033333 -0.125000 0.199833
v -0.033333 0.125000 0.199833
v -0.100000 -0.125000 0.199833
v -0.100000 0.125000 0.199833
v -0.100000 -0.125000 -0.200167
v -0.100000 0.125000 -0.200167
v -0.033333 -0.125000 -0.200167
v -0.033333 0.125000 -0.200167
v -0.033333 -0.125000 0.133167
v -0.033333 0.125000 0.133167
v 0.033333 -0.125000 0.133167
v 0.033333 0.125000 0.133167
v 0.033333 -0.125000 -0.200167
v 0.033333 0.125000 -0.200167
v 0.100000 -0.125000 -0.200167
v 0.100000 0.125000 -0.200167
v 0.100000 -0.125000 0.199833
v 0.100000 0.125000 0.199833
v 0.033333 -0.125000 0.199833
v 0.033333 0.125000 0.199833
v 0.033333 -0.125000 -0.266833
v 0.033333 0.125000 -0.266833
v -0.033333 -0.125000 -0.266833
v -0.033333 0.125000 -0.266833
v -0.033333 -0.125000 -0.200167
v -0.033333 0.125000 -0.200167
v 0.033333 -0.125000 -0.200167
v 0.033333 0.125000 -0.200167
vn -0.0000 1.0000 -0.0000
vn -0.0000 -1.0000 -0.0000
vn 0.7071 -0.0000 0.7071
vn -0.7071 -0.0000 0.7071
vn -0.7071 -0.0000 -0.7071
vn 0.7071 -0.0000 -0.7071
vt 0.933333 0.000000
vt 0.800000 0.000000
vt 0.866667 0.000000
vt 1.000000 0.000000
vt 0.200000 0.000000
vt 0.333333 0.000000
vt 0.266667 0.000000
vt 0.400000 0.000000
vt 0.466667 0.000000
vt 0.600000 0.000000
vt 0.533333 0.000000
vt 0.666667 0.000000
vt 0.133333 0.000000
vt 0.066667 0.000000
vt 0.733333 0.000000
vt 0.000000 0.000000
vt 0.000000 1.000000
vt 0.083333 1.000000
vt 0.083333 0.000000
vt 0.166667 1.000000
vt 0.166667 0.000000
vt 0.250000 1.000000
vt 0.250000 0.000000
vt 0.333333 1.000000
vt 0.416667 1.000000
vt 0.416667 0.000000
vt 0.500000 1.000000
vt 0.500000 0.000000
vt 0.583333 1.000000
vt 0.583333 0.000000
vt 0.666667 1.000000
vt 0.750000 1.000000
vt 0.750000 0.000000
vt 0.833333 1.000000
vt 0.833333 0.000000
vt 0.916667 1.000000
vt 0.916667 0.000000
vt 1.000000 1.000000
s 0
f 111/57/7 109/58/7 110/59/7
f 111/57/7 112/60/7 109/58/7
f 100/61/7 102/62/7 101/63/7
f 100/61/7 103/64/7 102/62/7
f 104/65/7 106/66/7 105/67/7
f 104/65/7 107/68/7 106/66/7
f 100/61/7 104/65/7 103/64/7
f 100/61/7 107/68/7 104/65/7
f 99/69/7 107/68/7 100/61/7
f 98/70/7 108/71/7 99/69/7
f 108/71/7 107/68/7 99/69/7
f 98/70/7 97/72/7 108/71/7
f 127/57/8 126/59/8 125/58/8
f 127/57/8 125/58/8 128/60/8
f 116/61/8 117/63/8 118/62/8
f 116/61/8 118/62/8 119/64/8
f 120/65/8 121/67/8 122/66/8
f 120/65/8 122/66/8 123/68/8
f 116/61/8 119/64/8 120/65/8
f 116/61/8 120/65/8 123/68/8
f 115/69/8 116/61/8 123/68/8
f 114/70/8 115/69/8 124/71/8
f 124/71/7 115/69/7 123/68/7
f 114/70/8 124/71/8 113/72/8
s 1
f 130/73/9 132/74/10 131/75/10 129/72/9
f 132/74/10 134/76/10 133/77/10 131/75/10
f 134/76/10 136/78/10 135/79/10 133/77/10
f 136/78/10 138/80/11 137/62/11 135/79/10
f 138/80/11 140/81/12 139/82/12 137/62/11
f 140/81/12 142/83/12 141/84/12 139/82/12
f 142/83/12 144/85/11 143/86/11 141/84/12
f 144/85/11 146/87/11 145/68/11 143/86/11
f 146/87/11 148/88/12 147/89/12 145/68/11
f 148/88/12 150/90/9 149/91/9 147/89/12
f 150/90/9 152/92/9 151/93/9 149/91/9
f 152/92/9 130/94/9 129/60/9 151/93/9
f 154/73/10 156/78/9 155/79/9 153/72/10
f 156/78/9 158/83/12 157/84/12 155/79/9
f 158/83/12 160/88/11 159/89/11 157/84/12
f 160/88/11 154/94/10 153/60/10 159/89/11
o Text.002
v 0.299833 0.125000 0.266500
v 0.233167 0.125000 0.266500
v 0.233167 0.125000 0.199833
v 0.166500 0.125000 0.199833
v 0.166500 0.125000 -0.200167
v 0.233167 0.125000 -0.200167
v 0.233167 0.125000 0.133167
v 0.299833 0.125000 0.133167
v 0.299833 0.125000 -0.200167
v 0.366500 0.125000 -0.200167
v 0.366500 0.125000 0.199833
v 0.299833 0.125000 0.199833
v 0.299833 0.125000 -0.266833
v 0.233167 0.125000 -0.266833
v 0.233167 0.125000 -0.200167
v 0.299833 0.125000 -0.200167
v 0.299833 -0.125000 0.266500
v 0.233167 -0.125000 0.266500
v 0.233167 -0.125000 0.199833
v 0.166500 -0.125000 0.199833
v 0.166500 -0.125000 -0.200167
v 0.233167 -0.125000 -0.200167
v 0.233167 -0.125000 0.133167
v 0.299833 -0.125000 0.133167
v 0.299833 -0.125000 -0.200167
v 0.366500 -0.125000 -0.200167
v 0.366500 -0.125000 0.199833
v 0.299833 -0.125000 0.199833
v 0.299833 -0.125000 -0.266833
v 0.233167 -0.125000 -0.266833
v 0.233167 -0.125000 -0.200167
v 0.299833 -0.125000 -0.200167
v 0.299833 -0.125000 0.266500
v 0.299833 0.125000 0.266500
v 0.233167 -0.125000 0.266500
v 0.233167 0.125000 0.266500
v 0.233167 -0.125000 0.199833
v 0.233167 0.125000 0.199833
v 0.166500 -0.125000 0.199833
v 0.166500 0.125000 0.199833
v 0.166500 -0.125000 -0.200167
v 0.166500 0.125000 -0.200167
v 0.233167 -0.125000 -0.200167
v 0.233167 0.125000 -0.200167
v 0.233167 -0.125000 0.133167
v 0.233167 0.125000 0.133167
v 0.299833 -0.125000 0.133167
v 0.299833 0.125000 0.133167
v 0.299833 -0.125000 -0.200167
v 0.299833 0.125000 -0.200167
v 0.366500 -0.125000 -0.200167
v 0.366500 0.125000 -0.200167
v 0.366500 -0.125000 0.199833
v 0.366500 0.125000 0.199833
v 0.299833 -0.125000 0.199833
v 0.299833 0.125000 0.199833
v 0.299833 -0.125000 -0.266833
v 0.299833 0.125000 -0.266833
v 0.233167 -0.125000 -0.266833
v 0.233167 0.125000 -0.266833
v 0.233167 -0.125000 -0.200167
v 0.233167 0.125000 -0.200167
v 0.299833 -0.125000 -0.200167
v 0.299833 0.125000 -0.200167
vn -0.0000 1.0000 -0.0000
vn -0.0000 -1.0000 -0.0000
vn 0.7071 -0.0000 0.7071
vn -0.7071 -0.0000 0.7071
vn -0.7071 -0.0000 -0.7071
vn 0.7071 -0.0000 -0.7071
vt 0.933333 0.000000
vt 0.800000 0.000000
vt 0.866667 0.000000
vt 1.000000 0.000000
vt 0.200000 0.000000
vt 0.333333 0.000000
vt 0.266667 0.000000
vt 0.400000 0.000000
vt 0.466667 0.000000
vt 0.600000 0.000000
vt 0.533333 0.000000
vt 0.666667 0.000000
vt 0.133333 0.000000
vt 0.066667 0.000000
vt 0.733333 0.000000
vt 0.000000 0.000000
vt 0.000000 1.000000
vt 0.083333 1.000000
vt 0.083333 0.000000
vt 0.166667 1.000000
vt 0.166667 0.000000
vt 0.250000 1.000000
vt 0.250000 0.000000
vt 0.333333 1.000000
vt 0.416667 1.000000
vt 0.416667 0.000000
vt 0.500000 1.000000
vt 0.500000 0.000000
vt 0.583333 1.000000
vt 0.583333 0.000000
vt 0.666667 1.000000
vt 0.750000 1.000000
vt 0.750000 0.000000
vt 0.833333 1.000000
vt 0.833333 0.000000
vt 0.916667 1.000000
vt 0.916667 0.000000
vt 1.000000 1.000000
s 0
f 175/95/13 173/96/13 174/97/13
f 175/95/13 176/98/13 173/96/13
f 164/99/13 166/100/13 165/101/13
f 164/99/13 167/102/13 166/100/13
f 168/103/13 170/104/13 169/105/13
f 168/103/13 171/106/13 170/104/13
f 164/99/13 168/103/13 167/102/13
f 164/99/13 171/106/13 168/103/13
f 163/107/13 171/106/13 164/99/13
f 162/108/13 172/109/13 163/107/13
f 172/109/13 171/106/13 163/107/13
f 162/108/13 161/110/13 172/109/13
f 191/95/14 190/97/14 189/96/14
f 191/95/14 189/96/14 192/98/14
f 180/99/14 181/101/14 182/100/14
f 180/99/14 182/100/14 183/102/14
f 184/103/14 185/105/14 186/104/14
f 184/103/14 186/104/14 187/106/14
f 180/99/14 183/102/14 184/103/14
f 180/99/14 184/103/14 187/106/14
f 179/107/14 180/99/14 187/106/14
f 178/108/14 179/107/14 188/109/14
f 188/109/13 179/107/13 187/106/13
f 178/108/14 188/109/14 177/110/14
s 1
f 194/111/15 196/112/16 195/113/16 193/110/15
f 196/112/16 198/114/16 197/115/16 195/113/16
f 198/114/16 200/116/16 199/117/16 197/115/16
f 200/116/16 202/118/17 201/100/17 199/117/16
f 202/118/17 204/119/18 203/120/18 201/100/17
f 204/119/18 206/121/18 205/122/18 203/120/18
f 206/121/18 208/123/17 207/124/17 205/122/18
f 208/123/17 210/125/17 209/106/17 207/124/17
f 210/125/17 212/126/18 211/127/18 209/106/17
f 212/126/18 214/128/15 213/129/15 211/127/18
f 214/128/15 216/130/15 215/131/15 213/129/15
f 216/130/15 194/132/15 193/98/15 215/131/15
f 218/111/16 220/116/15 219/117/15 217/110/16
f 220/116/15 222/121/18 221/122/18 219/117/15
f 222/121/18 224/126/17 223/127/17 221/122/18
f 224/126/17 218/132/16 217/98/16 223/127/17
o Text.003
v 0.576333 0.125000 0.266500
v 0.509667 0.125000 0.266500
v 0.509667 0.125000 0.199833
v 0.443000 0.125000 0.199833
v 0.443000 0.125000 -0.200167
v 0.509667 0.125000 -0.200167
v 0.509667 0.125000 0.133167
v 0.576333 0.125000 0.133167
v 0.576333 0.125000 -0.200167
v 0.643000 0.125000 -0.200167
v 0.643000 0.125000 0.199833
v 0.576333 0.125000 0.199833
v 0.576333 0.125000 -0.266833
v 0.509667 0.125000 -0.266833
v 0.509667 0.125000 -0.200167
v 0.576333 0.125000 -0.200167
v 0.576333 -0.125000 0.266500
v 0.509667 -0.125000 0.266500
v 0.509667 -0.125000 0.199833
v 0.443000 -0.125000 0.199833
v 0.443000 -0.125000 -0.200167
v 0.509667 -0.125000 -0.200167
v 0.509667 -0.125000 0.133167
v 0.576333 -0.125000 0.133167
v 0.576333 -0.125000 -0.200167
v 0.643000 -0.125000 -0.200167
v 0.643000 -0.125000 0.199833
v 0.576333 -0.125000 0.199833
v 0.576333 -0.125000 -0.266833
v 0.509667 -0.125000 -0.266833
v 0.509667 -0.125000 -0.200167
v 0.576333 -0.125000 -0.200167
v 0.576333 -0.125000 0.266500
v 0.576333 0.125000 0.266500
v 0.509667 -0.125000 0.266500
v 0.509667 0.125000 0.266500
v 0.509667 -0.125000 0.199833
v 0.509667 0.125000 0.199833
v 0.443000 -0.125000 0.199833
v 0.443000 0.125000 0.199833
v 0.443000 -0.125000 -0.200167
v 0.443000 0.125000 -0.200167
v 0.509667 -0.125000 -0.200167
v 0.509667 0.125000 -0.200167
v 0.509667 -0.125000 0.133167
v 0.509667 0.125000 0.133167
v 0.576333 -0.125000 0.133167
v 0.576333 0.125000 0.133167
v 0.576333 -0.125000 -0.200167
v 0.576333 0.125000 -0.200167
v 0.643000 -0.125000 -0.200167
v 0.643000 0.125000 -0.200167
v 0.643000 -0.125000 0.199833
v 0.643000 0.125000 0.199833
v 0.576333 -0.125000 0.199833
v 0.576333 0.125000 0.199833
v 0.576333 -0.125000 -0.266833
v 0.576333 0.125000 -0.266833
v 0.509667 -0.125000 -0.266833
v 0.509667 0.125000 -0.266833
v 0.509667 -0.125000 -0.200167
v 0.509667 0.125000 -0.200167
v 0.576333 -0.125000 -0.200167
v 0.576333 0.125000 -0.200167
vn -0.0000 1.0000 -0.0000
vn -0.0000 -1.0000 -0.0000
vn 0.7071 -0.0000 0.7071
vn -0.7071 -0.0000 0.7071
vn -0.7071 -0.0000 -0.7071
vn 0.7071 -0.0000 -0.7071
vt 0.933333 0.000000
vt 0.800000 0.000000
vt 0.866667 0.000000
vt 1.000000 0.000000
vt 0.200000 0.000000
vt 0.333333 0.000000
vt 0.266667 0.000000
vt 0.400000 0.000000
vt 0.466667 0.000000
vt 0.600000 0.000000
vt 0.533333 0.000000
vt 0.666667 0.000000
vt 0.133333 0.000000
vt 0.066667 0.000000
vt 0.733333 0.000000
vt 0.000000 0.000000
vt 0.000000 1.000000
vt 0.083333 1.000000
vt 0.083333 0.000000
vt 0.166667 1.000000
vt 0.166667 0.000000
vt 0.250000 1.000000
vt 0.250000 0.000000
vt 0.333333 1.000000
vt 0.416667 1.000000
vt 0.416667 0.000000
vt 0.500000 1.000000
vt 0.500000 0.000000
vt 0.583333 1.000000
vt 0.583333 0.000000
vt 0.666667 1.000000
vt 0.750000 1.000000
vt 0.750000 0.000000
vt 0.833333 1.000000
vt 0.833333 0.000000
vt 0.916667 1.000000
vt 0.916667 0.000000
vt 1.000000 1.000000
s 0
f 239/133/19 237/134/19 238/135/19
f 239/133/19 240/136/19 237/134/19
f 228/137/19 230/138/19 229/139/19
f 228/137/19 231/140/19 230/138/19
f 232/141/19 234/142/19 233/143/19
f 232/141/19 235/144/19 234/142/19
f 228/137/19 232/141/19 231/140/19
f 228/137/19 235/144/19 232/141/19
f 227/145/19 235/144/19 228/137/19
f 226/146/19 236/147/19 227/145/19
f 236/147/19 235/144/19 227/145/19
f 226/146/19 225/148/19 236/147/19
f 255/133/20 254/135/20 253/134/20
f 255/133/20 253/134/20 256/136/20
f 244/137/20 245/139/20 246/138/20
f 244/137/20 246/138/20 247/140/20
f 248/141/20 249/143/20 250/142/20
f 248/141/20 250/142/20 251/144/20
f 244/137/20 247/140/20 248/141/20
f 244/137/20 248/141/20 251/144/20
f 243/145/20 244/137/20 251/144/20
f 242/146/20 243/145/20 252/147/20
f 252/147/19 243/145/19 251/144/19
f 242/146/20 252/147/20 241/148/20
s 1
f 258/149/21 260/150/22 259/151/22 257/148/21
f 260/150/22 262/152/22 261/153/22 259/151/22
f 262/152/22 264/154/22 263/155/22 261/153/22
f 264/154/22 266/156/23 265/138/23 263/155/22
f 266/156/23 268/157/24 267/158/24 265/138/23
f 268/157/24 270/159/24 269/160/24 267/158/24
f 270/159/24 272/161/23 271/162/23 269/160/24
f 272/161/23 274/163/23 273/144/23 271/162/23
f 274/163/23 276/164/24 275/165/24 273/144/23
f 276/164/24 278/166/21 277/167/21 275/165/24
f 278/166/21 280/168/21 279/169/21 277/167/21
f 280/168/21 258/170/21 257/136/21 279/169/21
f 282/149/22 284/154/21 283/155/21 281/148/22
f 284/154/21 286/159/24 285/160/24 283/155/21
f 286/159/24 288/164/23 287/165/23 285/160/24
f 288/164/23 282/170/22 281/136/22 287/165/23
