# Blender 4.4.0
# www.blender.org
mtllib score.mtl
usemtl score
o Text
v -0.233333 0.125000 0.266500
v -0.366667 0.125000 0.266500
v -0.366667 0.125000 0.199833
v -0.233333 0.125000 0.199833
v -0.366667 0.125000 0.199833
v -0.433333 0.125000 0.199833
v -0.433333 0.125000 -0.000167
v -0.366667 0.125000 -0.000167
v -0.166667 0.125000 0.199833
v -0.233333 0.125000 0.199833
v -0.233333 0.125000 0.066500
v -0.300000 0.125000 0.066500
v -0.300000 0.125000 -0.000167
v -0.366667 0.125000 -0.000167
v -0.366667 0.125000 -0.133500
v -0.300000 0.125000 -0.133500
v -0.300000 0.125000 -0.066833
v -0.233333 0.125000 -0.066833
v -0.233333 0.125000 -0.000167
v -0.166667 0.125000 -0.000167
v -0.366667 0.125000 -0.133500
v -0.433333 0.125000 -0.133500
v -0.433333 0.125000 -0.200167
v -0.366667 0.125000 -0.200167
v -0.166667 0.125000 -0.066833
v -0.233333 0.125000 -0.066833
v -0.233333 0.125000 -0.200167
v -0.166667 0.125000 -0.200167
v -0.233333 0.125000 -0.200167
v -0.366667 0.125000 -0.200167
v -0.366667 0.125000 -0.266833
v -0.233333 0.125000 -0.266833
v -0.233333 -0.125000 0.266500
v -0.366667 -0.125000 0.266500
v -0.366667 -0.125000 0.199833
v -0.233333 -0.125000 0.199833
v -0.366667 -0.125000 0.199833
v -0.433333 -0.125000 0.199833
v -0.433333 -0.125000 -0.000167
v -0.366667 -0.125000 -0.000167
v -0.166667 -0.125000 0.199833
v -0.233333 -0.125000 0.199833
v -0.233333 -0.125000 0.066500
v -0.300000 -0.125000 0.066500
v -0.300000 -0.125000 -0.000167
v -0.366667 -0.125000 -0.000167
v -0.366667 -0.125000 -0.133500
v -0.300000 -0.125000 -0.133500
v -0.300000 -0.125000 -0.066833
v -0.233333 -0.125000 -0.066833
v -0.233333 -0.125000 -0.000167
v -0.166667 -0.125000 -0.000167
v -0.366667 -0.125000 -0.133500
v -0.433333 -0.125000 -0.133500
v -0.433333 -0.125000 -0.200167
v -0.366667 -0.125000 -0.200167
v -0.166667 -0.125000 -0.066833
v -0.233333 -0.125000 -0.066833
v -0.233333 -0.125000 -0.200167
v -0.166667 -0.125000 -0.200167
v -0.233333 -0.125000 -0.200167
v -0.366667 -0.125000 -0.200167
v -0.366667 -0.125000 -0.266833
v -0.233333 -0.125000 -0.266833
v -0.233333 -0.125000 0.266500
v -0.233333 0.125000 0.266500
v -0.366667 -0.125000 0.266500
v -0.366667 0.125000 0.266500
v -0.366667 -0.125000 0.199833
v -0.366667 0.125000 0.199833
v -0.233333 -0.125000 0.199833
v -0.233333 0.125000 0.199833
v -0.366667 -0.125000 0.199833
v -0.366667 0.125000 0.199833
v -0.433333 -0.125000 0.199833
v -0.433333 0.125000 0.199833
v -0.433333 -0.125000 -0.000167
v -0.433333 0.125000 -0.000167
v -0.366667 -0.125000 -0.000167
v -0.366667 0.125000 -0.000167
v -0.166667 -0.125000 0.199833
v -0.166667 0.125000 0.199833
v -0.233333 -0.125000 0.199833
v -0.233333 0.125000 0.199833
v -0.233333 -0.125000 0.066500
v -0.233333 0.125000 0.066500
v -0.300000 -0.125000 0.066500
v -0.300000 0.125000 0.066500
v -0.300000 -0.125000 -0.000167
v -0.300000 0.125000 -0.000167
v -0.366667 -0.125000 -0.000167
v -0.366667 0.125000 -0.000167
v -0.366667 -0.125000 -0.133500
v -0.366667 0.125000 -0.133500
v -0.300000 -0.125000 -0.133500
v -0.300000 0.125000 -0.133500
v -0.300000 -0.125000 -0.066833
v -0.300000 0.125000 -0.066833
v -0.233333 -0.125000 -0.066833
v -0.233333 0.125000 -0.066833
v -0.233333 -0.125000 -0.000167
v -0.233333 0.125000 -0.000167
v -0.166667 -0.125000 -0.000167
v -0.166667 0.125000 -0.000167
v -0.366667 -0.125000 -0.133500
v -0.366667 0.125000 -0.133500
v -0.433333 -0.125000 -0.133500
v -0.433333 0.125000 -0.133500
v -0.433333 -0.125000 -0.200167
v -0.433333 0.125000 -0.200167
v -0.366667 -0.125000 -0.200167
v -0.366667 0.125000 -0.200167
v -0.166667 -0.125000 -0.066833
v -0.166667 0.125000 -0.066833
v -0.233333 -0.125000 -0.066833
v -0.233333 0.125000 -0.066833
v -0.233333 -0.125000 -0.200167
v -0.233333 0.125000 -0.200167
v -0.166667 -0.125000 -0.200167
v -0.166667 0.125000 -0.200167
v -0.233333 -0.125000 -0.200167
v -0.233333 0.125000 -0.200167
v -0.366667 -0.125000 -0.200167
v -0.366667 0.125000 -0.200167
v -0.366667 -0.125000 -0.266833
v -0.366667 0.125000 -0.266833
v -0.233333 -0.125000 -0.266833
v -0.233333 0.125000 -0.266833
vn -0.0000 1.0000 -0.0000
vn -0.0000 -1.0000 -0.0000
vn 0.7071 -0.0000 0.7071
vn -0.7071 -0.0000 0.7071
vn -0.7071 -0.0000 -0.7071
vn 0.7071 -0.0000 -0.7071
vt 0.935484 0.000000
vt 1.000000 0.000000
vt 0.967742 0.000000
vt 0.903226 0.000000
vt 0.677419 0.000000
vt 0.741935 0.000000
vt 0.709677 0.000000
vt 0.645161 0.000000
vt 0.806452 0.000000
vt 0.870968 0.000000
vt 0.838710 0.000000
vt 0.774194 0.000000
vt 0.419355 0.000000
vt 0.483871 0.000000
vt 0.451613 0.000000
vt 0.516129 0.000000
vt 0.548387 0.000000
vt 0.580645 0.000000
vt 0.161290 0.000000
vt 0.225806 0.000000
vt 0.193548 0.000000
vt 0.129032 0.000000
vt 0.387097 0.000000
vt 0.354839 0.000000
vt 0.612903 0.000000
vt 0.322581 0.000000
vt 0.258065 0.000000
vt 0.290323 0.000000
vt 0.032258 0.000000
vt 0.096774 0.000000
vt 0.064516 0.000000
vt 0.000000 0.000000
vt 0.000000 1.000000
vt 0.250000 1.000000
vt 0.250000 0.000000
vt 0.500000 1.000000
vt 0.500000 0.000000
vt 0.750000 1.000000
vt 0.750000 0.000000
vt 1.000000 1.000000
vt 0.083333 1.000000
vt 0.083333 0.000000
vt 0.166667 1.000000
vt 0.166667 0.000000
vt 0.333333 1.000000
vt 0.333333 0.000000
vt 0.416667 1.000000
vt 0.416667 0.000000
vt 0.583333 1.000000
vt 0.583333 0.000000
vt 0.666667 1.000000
vt 0.666667 0.000000
vt 0.833333 1.000000
vt 0.833333 0.000000
vt 0.916667 1.000000
vt 0.916667 0.000000
s 0
f 30/1/1 32/2/1 31/3/1
f 30/1/1 29/4/1 32/2/1
f 22/5/1 24/6/1 23/7/1
f 22/5/1 21/8/1 24/6/1
f 26/9/1 28/10/1 27/11/1
f 26/9/1 25/12/1 28/10/1
f 14/13/1 16/14/1 15/15/1
f 14/13/1 17/16/1 16/14/1
f 14/13/1 18/17/1 17/16/1
f 14/13/1 19/18/1 18/17/1
f 6/19/1 8/20/1 7/21/1
f 6/19/1 5/22/1 8/20/1
f 13/23/1 19/18/1 14/13/1
f 12/24/1 19/18/1 13/23/1
f 12/24/1 20/25/1 19/18/1
f 12/24/1 11/26/1 20/25/1
f 11/26/1 9/27/1 20/25/1
f 10/28/1 9/27/1 11/26/1
f 2/29/1 4/30/1 3/31/1
f 2/29/1 1/32/1 4/30/1
f 62/1/2 63/3/2 64/2/2
f 62/1/2 64/2/2 61/4/2
f 54/5/2 55/7/2 56/6/2
f 54/5/2 56/6/2 53/8/2
f 58/9/2 59/11/2 60/10/2
f 58/9/2 60/10/2 57/12/2
f 46/13/2 47/15/2 48/14/2
f 46/13/2 48/14/2 49/16/2
f 46/13/2 49/16/2 50/17/2
f 46/13/2 50/17/2 51/18/2
f 38/19/2 39/21/2 40/20/2
f 38/19/2 40/20/2 37/22/2
f 45/23/1 46/13/1 51/18/1
f 44/24/2 45/23/2 51/18/2
f 44/24/2 51/18/2 52/25/2
f 44/24/2 52/25/2 43/26/2
f 43/26/2 52/25/2 41/27/2
f 42/28/2 43/26/2 41/27/2
f 34/29/2 35/31/2 36/30/2
f 34/29/2 36/30/2 33/32/2
s 1
f 66/33/3 68/34/4 67/35/4 65/32/3
f 68/34/4 70/36/5 69/37/5 67/35/4
f 70/36/5 72/38/6 71/39/6 69/37/5
f 72/38/6 66/40/3 65/2/3 71/39/6
f 74/33/3 76/34/4 75/35/4 73/32/3
f 76/34/4 78/36/5 77/37/5 75/35/4
f 78/36/5 80/38/6 79/39/6 77/37/5
f 80/38/6 74/40/3 73/2/3 79/39/6
f 82/33/3 84/41/4 83/42/4 81/32/3
f 84/41/4 86/43/4 85/44/4 83/42/4
f 86/43/4 88/34/4 87/35/4 85/44/4
f 88/34/4 90/45/4 89/46/4 87/35/4
f 90/45/4 92/47/4 91/48/4 89/46/4
f 92/47/4 94/36/5 93/37/5 91/48/4
f 94/36/5 96/49/6 95/50/6 93/37/5
f 96/49/6 98/51/6 97/52/6 95/50/6
f 98/51/6 100/38/6 99/39/6 97/52/6
f 100/38/6 102/53/6 101/54/6 99/39/6
f 102/53/6 104/55/6 103/56/6 101/54/6
f 104/55/6 82/40/3 81/2/3 103/56/6
f 106/33/3 108/34/4 107/35/4 105/32/3
f 108/34/4 110/36/5 109/37/5 107/35/4
f 110/36/5 112/38/6 111/39/6 109/37/5
f 112/38/6 106/40/3 105/2/3 111/39/6
f 114/33/3 116/34/4 115/35/4 113/32/3
f 116/34/4 118/36/5 117/37/5 115/35/4
f 118/36/5 120/38/6 119/39/6 117/37/5
f 120/38/6 114/40/3 113/2/3 119/39/6
f 122/33/3 124/34/4 123/35/4 121/32/3
f 124/34/4 126/36/5 125/37/5 123/35/4
f 126/36/5 128/38/6 127/39/6 125/37/5
f 128/38/6 122/40/3 121/2/3 127/39/6
o Text.001
v 0.033333 0.125000 0.266500
v -0.033333 0.125000 0.266500
v -0.033333 0.125000 0.199833
v -0.100000 0.125000 0.199833
v -0.100000 0.125000 -0.200167
v -0.033333 0.125000 -0.200167
v -0.033333 0.125000 0.133167
v 0.033333 0.125000 0.133167
v 0.033333 0.125000 -0.200167
v 0.100000 0.125000 -0.200167
v 0.100000 0.125000 0.199833
v 0.033333 0.125000 0.199833
v 0.033333 0.125000 -0.266833
v -0.033333 0.125000 -0.266833
v -0.033333 0.125000 -0.200167
v 0.033333 0.125000 -0.200167
v 0.033333 -0.125000 0.266500
v -0.033333 -0.125000 0.266500
v -0.033333 -0.125000 0.199833
v -0.100000 -0.125000 0.199833
v -0.100000 -0.125000 -0.200167
v -0.033333 -0.125000 -0.200167
v -0.033333 -0.125000 0.133167
v 0.033333 -0.125000 0.133167
v 0.033333 -0.125000 -0.200167
v 0.100000 -0.125000 -0.200167
v 0.100000 -0.125000 0.199833
v 0.033333 -0.125000 0.199833
v 0.033333 -0.125000 -0.266833
v -0.033333 -0.125000 -0.266833
v -0.033333 -0.125000 -0.200167
v 0.033333 -0.125000 -0.200167
v 0.033333 -0.125000 0.266500
v 0.033333 0.125000 0.266500
v -0.033333 -0.125000 0.266500
v -0.033333 0.125000 0.266500
v -0.033333 -0.125000 0.199833
v -0.033333 0.125000 0.199833
v -0.100000 -0.125000 0.199833
v -0.100000 0.125000 0.199833
v -0.100000 -0.125000 -0.200167
v -0.100000 0.125000 -0.200167
v -0.033333 -0.125000 -0.200167
v -0.033333 0.125000 -0.200167
v -0.033333 -0.125000 0.133167
v -0.033333 0.125000 0.133167
v 0.033333 -0.125000 0.133167
v 0.033333 0.125000 0.133167
v 0.033333 -0.125000 -0.200167
v 0.033333 0.125000 -0.200167
v 0.100000 -0.125000 -0.200167
v 0.100000 0.125000 -0.200167
v 0.100000 -0.125000 0.199833
v 0.100000 0.125000 0.199833
v 0.033333 -0.125000 0.199833
v 0.033333 0.125000 0.199833
v 0.033333 -0.125000 -0.266833
v 0.033333 0.125000 -0.266833
v -0.033333 -0.125000 -0.266833
v -0.033333 0.125000 -0.266833
v -0.033333 -0.125000 -0.200167
v -0.033333 0.125000 -0.200167
v 0.033333 -0.125000 -0.200167
v 0.033333 0.125000 -0.200167
vn -0.0000 1.0000 -0.0000
vn -0.0000 -1.0000 -0.0000
vn 0.7071 -0.0000 0.7071
vn -0.7071 -0.0000 0.7071
vn -0.7071 -0.0000 -0.7071
vn 0.7071 -0.0000 -0.7071
vt 0.933333 0.000000
vt 0.800000 0.000000
vt 0.866667 0.000000
vt 1.000000 0.000000
vt 0.200000 0.000000
vt 0.333333 0.000000
vt 0.266667 0.000000
vt 0.400000 0.000000
vt 0.466667 0.000000
vt 0.600000 0.000000
vt 0.533333 0.000000
vt 0.666667 0.000000
vt 0.133333 0.000000
vt 0.066667 0.000000
vt 0.733333 0.000000
vt 0.000000 0.000000
vt 0.000000 1.000000
vt 0.083333 1.000000
vt 0.083333 0.000000
vt 0.166667 1.000000
vt 0.166667 0.000000
vt 0.250000 1.000000
vt 0.250000 0.000000
vt 0.333333 1.000000
vt 0.416667 1.000000
vt 0.416667 0.000000
vt 0.500000 1.000000
vt 0.500000 0.000000
vt 0.583333 1.000000
vt 0.583333 0.000000
vt 0.666667 1.000000
vt 0.750000 1.000000
vt 0.750000 0.000000
vt 0.833333 1.000000
vt 0.833333 0.000000
vt 0.916667 1.000000
vt 0.916667 0.000000
vt 1.000000 1.000000
s 0
f 143/57/7 141/58/7 142/59/7
f 143/57/7 144/60/7 141/58/7
f 132/61/7 134/62/7 133/63/7
f 132/61/7 135/64/7 134/62/7
f 136/65/7 138/66/7 137/67/7
f 136/65/7 139/68/7 138/66/7
f 132/61/7 136/65/7 135/64/7
f 132/61/7 139/68/7 136/65/7
f 131/69/7 139/68/7 132/61/7
f 130/70/7 140/71/7 131/69/7
f 140/71/7 139/68/7 131/69/7
f 130/70/7 129/72/7 140/71/7
f 159/57/8 158/59/8 157/58/8
f 159/57/8 157/58/8 160/60/8
f 148/61/8 149/63/8 150/62/8
f 148/61/8 150/62/8 151/64/8
f 152/65/8 153/67/8 154/66/8
f 152/65/8 154/66/8 155/68/8
f 148/61/8 151/64/8 152/65/8
f 148/61/8 152/65/8 155/68/8
f 147/69/8 148/61/8 155/68/8
f 146/70/8 147/69/8 156/71/8
f 156/71/7 147/69/7 155/68/7
f 146/70/8 156/71/8 145/72/8
s 1
f 162/73/9 164/74/10 163/75/10 161/72/9
f 164/74/10 166/76/10 165/77/10 163/75/10
f 166/76/10 168/78/10 167/79/10 165/77/10
f 168/78/10 170/80/11 169/62/11 167/79/10
f 170/80/11 172/81/12 171/82/12 169/62/11
f 172/81/12 174/83/12 173/84/12 171/82/12
f 174/83/12 176/85/11 175/86/11 173/84/12
f 176/85/11 178/87/11 177/68/11 175/86/11
f 178/87/11 180/88/12 179/89/12 177/68/11
f 180/88/12 182/90/9 181/91/9 179/89/12
f 182/90/9 184/92/9 183/93/9 181/91/9
f 184/92/9 162/94/9 161/60/9 183/93/9
f 186/73/10 188/78/9 187/79/9 185/72/10
f 188/78/9 190/83/12 189/84/12 187/79/9
f 190/83/12 192/88/11 191/89/11 189/84/12
f 192/88/11 186/94/10 185/60/10 191/89/11
o Text.002
v 0.299833 0.125000 0.266500
v 0.233167 0.125000 0.266500
v 0.233167 0.125000 0.199833
v 0.166500 0.125000 0.199833
v 0.166500 0.125000 -0.200167
v 0.233167 0.125000 -0.200167
v 0.233167 0.125000 0.133167
v 0.299833 0.125000 0.133167
v 0.299833 0.125000 -0.200167
v 0.366500 0.125000 -0.200167
v 0.366500 0.125000 0.199833
v 0.299833 0.125000 0.199833
v 0.299833 0.125000 -0.266833
v 0.233167 0.125000 -0.266833
v 0.233167 0.125000 -0.200167
v 0.299833 0.125000 -0.200167
v 0.299833 -0.125000 0.266500
v 0.233167 -0.125000 0.266500
v 0.233167 -0.125000 0.199833
v 0.166500 -0.125000 0.199833
v 0.166500 -0.125000 -0.200167
v 0.233167 -0.125000 -0.200167
v 0.233167 -0.125000 0.133167
v 0.299833 -0.125000 0.133167
v 0.299833 -0.125000 -0.200167
v 0.366500 -0.125000 -0.200167
v 0.366500 -0.125000 0.199833
v 0.299833 -0.125000 0.199833
v 0.299833 -0.125000 -0.266833
v 0.233167 -0.125000 -0.266833
v 0.233167 -0.125000 -0.200167
v 0.299833 -0.125000 -0.200167
v 0.299833 -0.125000 0.266500
v 0.299833 0.125000 0.266500
v 0.233167 -0.125000 0.266500
v 0.233167 0.125000 0.266500
v 0.233167 -0.125000 0.199833
v 0.233167 0.125000 0.199833
v 0.166500 -0.125000 0.199833
v 0.166500 0.125000 0.199833
v 0.166500 -0.125000 -0.200167
v 0.166500 0.125000 -0.200167
v 0.233167 -0.125000 -0.200167
v 0.233167 0.125000 -0.200167
v 0.233167 -0.125000 0.133167
v 0.233167 0.125000 0.133167
v 0.299833 -0.125000 0.133167
v 0.299833 0.125000 0.133167
v 0.299833 -0.125000 -0.200167
v 0.299833 0.125000 -0.200167
v 0.366500 -0.125000 -0.200167
v 0.366500 0.125000 -0.200167
v 0.366500 -0.125000 0.199833
v 0.366500 0.125000 0.199833
v 0.299833 -0.125000 0.199833
v 0.299833 0.125000 0.199833
v 0.299833 -0.125000 -0.266833
v 0.299833 0.125000 -0.266833
v 0.233167 -0.125000 -0.266833
v 0.233167 0.125000 -0.266833
v 0.233167 -0.125000 -0.200167
v 0.233167 0.125000 -0.200167
v 0.299833 -0.125000 -0.200167
v 0.299833 0.125000 -0.200167
vn -0.0000 1.0000 -0.0000
vn -0.0000 -1.0000 -0.0000
vn 0.7071 -0.0000 0.7071
vn -0.7071 -0.0000 0.7071
vn -0.7071 -0.0000 -0.7071
vn 0.7071 -0.0000 -0.7071
vt 0.933333 0.000000
vt 0.800000 0.000000
vt 0.866667 0.000000
vt 1.000000 0.000000
vt 0.200000 0.000000
vt 0.333333 0.000000
vt 0.266667 0.000000
vt 0.400000 0.000000
vt 0.466667 0.000000
vt 0.600000 0.000000
vt 0.533333 0.000000
vt 0.666667 0.000000
vt 0.133333 0.000000
vt 0.066667 0.000000
vt 0.733333 0.000000
vt 0.000000 0.000000
vt 0.000000 1.000000
vt 0.083333 1.000000
vt 0.083333 0.000000
vt 0.166667 1.000000
vt 0.166667 0.000000
vt 0.250000 1.000000
vt 0.250000 0.000000
vt 0.333333 1.000000
vt 0.416667 1.000000
vt 0.416667 0.000000
vt 0.500000 1.000000
vt 0.500000 0.000000
vt 0.583333 1.000000
vt 0.583333 0.000000
vt 0.666667 1.000000
vt 0.750000 1.000000
vt 0.750000 0.000000
vt 0.833333 1.000000
vt 0.833333 0.000000
vt 0.916667 1.000000
vt 0.916667 0.000000
vt 1.000000 1.000000
s 0
f 207/95/13 205/96/13 206/97/13
f 207/95/13 208/98/13 205/96/13
f 196/99/13 198/100/13 197/101/13
f 196/99/13 199/102/13 198/100/13
f 200/103/13 202/104/13 201/105/13
f 200/103/13 203/106/13 202/104/13
f 196/99/13 200/103/13 199/102/13
f 196/99/13 203/106/13 200/103/13
f 195/107/13 203/106/13 196/99/13
f 194/108/13 204/109/13 195/107/13
f 204/109/13 203/106/13 195/107/13
f 194/108/13 193/110/13 204/109/13
f 223/95/14 222/97/14 221/96/14
f 223/95/14 221/96/14 224/98/14
f 212/99/14 213/101/14 214/100/14
f 212/99/14 214/100/14 215/102/14
f 216/103/14 217/105/14 218/104/14
f 216/103/14 218/104/14 219/106/14
f 212/99/14 215/102/14 216/103/14
f 212/99/14 216/103/14 219/106/14
f 211/107/14 212/99/14 219/106/14
f 210/108/14 211/107/14 220/109/14
f 220/109/13 211/107/13 219/106/13
f 210/108/14 220/109/14 209/110/14
s 1
f 226/111/15 228/112/16 227/113/16 225/110/15
f 228/112/16 230/114/16 229/115/16 227/113/16
f 230/114/16 232/116/16 231/117/16 229/115/16
f 232/116/16 234/118/17 233/100/17 231/117/16
f 234/118/17 236/119/18 235/120/18 233/100/17
f 236/119/18 238/121/18 237/122/18 235/120/18
f 238/121/18 240/123/17 239/124/17 237/122/18
f 240/123/17 242/125/17 241/106/17 239/124/17
f 242/125/17 244/126/18 243/127/18 241/106/17
f 244/126/18 246/128/15 245/129/15 243/127/18
f 246/128/15 248/130/15 247/131/15 245/129/15
f 248/130/15 226/132/15 225/98/15 247/131/15
f 250/111/16 252/116/15 251/117/15 249/110/16
f 252/116/15 254/121/18 253/122/18 251/117/15
f 254/121/18 256/126/17 255/127/17 253/122/18
f 256/126/17 250/132/16 249/98/16 255/127/17
o Text.003
v 0.576333 0.125000 0.266500
v 0.509667 0.125000 0.266500
v 0.509667 0.125000 0.199833
v 0.443000 0.125000 0.199833
v 0.443000 0.125000 -0.200167
v 0.509667 0.125000 -0.200167
v 0.509667 0.125000 0.133167
v 0.576333 0.125000 0.133167
v 0.576333 0.125000 -0.200167
v 0.643000 0.125000 -0.200167
v 0.643000 0.125000 0.199833
v 0.576333 0.125000 0.199833
v 0.576333 0.125000 -0.266833
v 0.509667 0.125000 -0.266833
v 0.509667 0.125000 -0.200167
v 0.576333 0.125000 -0.200167
v 0.576333 -0.125000 0.266500
v 0.509667 -0.125000 0.266500
v 0.509667 -0.125000 0.199833
v 0.443000 -0.125000 0.199833
v 0.443000 -0.125000 -0.200167
v 0.509667 -0.125000 -0.200167
v 0.509667 -0.125000 0.133167
v 0.576333 -0.125000 0.133167
v 0.576333 -0.125000 -0.200167
v 0.643000 -0.125000 -0.200167
v 0.643000 -0.125000 0.199833
v 0.576333 -0.125000 0.199833
v 0.576333 -0.125000 -0.266833
v 0.509667 -0.125000 -0.266833
v 0.509667 -0.125000 -0.200167
v 0.576333 -0.125000 -0.200167
v 0.576333 -0.125000 0.266500
v 0.576333 0.125000 0.266500
v 0.509667 -0.125000 0.266500
v 0.509667 0.125000 0.266500
v 0.509667 -0.125000 0.199833
v 0.509667 0.125000 0.199833
v 0.443000 -0.125000 0.199833
v 0.443000 0.125000 0.199833
v 0.443000 -0.125000 -0.200167
v 0.443000 0.125000 -0.200167
v 0.509667 -0.125000 -0.200167
v 0.509667 0.125000 -0.200167
v 0.509667 -0.125000 0.133167
v 0.509667 0.125000 0.133167
v 0.576333 -0.125000 0.133167
v 0.576333 0.125000 0.133167
v 0.576333 -0.125000 -0.200167
v 0.576333 0.125000 -0.200167
v 0.643000 -0.125000 -0.200167
v 0.643000 0.125000 -0.200167
v 0.643000 -0.125000 0.199833
v 0.643000 0.125000 0.199833
v 0.576333 -0.125000 0.199833
v 0.576333 0.125000 0.199833
v 0.576333 -0.125000 -0.266833
v 0.576333 0.125000 -0.266833
v 0.509667 -0.125000 -0.266833
v 0.509667 0.125000 -0.266833
v 0.509667 -0.125000 -0.200167
v 0.509667 0.125000 -0.200167
v 0.576333 -0.125000 -0.200167
v 0.576333 0.125000 -0.200167
vn -0.0000 1.0000 -0.0000
vn -0.0000 -1.0000 -0.0000
vn 0.7071 -0.0000 0.7071
vn -0.7071 -0.0000 0.7071
vn -0.7071 -0.0000 -0.7071
vn 0.7071 -0.0000 -0.7071
vt 0.933333 0.000000
vt 0.800000 0.000000
vt 0.866667 0.000000
vt 1.000000 0.000000
vt 0.200000 0.000000
vt 0.333333 0.000000
vt 0.266667 0.000000
vt 0.400000 0.000000
vt 0.466667 0.000000
vt 0.600000 0.000000
vt 0.533333 0.000000
vt 0.666667 0.000000
vt 0.133333 0.000000
vt 0.066667 0.000000
vt 0.733333 0.000000
vt 0.000000 0.000000
vt 0.000000 1.000000
vt 0.083333 1.000000
vt 0.083333 0.000000
vt 0.166667 1.000000
vt 0.166667 0.000000
vt 0.250000 1.000000
vt 0.250000 0.000000
vt 0.333333 1.000000
vt 0.416667 1.000000
vt 0.416667 0.000000
vt 0.500000 1.000000
vt 0.500000 0.000000
vt 0.583333 1.000000
vt 0.583333 0.000000
vt 0.666667 1.000000
vt 0.750000 1.000000
vt 0.750000 0.000000
vt 0.833333 1.000000
vt 0.833333 0.000000
vt 0.916667 1.000000
vt 0.916667 0.000000
vt 1.000000 1.000000
s 0
f 271/133/19 269/134/19 270/135/19
f 271/133/19 272/136/19 269/134/19
f 260/137/19 262/138/19 261/139/19
f 260/137/19 263/140/19 262/138/19
f 264/141/19 266/142/19 265/143/19
f 264/141/19 267/144/19 266/142/19
f 260/137/19 264/141/19 263/140/19
f 260/137/19 267/144/19 264/141/19
f 259/145/19 267/144/19 260/137/19
f 258/146/19 268/147/19 259/145/19
f 268/147/19 267/144/19 259/145/19
f 258/146/19 257/148/19 268/147/19
f 287/133/20 286/135/20 285/134/20
f 287/133/20 285/134/20 288/136/20
f 276/137/20 277/139/20 278/138/20
f 276/137/20 278/138/20 279/140/20
f 280/141/20 281/143/20 282/142/20
f 280/141/20 282/142/20 283/144/20
f 276/137/20 279/140/20 280/141/20
f 276/137/20 280/141/20 283/144/20
f 275/145/20 276/137/20 283/144/20
f 274/146/20 275/145/20 284/147/20
f 284/147/19 275/145/19 283/144/19
f 274/146/20 284/147/20 273/148/20
s 1
f 290/149/21 292/150/22 291/151/22 289/148/21
f 292/150/22 294/152/22 293/153/22 291/151/22
f 294/152/22 296/154/22 295/155/22 293/153/22
f 296/154/22 298/156/23 297/138/23 295/155/22
f 298/156/23 300/157/24 299/158/24 297/138/23
f 300/157/24 302/159/24 301/160/24 299/158/24
f 302/159/24 304/161/23 303/162/23 301/160/24
f 304/161/23 306/163/23 305/144/23 303/162/23
f 306/163/23 308/164/24 307/165/24 305/144/23
f 308/164/24 310/166/21 309/167/21 307/165/24
f 310/166/21 312/168/21 311/169/21 309/167/21
f 312/168/21 290/170/21 289/136/21 311/169/21
f 314/149/22 316/154/21 315/155/21 313/148/22
f 316/154/21 318/159/24 317/160/24 315/155/21
f 318/159/24 320/164/23 319/165/23 317/160/24
f 320/164/23 314/170/22 313/136/22 319/165/23
